{"_v":2,"glyphs":{"0":{"ha":572,"x_min":50,"x_max":523,"o":"m 286 -12 l 286 -12 q 209 -12 156 30 q 103 72 77 155 q 50 237 50 357 l 50 357 q 50 482 76 564 q 101 645 154 685 q 206 725 286 725 l 286 725 q 363 725 416 683 q 469 641 496 560 q 523 478 523 357 l 523 357 q 523 264 509 195 q 494 125 465 80 q 435 34 391 11 q 346 -12 286 -12 z m 286 63 l 286 63 q 336 63 366 90 q 396 116 411 159 q 426 202 431 254 q 435 306 435 357 l 435 357 q 435 407 430 458 q 425 509 410 553 q 394 597 365 624 q 335 650 286 650 l 286 650 q 235 650 206 624 q 176 597 162 554 q 147 510 143 459 q 138 407 138 357 l 138 357 q 138 299 144 246 q 149 193 165 152 q 180 110 209 87 q 238 63 286 63 z"},"1":{"ha":572,"x_min":90,"x_max":356,"o":"m 356 714 l 356 0 l 270 0 l 270 499 q 270 540 271 571 q 272 601 273 622 l 273 622 q 266 615 257 606 q 247 597 235 587 l 235 587 l 136 505 l 90 564 l 283 714 l 356 714 z"},"2":{"ha":572,"x_min":49,"x_max":521,"o":"m 521 0 l 49 0 l 49 73 l 236 262 q 289 316 326 358 q 362 400 382 441 q 401 481 401 529 l 401 529 q 401 567 386 594 q 370 621 342 636 q 313 650 275 650 l 275 650 q 222 650 185 633 q 148 615 104 582 l 104 582 l 57 641 q 91 669 126 688 q 161 706 199 716 q 236 725 275 725 l 275 725 q 338 725 387 704 q 435 682 463 640 q 491 597 491 534 l 491 534 q 491 478 468 429 q 444 379 403 331 q 362 283 309 231 l 309 231 l 160 84 l 160 80 l 521 80 l 521 0 z"},"3":{"ha":572,"x_min":45,"x_max":516,"o":"m 242 -12 l 242 -12 q 183 -12 134 -2 q 84 8 45 27 l 45 27 l 45 109 q 91 87 143 75 q 195 62 243 62 l 243 62 q 333 62 379 98 q 424 134 424 204 l 424 204 q 424 246 402 275 q 379 303 335 317 q 291 331 224 331 l 224 331 l 155 331 l 155 406 l 225 406 q 282 406 322 423 q 362 439 383 470 q 404 500 404 541 l 404 541 q 404 592 369 622 q 334 651 273 651 l 273 651 q 220 651 181 637 q 141 622 94 591 l 94 591 l 50 651 q 98 687 154 706 q 209 725 272 725 l 272 725 q 333 725 383 707 q 433 688 464 649 q 494 609 494 547 l 494 547 q 494 502 477 467 q 460 432 427 409 q 394 386 346 376 l 346 376 l 346 372 q 429 362 473 318 q 516 274 516 202 l 516 202 q 516 125 479 78 q 442 31 380 10 q 317 -12 242 -12 z"},"4":{"ha":572,"x_min":21,"x_max":553,"o":"m 449 0 l 364 0 l 364 162 l 21 162 l 21 237 l 357 718 l 449 718 l 449 241 l 553 241 l 553 162 l 449 162 l 449 0 z m 322 546 l 107 241 l 364 241 l 364 466 q 364 486 365 511 q 365 535 366 564 q 367 592 369 624 l 369 624 l 365 624 q 357 605 347 586 q 336 566 322 546 l 322 546 z"},"5":{"ha":572,"x_min":63,"x_max":516,"o":"m 249 -12 l 249 -12 q 191 -12 143 -2 q 95 8 63 27 l 63 27 l 63 110 q 104 87 156 75 q 207 63 250 63 l 250 63 q 306 63 345 81 q 384 99 405 134 q 426 169 426 218 l 426 218 q 426 291 381 328 q 336 364 247 364 l 247 364 q 220 364 190 361 q 160 357 125 349 l 125 349 l 81 377 l 107 714 l 466 714 l 466 634 l 183 634 l 166 427 q 196 433 224 436 q 251 438 275 438 l 275 438 q 344 438 399 415 q 453 391 485 344 q 516 297 516 227 l 516 227 q 516 148 483 95 q 449 41 389 15 q 329 -12 249 -12 z"},"6":{"ha":572,"x_min":54,"x_max":524,"o":"m 297 -12 l 297 -12 q 233 -12 187 14 q 140 39 111 84 q 82 128 68 185 q 54 242 54 305 l 54 305 q 54 389 67 456 q 80 523 106 574 q 132 624 172 658 q 211 691 264 708 q 316 725 381 725 l 381 725 q 407 725 429 723 q 451 721 469 716 l 469 716 l 469 641 q 451 647 430 650 q 408 653 383 653 l 383 653 q 306 653 254 622 q 202 591 174 527 q 146 463 142 363 l 142 363 l 148 363 q 166 391 192 410 q 217 428 249 438 q 280 447 317 447 l 317 447 q 383 447 429 420 q 475 392 500 343 q 524 294 524 229 l 524 229 q 524 158 498 104 q 471 49 420 19 q 369 -12 297 -12 z m 296 62 l 296 62 q 364 62 401 106 q 437 150 437 229 l 437 229 q 437 300 402 339 q 367 378 299 378 l 299 378 q 253 378 218 359 q 183 340 163 310 q 143 280 143 247 l 143 247 q 143 212 154 179 q 164 146 184 120 q 203 93 232 78 q 260 62 296 62 z"},"7":{"ha":572,"x_min":44,"x_max":523,"o":"m 233 0 l 137 0 l 430 634 l 44 634 l 44 714 l 523 714 l 523 646 l 233 0 z"},"8":{"ha":572,"x_min":50,"x_max":522,"o":"m 289 -12 l 289 -12 q 222 -12 168 8 q 114 27 82 70 q 50 112 50 181 l 50 181 q 50 222 67 257 q 83 292 116 322 q 149 351 198 373 l 198 373 q 155 398 127 426 q 99 453 86 486 q 73 518 73 555 l 73 555 q 73 614 103 652 q 133 689 182 707 q 231 725 286 725 l 286 725 q 342 725 391 707 q 440 689 470 652 q 500 614 500 554 l 500 554 q 500 518 486 487 q 471 456 441 429 q 411 402 364 378 l 364 378 q 408 356 444 330 q 479 303 501 268 q 522 233 522 184 l 522 184 q 522 119 490 75 q 458 31 406 10 q 353 -12 289 -12 z m 287 59 l 287 59 q 349 59 393 89 q 436 119 436 183 l 436 183 q 436 214 422 240 q 407 265 375 288 q 343 310 290 330 l 290 330 l 271 337 q 224 317 194 294 q 164 270 150 243 q 136 215 136 180 l 136 180 q 136 125 175 92 q 214 59 287 59 z m 290 412 l 290 412 q 334 430 361 451 q 388 472 401 497 q 414 521 414 551 l 414 551 q 414 605 376 630 q 337 654 285 654 l 285 654 q 227 654 193 626 q 159 598 159 551 l 159 551 q 159 513 176 489 q 193 464 223 447 q 252 430 290 412 z"},"9":{"ha":572,"x_min":48,"x_max":518,"o":"m 190 -12 l 190 -12 q 173 -12 145 -9 q 117 -6 100 -2 l 100 -2 l 100 73 q 120 66 142 63 q 164 60 188 60 l 188 60 q 247 60 291 78 q 335 95 365 131 q 394 166 410 221 q 426 275 429 350 l 429 350 l 423 350 q 405 323 380 305 q 355 286 324 277 q 292 267 253 267 l 253 267 q 188 267 142 294 q 96 321 72 370 q 48 419 48 483 l 48 483 q 48 555 75 610 q 102 664 154 695 q 205 725 276 725 l 276 725 q 339 725 385 700 q 431 674 461 630 q 490 586 504 531 q 518 475 518 415 l 518 415 q 518 329 505 260 q 492 191 466 140 q 439 89 400 56 q 361 22 309 5 q 256 -12 190 -12 z m 272 337 l 272 337 q 317 337 353 356 q 388 374 409 404 q 429 433 429 467 l 429 467 q 429 501 419 534 q 409 567 389 594 q 369 620 341 636 q 312 651 276 651 l 276 651 q 209 651 172 607 q 135 563 135 484 l 135 484 q 135 413 170 375 q 205 337 272 337 z"},"\r":{"ha":309,"x_min":0,"x_max":0,"o":""}," ":{"ha":309,"x_min":0,"x_max":0,"o":""},"ഀ":{"ha":0,"x_min":-429,"x_max":-126,"o":"m -429 721 l -429 721 q -429 781 -388 823 q -347 864 -278 864 l -278 864 q -208 864 -167 823 q -126 782 -126 721 l -126 721 q -126 660 -167 619 q -208 578 -278 578 l -278 578 q -348 578 -388 620 q -429 661 -429 721 z m -356 722 l -356 722 q -356 691 -337 667 q -318 643 -278 643 l -278 643 q -237 643 -218 667 q -199 691 -199 722 l -199 722 q -199 752 -218 776 q -238 799 -278 799 l -278 799 q -317 799 -336 776 q -356 752 -356 722 z"},"ഁ":{"ha":0,"x_min":-452,"x_max":-104,"o":"m -278 652 l -278 652 q -362 652 -407 693 q -452 733 -452 807 l -452 807 q -452 821 -450 836 q -448 850 -444 862 l -444 862 l -376 848 q -379 838 -380 828 q -381 817 -381 809 l -381 809 q -381 773 -366 753 q -352 733 -328 725 q -304 717 -278 717 l -278 717 q -251 717 -227 726 q -204 735 -189 756 q -175 776 -175 811 l -175 811 q -175 819 -176 829 q -177 838 -180 848 l -180 848 l -111 862 q -108 850 -106 835 q -104 820 -104 807 l -104 807 q -104 734 -150 693 q -197 652 -278 652 z m -279 759 l -279 759 q -301 759 -315 773 q -329 787 -329 810 l -329 810 q -329 831 -315 846 q -301 860 -279 860 l -279 860 q -257 860 -242 846 q -228 831 -228 810 l -228 810 q -228 787 -242 773 q -257 759 -279 759 z"},"ം":{"ha":453,"x_min":32,"x_max":421,"o":"m 226 -12 l 226 -12 q 166 -12 123 12 q 79 36 56 79 q 32 121 32 176 l 32 176 q 32 232 57 274 q 81 316 125 340 q 169 363 226 363 l 226 363 q 284 363 328 340 q 371 317 396 276 q 421 234 421 176 l 421 176 q 421 119 396 77 q 371 35 328 12 q 284 -12 226 -12 z m 226 295 l 226 295 q 179 295 148 266 q 116 236 116 175 l 116 175 q 116 115 148 86 q 180 56 226 56 l 226 56 q 273 56 305 86 q 337 115 337 176 l 337 176 q 337 236 306 266 q 274 295 226 295 z"},"ഃ":{"ha":336,"x_min":33,"x_max":304,"o":"m 33 436 l 33 436 q 33 491 70 529 q 107 566 168 566 l 168 566 q 230 566 267 529 q 304 492 304 436 l 304 436 q 304 381 267 344 q 230 306 168 306 l 168 306 q 106 306 70 344 q 33 381 33 436 z m 104 437 l 104 437 q 104 409 121 390 q 137 371 168 371 l 168 371 q 200 371 217 390 q 233 409 233 437 l 233 437 q 233 464 217 483 q 200 501 168 501 l 168 501 q 137 501 121 483 q 104 464 104 437 z m 33 118 l 33 118 q 33 173 70 211 q 107 248 168 248 l 168 248 q 230 248 267 211 q 304 174 304 118 l 304 118 q 304 63 267 26 q 230 -12 168 -12 l 168 -12 q 106 -12 70 26 q 33 63 33 118 z m 104 119 l 104 119 q 104 91 121 72 q 137 53 168 53 l 168 53 q 200 53 217 72 q 233 91 233 119 l 233 119 q 233 146 217 165 q 200 183 168 183 l 168 183 q 137 183 121 165 q 104 146 104 119 z"},"ഄ":{"ha":583,"x_min":34,"x_max":549,"o":"m 48 318 l 48 318 l 131 303 q 125 283 123 261 q 120 238 120 215 l 120 215 q 120 148 159 106 q 197 64 291 64 l 291 64 q 386 64 425 106 q 463 148 463 215 l 463 215 q 463 238 461 261 q 458 283 452 303 l 452 303 l 535 318 q 540 299 545 271 q 549 243 549 212 l 549 212 q 549 149 523 99 q 497 49 441 20 q 384 -9 291 -9 l 291 -9 q 199 -9 143 20 q 86 49 60 99 q 34 149 34 212 l 34 212 q 34 243 39 271 q 43 299 48 318 z m 253 171 l 253 403 l 331 403 l 331 171 l 253 171 z"},"അ":{"ha":1495,"x_min":39,"x_max":1456,"o":"m 367 566 l 367 566 q 411 566 459 558 q 506 550 546 533 l 546 533 q 551 531 558 526 q 565 520 570 518 l 570 518 q 625 504 655 480 q 685 456 698 428 q 710 399 710 368 l 710 368 q 710 344 702 323 q 694 302 675 285 q 655 268 622 253 l 622 253 l 626 256 q 670 242 696 211 q 721 180 721 136 l 721 136 q 721 97 702 63 q 682 29 641 9 q 600 -12 533 -12 l 533 -12 q 457 -12 407 21 q 356 54 331 110 q 306 166 306 235 l 306 235 q 306 291 323 342 q 340 393 376 437 q 411 481 468 515 l 468 515 q 473 518 478 521 q 483 524 488 527 l 488 527 q 524 545 568 556 q 612 566 669 566 l 669 566 q 737 566 782 549 q 827 532 858 505 q 888 477 910 444 l 910 444 l 936 247 l 936 0 l 849 0 l 849 281 q 849 355 837 393 q 825 431 800 454 l 800 454 q 778 474 746 487 q 714 499 657 499 l 657 499 q 630 499 606 496 q 581 492 561 486 l 561 486 q 514 472 481 444 q 448 416 428 380 q 408 344 399 308 q 390 271 390 239 l 390 239 q 390 151 427 103 q 464 55 534 55 l 534 55 q 586 55 612 76 q 637 97 637 138 l 637 138 q 637 175 609 197 q 580 218 519 218 l 519 218 l 500 218 l 500 288 l 514 288 q 576 288 601 310 q 626 332 626 369 l 626 369 q 626 416 594 445 q 561 473 497 484 l 497 484 q 458 494 428 496 q 398 497 374 497 l 374 497 q 291 497 237 468 q 182 438 155 388 q 128 337 128 273 l 128 273 q 128 221 143 180 q 158 139 186 108 q 213 77 250 54 l 250 54 l 200 -9 q 157 16 121 56 q 84 95 62 151 q 39 206 39 277 l 39 277 q 39 339 59 392 q 79 444 120 483 q 161 522 223 544 q 284 566 367 566 z m 1243 -12 l 1243 -12 q 1179 -12 1136 17 q 1093 46 1072 94 q 1050 141 1050 196 l 1050 196 q 1050 291 1101 348 q 1152 404 1238 404 l 1238 404 q 1294 404 1336 375 q 1377 346 1401 301 q 1425 256 1427 206 l 1427 206 l 1402 209 q 1395 240 1376 269 q 1356 297 1326 316 q 1295 334 1255 334 l 1255 334 q 1192 334 1163 297 q 1134 259 1134 198 l 1134 198 q 1134 157 1146 125 q 1157 93 1181 76 q 1205 58 1244 58 l 1244 58 q 1285 58 1314 77 q 1342 96 1358 138 q 1373 180 1373 248 l 1373 248 q 1373 259 1372 272 q 1370 284 1368 298 l 1368 298 q 1367 306 1366 316 q 1365 326 1363 335 l 1363 335 q 1355 373 1328 410 q 1300 446 1251 470 q 1202 494 1127 494 l 1127 494 q 1084 494 1050 484 q 1015 474 989 451 l 989 451 q 973 436 961 416 q 949 395 943 365 q 936 335 936 289 l 936 289 l 936 204 l 884 454 q 909 486 941 512 q 973 537 1018 552 q 1063 566 1127 566 l 1127 566 q 1209 566 1271 542 q 1332 518 1374 475 q 1415 431 1436 372 q 1456 313 1456 242 l 1456 242 q 1456 153 1428 97 q 1400 40 1352 14 q 1304 -12 1243 -12 z"},"ആ":{"ha":1647,"x_min":39,"x_max":1619,"o":"m 367 566 l 367 566 q 411 566 459 558 q 506 550 546 533 l 546 533 q 551 531 558 526 q 565 520 570 518 l 570 518 q 625 504 655 480 q 685 456 698 428 q 710 399 710 368 l 710 368 q 710 344 702 323 q 694 302 675 285 q 655 268 622 253 l 622 253 l 626 256 q 670 242 696 211 q 721 180 721 136 l 721 136 q 721 97 702 63 q 682 29 641 9 q 600 -12 533 -12 l 533 -12 q 457 -12 407 21 q 356 54 331 110 q 306 166 306 235 l 306 235 q 306 291 323 342 q 340 393 376 437 q 411 481 468 515 l 468 515 q 473 518 478 521 q 483 524 488 527 l 488 527 q 524 545 568 556 q 612 566 669 566 l 669 566 q 737 566 782 549 q 827 532 858 505 q 888 477 910 444 l 910 444 l 936 247 l 936 0 l 849 0 l 849 281 q 849 355 837 393 q 825 431 800 454 l 800 454 q 778 474 746 487 q 714 499 657 499 l 657 499 q 630 499 606 496 q 581 492 561 486 l 561 486 q 514 472 481 444 q 448 416 428 380 q 408 344 399 308 q 390 271 390 239 l 390 239 q 390 151 427 103 q 464 55 534 55 l 534 55 q 586 55 612 76 q 637 97 637 138 l 637 138 q 637 175 609 197 q 580 218 519 218 l 519 218 l 500 218 l 500 288 l 514 288 q 576 288 601 310 q 626 332 626 369 l 626 369 q 626 416 594 445 q 561 473 497 484 l 497 484 q 458 494 428 496 q 398 497 374 497 l 374 497 q 291 497 237 468 q 182 438 155 388 q 128 337 128 273 l 128 273 q 128 221 143 180 q 158 139 186 108 q 213 77 250 54 l 250 54 l 200 -9 q 157 16 121 56 q 84 95 62 151 q 39 206 39 277 l 39 277 q 39 339 59 392 q 79 444 120 483 q 161 522 223 544 q 284 566 367 566 z m 1117 566 l 1117 566 q 1203 566 1266 537 q 1329 507 1369 454 q 1409 401 1425 329 l 1425 329 q 1431 304 1434 278 q 1436 252 1436 224 l 1436 224 q 1436 143 1410 91 q 1383 38 1336 13 q 1288 -12 1223 -12 l 1223 -12 q 1158 -12 1117 15 q 1075 42 1056 85 q 1036 127 1036 171 l 1036 171 q 1036 269 1106 326 q 1175 382 1304 382 l 1304 382 q 1312 382 1323 382 q 1333 381 1345 379 l 1345 379 l 1375 377 q 1451 365 1506 326 q 1560 286 1590 226 q 1619 165 1619 91 l 1619 91 q 1619 23 1599 -31 q 1578 -85 1538 -123 q 1498 -161 1440 -181 q 1381 -201 1306 -201 l 1306 -201 q 1254 -201 1211 -192 q 1168 -183 1138 -172 l 1138 -172 l 1166 -102 q 1194 -114 1230 -121 q 1265 -128 1308 -128 l 1308 -128 q 1370 -128 1413 -111 q 1455 -95 1482 -65 q 1509 -35 1521 5 q 1533 45 1533 92 l 1533 92 q 1533 144 1520 183 q 1506 222 1479 250 q 1452 278 1412 296 l 1412 296 l 1374 302 q 1356 308 1337 311 q 1318 313 1301 313 l 1301 313 q 1244 313 1204 298 q 1164 282 1143 251 q 1122 220 1122 171 l 1122 171 q 1122 144 1132 118 q 1142 92 1166 75 q 1189 58 1227 58 l 1227 58 q 1289 58 1321 100 q 1353 142 1353 225 l 1353 225 q 1353 252 1350 280 q 1347 307 1340 332 l 1340 332 l 1335 354 q 1321 394 1294 426 q 1267 457 1224 476 q 1181 494 1118 494 l 1118 494 q 1083 494 1049 484 q 1014 474 988 451 l 988 451 q 972 436 961 416 q 949 395 943 365 q 936 334 936 288 l 936 288 l 936 204 l 880 450 q 907 487 942 513 q 976 539 1020 553 q 1064 566 1117 566 z"},"ഇ":{"ha":986,"x_min":40,"x_max":947,"o":"m 331 566 l 331 566 q 392 566 434 554 q 476 541 505 519 q 533 496 552 466 l 552 466 l 534 470 q 568 524 611 545 q 653 566 711 566 l 711 566 q 772 566 817 544 q 861 522 890 485 q 919 447 933 400 q 947 353 947 304 l 947 304 q 947 217 921 157 q 895 97 847 61 l 847 61 q 819 40 784 27 q 749 13 701 7 q 652 0 584 0 l 584 0 l 263 0 q 220 0 199 -3 q 178 -6 166 -13 l 166 -13 q 150 -20 143 -33 q 136 -46 136 -62 l 136 -62 q 136 -77 141 -89 q 146 -102 159 -110 l 159 -110 q 172 -119 195 -124 q 217 -129 259 -129 l 259 -129 l 925 -129 l 925 -201 l 255 -201 q 203 -201 167 -193 q 131 -185 106 -170 l 106 -170 q 78 -153 64 -127 q 50 -101 50 -68 l 50 -68 q 50 -33 63 -5 q 75 22 103 40 l 103 40 q 117 50 135 57 q 153 63 178 67 q 203 70 238 70 l 238 70 l 572 70 q 648 70 694 79 q 739 87 767 103 q 794 119 813 141 l 813 141 q 840 173 850 214 q 859 255 859 301 l 859 301 q 859 350 843 394 q 827 438 794 466 q 761 494 709 494 l 709 494 q 676 494 654 485 q 631 475 615 455 l 615 455 q 598 433 591 400 q 584 367 584 300 l 584 300 l 584 122 l 498 122 l 498 309 q 498 372 487 405 q 475 437 453 458 l 453 458 q 434 476 405 486 q 376 496 329 496 l 329 496 q 285 496 251 486 q 217 476 192 459 q 167 441 150 417 q 133 393 122 365 l 122 365 q 121 361 123 358 q 124 354 123 351 l 123 351 q 120 340 119 330 q 117 319 117 308 l 117 308 q 117 247 140 215 q 162 183 209 183 l 209 183 q 254 183 275 209 q 295 235 295 270 l 295 270 q 295 292 287 310 q 279 328 261 339 q 243 350 214 350 l 214 350 q 168 350 139 324 q 109 298 89 271 l 89 271 l 66 329 q 82 349 106 369 q 129 389 160 403 q 191 416 229 416 l 229 416 q 281 416 314 396 q 347 375 363 342 q 378 309 378 270 l 378 270 q 378 230 360 195 q 342 159 305 137 q 268 115 210 115 l 210 115 q 159 115 121 138 q 82 161 61 205 q 40 248 40 311 l 40 311 q 40 381 74 439 q 108 497 173 532 q 238 566 331 566 z"},"ഈ":{"ha":1745,"x_min":40,"x_max":1706,"o":"m 331 566 l 331 566 q 392 566 434 554 q 476 541 505 519 q 533 496 552 466 l 552 466 l 534 470 q 568 524 611 545 q 653 566 711 566 l 711 566 q 772 566 817 544 q 861 522 890 485 q 919 447 933 400 q 947 353 947 304 l 947 304 q 947 217 921 157 q 895 97 847 61 l 847 61 q 819 40 784 27 q 749 13 701 7 q 652 0 584 0 l 584 0 l 263 0 q 220 0 199 -3 q 178 -6 166 -13 l 166 -13 q 150 -20 143 -33 q 136 -46 136 -62 l 136 -62 q 136 -77 141 -89 q 146 -102 159 -110 l 159 -110 q 172 -119 195 -124 q 217 -129 259 -129 l 259 -129 l 925 -129 l 925 -201 l 255 -201 q 203 -201 167 -193 q 131 -185 106 -170 l 106 -170 q 78 -153 64 -127 q 50 -101 50 -68 l 50 -68 q 50 -33 63 -5 q 75 22 103 40 l 103 40 q 117 50 135 57 q 153 63 178 67 q 203 70 238 70 l 238 70 l 572 70 q 648 70 694 79 q 739 87 767 103 q 794 119 813 141 l 813 141 q 840 173 850 214 q 859 255 859 301 l 859 301 q 859 350 843 394 q 827 438 794 466 q 761 494 709 494 l 709 494 q 676 494 654 485 q 631 475 615 455 l 615 455 q 598 433 591 400 q 584 367 584 300 l 584 300 l 584 122 l 498 122 l 498 309 q 498 372 487 405 q 475 437 453 458 l 453 458 q 434 476 405 486 q 376 496 329 496 l 329 496 q 285 496 251 486 q 217 476 192 459 q 167 441 150 417 q 133 393 122 365 l 122 365 q 121 361 123 358 q 124 354 123 351 l 123 351 q 120 340 119 330 q 117 319 117 308 l 117 308 q 117 247 140 215 q 162 183 209 183 l 209 183 q 254 183 275 209 q 295 235 295 270 l 295 270 q 295 292 287 310 q 279 328 261 339 q 243 350 214 350 l 214 350 q 168 350 139 324 q 109 298 89 271 l 89 271 l 66 329 q 82 349 106 369 q 129 389 160 403 q 191 416 229 416 l 229 416 q 281 416 314 396 q 347 375 363 342 q 378 309 378 270 l 378 270 q 378 230 360 195 q 342 159 305 137 q 268 115 210 115 l 210 115 q 159 115 121 138 q 82 161 61 205 q 40 248 40 311 l 40 311 q 40 381 74 439 q 108 497 173 532 q 238 566 331 566 z m 1501 566 l 1501 566 q 1566 566 1612 534 q 1657 501 1682 442 q 1706 383 1706 305 l 1706 305 q 1706 204 1675 133 q 1643 62 1582 25 q 1521 -12 1433 -12 l 1433 -12 q 1361 -12 1311 2 q 1260 15 1210 40 l 1210 40 l 1253 108 q 1291 86 1331 73 q 1371 60 1428 60 l 1428 60 q 1501 60 1543 93 q 1584 125 1601 181 q 1618 236 1618 305 l 1618 305 q 1618 404 1586 449 q 1553 494 1499 494 l 1499 494 q 1468 494 1447 483 q 1426 471 1414 450 l 1414 450 q 1404 433 1402 409 q 1399 384 1399 340 l 1399 340 l 1399 258 l 1313 258 l 1313 333 q 1313 374 1309 404 q 1305 434 1294 451 l 1294 451 q 1281 474 1261 484 q 1240 494 1214 494 l 1214 494 q 1161 494 1135 460 q 1108 425 1108 372 l 1108 372 q 1108 339 1112 316 q 1116 292 1123 271 l 1123 271 l 1042 254 q 1032 282 1027 316 q 1022 350 1022 378 l 1022 378 q 1022 429 1043 472 q 1063 515 1106 541 q 1148 566 1212 566 l 1212 566 q 1265 566 1301 544 q 1336 521 1360 480 l 1360 480 l 1347 481 q 1376 526 1414 546 q 1451 566 1501 566 z"},"ഉ":{"ha":692,"x_min":40,"x_max":653,"o":"m 347 566 l 347 566 q 432 566 491 542 q 549 518 585 478 q 621 438 637 390 q 653 341 653 291 l 653 291 q 653 219 633 167 q 613 114 573 79 l 573 79 q 540 50 498 33 q 455 15 398 8 q 341 0 263 0 l 263 0 l 261 0 q 220 0 199 -3 q 178 -6 166 -13 l 166 -13 q 150 -20 143 -33 q 136 -46 136 -62 l 136 -62 q 136 -77 141 -89 q 146 -102 159 -110 l 159 -110 q 172 -119 195 -124 q 217 -129 259 -129 l 259 -129 l 633 -129 l 633 -201 l 255 -201 q 203 -201 167 -193 q 131 -185 106 -170 l 106 -170 q 78 -153 64 -127 q 50 -101 50 -68 l 50 -68 q 50 -33 63 -5 q 75 22 103 40 l 103 40 q 124 54 155 62 q 186 70 238 70 l 238 70 l 249 70 q 330 70 383 78 q 435 85 468 102 q 501 118 523 143 l 523 143 q 546 169 556 206 q 565 243 565 290 l 565 290 q 565 329 553 366 q 541 403 515 432 q 488 461 445 479 q 402 496 339 496 l 339 496 q 291 496 255 486 q 219 476 193 459 q 167 441 150 417 q 133 393 122 365 l 122 365 q 121 361 123 358 q 124 354 123 351 l 123 351 q 120 340 119 330 q 117 319 117 308 l 117 308 q 117 247 140 215 q 162 183 209 183 l 209 183 q 254 183 275 209 q 295 235 295 270 l 295 270 q 295 292 287 310 q 279 328 261 339 q 243 350 214 350 l 214 350 q 168 350 139 324 q 109 298 89 271 l 89 271 l 66 329 q 82 349 106 369 q 129 389 160 403 q 191 416 229 416 l 229 416 q 281 416 314 396 q 347 375 363 342 q 378 309 378 270 l 378 270 q 378 230 360 195 q 342 159 305 137 q 268 115 210 115 l 210 115 q 159 115 121 138 q 82 161 61 205 q 40 248 40 311 l 40 311 q 40 364 60 410 q 79 456 118 491 q 157 526 215 546 q 272 566 347 566 z"},"ഊ":{"ha":1451,"x_min":40,"x_max":1412,"o":"m 347 566 l 347 566 q 432 566 491 542 q 549 518 585 478 q 621 438 637 390 q 653 341 653 291 l 653 291 q 653 219 633 167 q 613 114 573 79 l 573 79 q 540 50 498 33 q 455 15 398 8 q 341 0 263 0 l 263 0 l 261 0 q 220 0 199 -3 q 178 -6 166 -13 l 166 -13 q 150 -20 143 -33 q 136 -46 136 -62 l 136 -62 q 136 -77 141 -89 q 146 -102 159 -110 l 159 -110 q 172 -119 195 -124 q 217 -129 259 -129 l 259 -129 l 633 -129 l 633 -201 l 255 -201 q 203 -201 167 -193 q 131 -185 106 -170 l 106 -170 q 78 -153 64 -127 q 50 -101 50 -68 l 50 -68 q 50 -33 63 -5 q 75 22 103 40 l 103 40 q 124 54 155 62 q 186 70 238 70 l 238 70 l 249 70 q 330 70 383 78 q 435 85 468 102 q 501 118 523 143 l 523 143 q 546 169 556 206 q 565 243 565 290 l 565 290 q 565 329 553 366 q 541 403 515 432 q 488 461 445 479 q 402 496 339 496 l 339 496 q 291 496 255 486 q 219 476 193 459 q 167 441 150 417 q 133 393 122 365 l 122 365 q 121 361 123 358 q 124 354 123 351 l 123 351 q 120 340 119 330 q 117 319 117 308 l 117 308 q 117 247 140 215 q 162 183 209 183 l 209 183 q 254 183 275 209 q 295 235 295 270 l 295 270 q 295 292 287 310 q 279 328 261 339 q 243 350 214 350 l 214 350 q 168 350 139 324 q 109 298 89 271 l 89 271 l 66 329 q 82 349 106 369 q 129 389 160 403 q 191 416 229 416 l 229 416 q 281 416 314 396 q 347 375 363 342 q 378 309 378 270 l 378 270 q 378 230 360 195 q 342 159 305 137 q 268 115 210 115 l 210 115 q 159 115 121 138 q 82 161 61 205 q 40 248 40 311 l 40 311 q 40 364 60 410 q 79 456 118 491 q 157 526 215 546 q 272 566 347 566 z m 1207 566 l 1207 566 q 1272 566 1318 534 q 1363 501 1388 442 q 1412 383 1412 305 l 1412 305 q 1412 204 1381 133 q 1349 62 1288 25 q 1227 -12 1139 -12 l 1139 -12 q 1067 -12 1017 2 q 966 15 916 40 l 916 40 l 959 108 q 997 86 1037 73 q 1077 60 1134 60 l 1134 60 q 1207 60 1249 93 q 1290 125 1307 181 q 1324 236 1324 305 l 1324 305 q 1324 404 1292 449 q 1259 494 1205 494 l 1205 494 q 1174 494 1153 483 q 1132 471 1120 450 l 1120 450 q 1110 433 1108 409 q 1105 384 1105 340 l 1105 340 l 1105 258 l 1019 258 l 1019 333 q 1019 374 1015 404 q 1011 434 1000 451 l 1000 451 q 987 474 967 484 q 946 494 920 494 l 920 494 q 867 494 841 460 q 814 425 814 372 l 814 372 q 814 339 818 316 q 822 292 829 271 l 829 271 l 748 254 q 738 282 733 316 q 728 350 728 378 l 728 378 q 728 429 749 472 q 769 515 812 541 q 854 566 918 566 l 918 566 q 971 566 1007 544 q 1042 521 1066 480 l 1066 480 l 1053 481 q 1082 526 1120 546 q 1157 566 1207 566 z"},"ഋ":{"ha":871,"x_min":37,"x_max":834,"o":"m 656 566 l 656 566 q 737 566 786 512 q 834 457 834 362 l 834 362 q 834 293 810 242 q 786 190 739 152 l 739 152 q 699 119 636 105 q 573 91 462 91 l 462 91 l 404 91 q 335 91 289 95 q 242 99 211 109 q 180 119 154 135 l 154 135 q 97 173 67 231 q 37 288 37 359 l 37 359 q 37 422 60 469 q 83 515 126 541 q 168 566 228 566 l 228 566 q 285 566 322 543 q 359 520 377 483 q 395 446 395 403 l 395 403 q 395 362 378 328 q 360 293 326 272 q 291 251 238 251 l 238 251 q 192 251 160 265 q 127 278 105 299 q 82 319 65 340 l 65 340 l 88 400 q 103 382 120 364 q 136 345 161 333 q 186 320 225 320 l 225 320 q 273 320 294 345 q 314 370 314 405 l 314 405 q 314 443 292 470 q 270 496 224 496 l 224 496 q 187 496 163 480 q 138 463 127 433 q 115 403 115 362 l 115 362 q 115 350 116 339 q 117 327 120 315 l 120 315 l 115 301 q 132 257 157 229 q 182 200 218 184 q 253 168 303 162 q 353 156 420 156 l 420 156 l 444 156 q 518 156 571 163 q 623 170 659 186 q 694 202 717 230 q 740 258 756 301 l 756 301 l 751 315 q 754 327 755 338 q 756 348 756 353 l 756 353 q 756 402 744 434 q 732 465 709 481 q 686 496 652 496 l 652 496 q 603 496 580 470 q 557 443 557 405 l 557 405 q 557 370 578 345 q 599 320 646 320 l 646 320 q 684 320 709 332 q 734 343 752 361 q 769 378 783 394 l 783 394 l 806 338 q 790 318 767 298 q 744 278 712 265 q 679 251 633 251 l 633 251 q 579 251 544 273 q 509 294 493 330 q 476 365 476 405 l 476 405 q 476 447 495 484 q 514 521 554 544 q 594 566 656 566 z m 439 -213 l 439 -213 q 316 -213 234 -194 q 152 -176 111 -134 q 70 -93 70 -25 l 70 -25 q 70 19 96 50 q 121 80 164 99 q 207 117 262 126 q 316 134 373 134 l 373 134 l 493 134 q 553 134 609 126 q 664 117 707 99 q 750 80 776 49 q 801 17 801 -28 l 801 -28 q 801 -87 765 -128 q 729 -170 650 -191 q 570 -213 439 -213 z m 438 -141 l 438 -141 q 538 -141 599 -128 q 659 -116 687 -90 q 714 -65 714 -28 l 714 -28 q 714 8 692 30 q 670 52 632 64 q 594 75 544 80 q 494 84 437 84 l 437 84 l 429 84 q 353 84 292 75 q 230 66 194 42 q 157 18 157 -27 l 157 -27 q 157 -67 185 -92 q 212 -117 274 -129 q 336 -141 438 -141 z"},"ഌ":{"ha":1167,"x_min":42,"x_max":1128,"o":"m 358 566 l 358 566 q 442 566 493 539 q 544 511 583 460 l 583 460 l 597 394 l 608 229 l 608 0 l 522 0 l 522 306 q 522 365 512 400 q 501 435 478 456 l 478 456 q 457 475 430 485 q 402 494 357 494 l 357 494 q 285 494 233 461 q 180 427 152 370 q 123 312 123 239 l 123 239 l 123 228 q 123 172 138 134 q 153 96 180 77 q 206 58 242 58 l 242 58 q 267 58 286 70 q 305 81 316 103 q 327 125 327 157 l 327 157 q 327 207 301 233 q 275 258 233 258 l 233 258 q 194 258 159 238 q 124 218 95 186 l 95 186 l 80 248 q 109 284 154 306 q 199 328 248 328 l 248 328 q 296 328 333 309 q 369 290 390 254 q 410 217 410 165 l 410 165 q 410 110 389 70 q 368 30 330 9 q 292 -12 240 -12 l 240 -12 q 188 -12 143 14 q 97 40 70 96 q 42 152 42 241 l 42 241 q 42 347 85 419 q 127 491 199 529 q 270 566 358 566 z m 915 -12 l 915 -12 q 851 -12 808 17 q 765 46 744 94 q 722 141 722 196 l 722 196 q 722 291 773 348 q 824 404 910 404 l 910 404 q 966 404 1008 375 q 1049 346 1073 301 q 1097 256 1099 206 l 1099 206 l 1074 209 q 1067 240 1048 269 q 1028 297 998 316 q 967 334 927 334 l 927 334 q 864 334 835 297 q 806 259 806 198 l 806 198 q 806 157 818 125 q 829 93 853 76 q 877 58 916 58 l 916 58 q 957 58 986 77 q 1014 96 1030 138 q 1045 180 1045 248 l 1045 248 q 1045 259 1044 272 q 1042 284 1040 298 l 1040 298 q 1039 306 1038 316 q 1037 326 1035 335 l 1035 335 q 1027 373 1000 410 q 972 446 923 470 q 874 494 799 494 l 799 494 q 756 494 722 484 q 687 474 661 451 l 661 451 q 645 436 633 416 q 621 395 615 365 q 608 335 608 289 l 608 289 l 608 204 l 556 454 q 581 486 613 512 q 645 537 690 552 q 735 566 799 566 l 799 566 q 881 566 943 542 q 1004 518 1046 475 q 1087 431 1108 372 q 1128 313 1128 242 l 1128 242 q 1128 153 1100 97 q 1072 40 1024 14 q 976 -12 915 -12 z"},"എ":{"ha":1273,"x_min":32,"x_max":1229,"o":"m 229 346 l 229 346 q 297 346 341 321 q 384 295 406 256 q 427 216 427 173 l 427 173 q 427 133 414 102 q 401 71 382 57 l 382 57 l 357 70 l 864 70 l 864 0 l 328 0 l 299 52 q 319 72 331 97 q 343 121 343 158 l 343 158 q 343 212 314 244 q 285 276 229 276 l 229 276 q 194 276 169 261 q 143 246 130 221 q 116 195 116 164 l 116 164 q 116 130 130 102 q 144 73 175 51 l 175 51 l 129 -7 q 86 23 59 66 q 32 109 32 166 l 32 166 q 32 219 57 260 q 81 300 126 323 q 170 346 229 346 z m 903 566 l 903 566 q 980 566 1040 541 q 1100 516 1143 467 q 1185 417 1207 345 q 1229 272 1229 176 l 1229 176 q 1229 109 1214 37 q 1198 -35 1165 -103 q 1131 -172 1077 -228 l 1077 -228 l 1014 -178 q 1059 -130 1087 -73 q 1115 -16 1128 48 q 1141 111 1141 178 l 1141 178 q 1141 238 1129 295 q 1117 351 1089 396 q 1061 441 1015 468 q 969 494 900 494 l 900 494 q 819 494 766 450 q 712 406 686 326 q 659 245 659 137 l 659 137 q 659 114 660 93 q 661 71 663 51 l 663 51 q 663 46 664 42 q 664 37 665 32 l 665 32 q 670 -37 690 -79 q 709 -121 737 -140 q 764 -159 793 -159 l 793 -159 q 823 -159 836 -139 l 836 -139 q 842 -130 845 -115 q 848 -100 848 -75 l 848 -75 l 848 406 l 935 406 l 935 -56 q 935 -105 927 -135 q 918 -166 900 -187 l 900 -187 q 883 -206 858 -217 q 832 -228 796 -228 l 796 -228 q 731 -228 680 -187 q 629 -147 600 -64 q 571 19 571 144 l 571 144 q 571 239 593 317 q 614 395 657 451 q 699 506 761 536 q 822 566 903 566 z"},"ഏ":{"ha":1272,"x_min":32,"x_max":1239,"o":"m 229 346 l 229 346 q 297 346 341 321 q 384 295 406 256 q 427 216 427 173 l 427 173 q 427 133 414 102 q 401 71 382 57 l 382 57 l 357 70 l 864 70 l 864 0 l 328 0 l 299 52 q 319 72 331 97 q 343 121 343 158 l 343 158 q 343 212 314 244 q 285 276 229 276 l 229 276 q 194 276 169 261 q 143 245 130 220 q 116 195 116 164 l 116 164 q 116 130 130 102 q 144 74 175 51 l 175 51 l 129 -7 q 86 23 59 66 q 32 109 32 166 l 32 166 q 32 219 57 260 q 81 300 126 323 q 170 346 229 346 z m 945 566 l 945 566 q 1022 566 1077 547 q 1131 527 1165 494 q 1198 460 1214 419 q 1229 377 1229 332 l 1229 332 q 1229 285 1213 249 q 1196 212 1168 185 q 1140 158 1104 141 l 1104 141 l 1107 146 q 1167 125 1203 81 q 1239 37 1239 -36 l 1239 -36 q 1239 -101 1214 -143 q 1189 -186 1145 -207 q 1101 -228 1042 -228 l 1042 -228 q 1027 -228 1003 -226 q 979 -224 965 -220 l 965 -220 l 982 -151 q 995 -154 1011 -155 q 1027 -157 1037 -157 l 1037 -157 q 1074 -157 1100 -142 q 1125 -128 1138 -100 q 1151 -73 1151 -34 l 1151 -34 q 1151 25 1115 65 q 1078 104 1002 104 l 1002 104 l 1002 173 q 1047 183 1078 202 q 1109 221 1125 253 q 1141 285 1141 332 l 1141 332 q 1141 373 1122 410 q 1103 447 1060 471 q 1017 494 944 494 l 944 494 q 842 494 779 449 q 716 403 688 323 q 659 242 659 137 l 659 137 q 659 115 660 93 q 661 70 663 51 l 663 51 q 663 46 664 42 q 664 37 665 32 l 665 32 q 670 -37 690 -79 q 709 -121 737 -140 q 764 -159 793 -159 l 793 -159 q 823 -159 836 -139 l 836 -139 q 842 -130 845 -115 q 848 -100 848 -75 l 848 -75 l 848 406 l 935 406 l 935 -56 q 935 -105 927 -135 q 918 -166 900 -187 l 900 -187 q 883 -206 858 -217 q 832 -228 796 -228 l 796 -228 q 731 -228 680 -187 q 629 -147 600 -64 q 571 19 571 144 l 571 144 q 571 237 594 314 q 617 391 664 448 q 710 504 781 535 q 851 566 945 566 z"},"ഐ":{"ha":1988,"x_min":37,"x_max":1944,"o":"m 235 -12 l 235 -12 q 183 -12 138 14 q 92 40 65 95 q 37 149 37 232 l 37 232 q 37 310 63 372 q 88 434 134 477 q 179 520 240 543 q 301 566 372 566 l 372 566 q 450 566 507 544 q 564 522 601 483 q 638 444 656 392 q 674 340 674 281 l 674 281 q 674 211 653 157 q 632 102 596 61 q 560 20 513 -9 l 513 -9 l 464 54 q 497 74 525 104 q 552 134 569 176 q 585 218 585 271 l 585 271 q 585 339 560 389 q 535 439 487 467 q 438 494 368 494 l 368 494 q 296 494 240 460 q 183 425 151 365 q 118 305 118 228 l 118 228 q 118 171 133 133 q 148 95 175 77 q 202 58 238 58 l 238 58 q 263 58 282 70 q 301 81 312 104 q 323 126 323 158 l 323 158 q 323 206 297 232 q 270 258 229 258 l 229 258 q 190 258 155 239 q 120 219 91 187 l 91 187 l 75 248 q 105 284 150 306 q 194 328 243 328 l 243 328 q 292 328 329 309 q 365 290 386 254 q 406 217 406 165 l 406 165 q 406 110 385 70 q 364 30 326 9 q 287 -12 235 -12 z m 944 346 l 944 346 q 1012 346 1056 321 q 1099 295 1121 256 q 1142 216 1142 173 l 1142 173 q 1142 133 1129 102 q 1116 71 1097 57 l 1097 57 l 1072 70 l 1579 70 l 1579 0 l 1043 0 l 1014 52 q 1034 72 1046 97 q 1058 121 1058 158 l 1058 158 q 1058 212 1029 244 q 1000 276 944 276 l 944 276 q 909 276 884 261 q 858 246 845 221 q 831 195 831 164 l 831 164 q 831 130 845 102 q 859 73 890 51 l 890 51 l 844 -7 q 801 23 774 66 q 747 109 747 166 l 747 166 q 747 219 772 260 q 796 300 841 323 q 885 346 944 346 z m 1618 566 l 1618 566 q 1695 566 1755 541 q 1815 516 1858 467 q 1900 417 1922 345 q 1944 272 1944 176 l 1944 176 q 1944 109 1929 37 q 1913 -35 1880 -103 q 1846 -172 1792 -228 l 1792 -228 l 1729 -178 q 1774 -130 1802 -73 q 1830 -16 1843 48 q 1856 111 1856 178 l 1856 178 q 1856 238 1844 295 q 1832 351 1804 396 q 1776 441 1730 468 q 1684 494 1615 494 l 1615 494 q 1534 494 1481 450 q 1427 406 1401 326 q 1374 245 1374 137 l 1374 137 q 1374 114 1375 93 q 1376 71 1378 51 l 1378 51 q 1378 46 1379 42 q 1379 37 1380 32 l 1380 32 q 1385 -37 1405 -79 q 1424 -121 1452 -140 q 1479 -159 1508 -159 l 1508 -159 q 1538 -159 1551 -139 l 1551 -139 q 1557 -130 1560 -115 q 1563 -100 1563 -75 l 1563 -75 l 1563 406 l 1650 406 l 1650 -56 q 1650 -105 1642 -135 q 1633 -166 1615 -187 l 1615 -187 q 1598 -206 1573 -217 q 1547 -228 1511 -228 l 1511 -228 q 1446 -228 1395 -187 q 1344 -147 1315 -64 q 1286 19 1286 144 l 1286 144 q 1286 239 1308 317 q 1329 395 1372 451 q 1414 506 1476 536 q 1537 566 1618 566 z"},"ഒ":{"ha":757,"x_min":39,"x_max":718,"o":"m 448 566 l 448 566 q 544 566 601 545 q 657 524 682 488 q 707 451 707 404 l 707 404 q 707 376 697 352 q 686 327 664 308 q 641 288 605 274 l 605 274 l 601 280 q 658 264 688 227 q 718 190 718 140 l 718 140 q 718 69 671 29 q 623 -11 539 -11 l 539 -11 q 511 -11 486 -7 q 460 -4 441 0 l 441 0 l 459 69 q 477 65 494 62 q 510 59 529 59 l 529 59 q 579 59 605 79 q 631 98 631 144 l 631 144 q 631 163 624 180 q 617 197 601 210 l 601 210 q 585 224 562 232 q 538 240 490 240 l 490 240 l 468 240 l 468 310 l 492 310 q 523 310 552 318 q 580 325 597 341 l 597 341 q 609 352 615 366 q 620 380 620 399 l 620 399 q 620 441 580 468 q 540 494 445 494 l 445 494 q 370 494 310 474 q 249 454 207 419 q 165 384 143 337 q 120 289 120 233 l 120 233 l 120 225 q 120 171 135 134 q 150 96 177 77 q 203 58 239 58 l 239 58 q 265 58 284 70 q 303 81 314 104 q 325 126 325 157 l 325 157 q 325 206 299 232 q 272 258 231 258 l 231 258 q 197 258 166 243 q 135 227 109 201 l 109 201 l 113 283 q 141 303 176 316 q 210 328 245 328 l 245 328 q 294 328 331 309 q 367 290 388 254 q 408 217 408 165 l 408 165 q 408 110 387 70 q 366 30 328 9 q 289 -12 237 -12 l 237 -12 q 185 -12 140 14 q 94 40 67 94 q 39 147 39 229 l 39 229 q 39 304 67 366 q 94 428 147 473 q 200 518 276 542 q 352 566 448 566 z"},"ഓ":{"ha":1259,"x_min":39,"x_max":1217,"o":"m 448 566 l 448 566 q 544 566 601 545 q 657 524 682 488 q 707 451 707 404 l 707 404 q 707 376 697 352 q 686 327 664 308 q 641 288 605 274 l 605 274 l 601 280 q 658 264 688 227 q 718 190 718 140 l 718 140 q 718 69 671 29 q 623 -11 539 -11 l 539 -11 q 511 -11 486 -7 q 460 -4 441 0 l 441 0 l 459 69 q 477 65 494 62 q 510 59 529 59 l 529 59 q 579 59 605 79 q 631 98 631 144 l 631 144 q 631 163 624 180 q 617 197 601 210 l 601 210 q 585 224 562 232 q 538 240 490 240 l 490 240 l 468 240 l 468 310 l 492 310 q 523 310 552 318 q 580 325 597 341 l 597 341 q 609 352 615 366 q 620 380 620 399 l 620 399 q 620 441 580 468 q 540 494 445 494 l 445 494 q 370 494 310 474 q 249 454 207 419 q 165 384 143 337 q 120 289 120 233 l 120 233 l 120 225 q 120 171 135 134 q 150 96 177 77 q 203 58 239 58 l 239 58 q 265 58 284 70 q 303 81 314 104 q 325 126 325 157 l 325 157 q 325 206 299 232 q 272 258 231 258 l 231 258 q 197 258 166 243 q 135 227 109 201 l 109 201 l 113 283 q 141 303 176 316 q 210 328 245 328 l 245 328 q 294 328 331 309 q 367 290 388 254 q 408 217 408 165 l 408 165 q 408 110 387 70 q 366 30 328 9 q 289 -12 237 -12 l 237 -12 q 185 -12 140 14 q 94 40 67 94 q 39 147 39 229 l 39 229 q 39 304 67 366 q 94 428 147 473 q 200 518 276 542 q 352 566 448 566 z m 1217 279 l 1217 279 q 1217 221 1206 169 q 1194 117 1167 76 q 1140 35 1096 12 q 1051 -12 985 -12 l 985 -12 q 934 -12 897 5 q 859 21 834 48 q 808 75 793 107 q 778 139 771 169 l 771 169 l 858 186 q 865 159 879 129 q 892 99 918 79 q 943 58 984 58 l 984 58 q 1037 58 1069 86 q 1100 114 1115 164 q 1129 213 1129 278 l 1129 278 q 1129 343 1115 392 q 1100 441 1069 469 q 1038 496 989 496 l 989 496 q 950 496 924 476 q 898 455 883 426 q 868 397 861 370 l 861 370 l 775 387 q 784 419 801 451 q 817 482 843 508 q 869 534 907 550 q 944 566 995 566 l 995 566 q 1057 566 1100 543 q 1142 519 1168 479 q 1194 438 1206 387 q 1217 335 1217 279 z"},"ഔ":{"ha":1510,"x_min":39,"x_max":1471,"o":"m 448 566 l 448 566 q 544 566 601 545 q 657 524 682 488 q 707 451 707 404 l 707 404 q 707 376 697 352 q 686 327 664 308 q 641 288 605 274 l 605 274 l 601 280 q 658 264 688 227 q 718 190 718 140 l 718 140 q 718 69 671 29 q 623 -11 539 -11 l 539 -11 q 511 -11 486 -7 q 460 -4 441 0 l 441 0 l 459 69 q 477 65 494 62 q 510 59 529 59 l 529 59 q 579 59 605 79 q 631 98 631 144 l 631 144 q 631 163 624 180 q 617 197 601 210 l 601 210 q 585 224 562 232 q 538 240 490 240 l 490 240 l 468 240 l 468 310 l 492 310 q 523 310 552 318 q 580 325 597 341 l 597 341 q 609 352 615 366 q 620 380 620 399 l 620 399 q 620 441 580 468 q 540 494 445 494 l 445 494 q 370 494 310 474 q 249 454 207 419 q 165 384 143 337 q 120 289 120 233 l 120 233 l 120 225 q 120 171 135 134 q 150 96 177 77 q 203 58 239 58 l 239 58 q 265 58 284 70 q 303 81 314 104 q 325 126 325 157 l 325 157 q 325 206 299 232 q 272 258 231 258 l 231 258 q 197 258 166 243 q 135 227 109 201 l 109 201 l 113 283 q 141 303 176 316 q 210 328 245 328 l 245 328 q 294 328 331 309 q 367 290 388 254 q 408 217 408 165 l 408 165 q 408 110 387 70 q 366 30 328 9 q 289 -12 237 -12 l 237 -12 q 185 -12 140 14 q 94 40 67 94 q 39 147 39 229 l 39 229 q 39 304 67 366 q 94 428 147 473 q 200 518 276 542 q 352 566 448 566 z m 1266 566 l 1266 566 q 1331 566 1377 534 q 1422 501 1447 442 q 1471 383 1471 305 l 1471 305 q 1471 204 1440 133 q 1408 62 1347 25 q 1286 -12 1198 -12 l 1198 -12 q 1126 -12 1076 2 q 1025 15 975 40 l 975 40 l 1018 108 q 1056 86 1096 73 q 1136 60 1193 60 l 1193 60 q 1266 60 1308 93 q 1349 125 1366 181 q 1383 236 1383 305 l 1383 305 q 1383 404 1351 449 q 1318 494 1264 494 l 1264 494 q 1233 494 1212 483 q 1191 471 1179 450 l 1179 450 q 1169 433 1167 409 q 1164 384 1164 340 l 1164 340 l 1164 258 l 1078 258 l 1078 333 q 1078 374 1074 404 q 1070 434 1059 451 l 1059 451 q 1046 474 1026 484 q 1005 494 979 494 l 979 494 q 926 494 900 460 q 873 425 873 372 l 873 372 q 873 339 877 316 q 881 292 888 271 l 888 271 l 807 254 q 797 282 792 316 q 787 350 787 378 l 787 378 q 787 429 808 472 q 828 515 871 541 q 913 566 977 566 l 977 566 q 1030 566 1066 544 q 1101 521 1125 480 l 1125 480 l 1112 481 q 1141 526 1179 546 q 1216 566 1266 566 z"},"ക":{"ha":1038,"x_min":32,"x_max":1006,"o":"m 216 -12 l 216 -12 q 126 -12 79 32 q 32 76 32 152 l 32 152 q 32 199 53 234 q 74 268 109 288 l 109 288 q 133 302 163 311 q 192 320 234 324 q 275 328 333 328 l 333 328 l 716 328 q 802 328 854 318 q 905 308 942 282 l 942 282 q 971 262 989 231 q 1006 199 1006 152 l 1006 152 q 1006 76 961 32 q 916 -12 832 -12 l 832 -12 q 807 -12 781 -9 q 754 -7 731 0 l 731 0 l 750 67 q 764 63 784 61 q 803 58 819 58 l 819 58 q 870 58 895 82 q 920 105 920 151 l 920 151 q 920 180 909 199 q 898 217 880 229 l 880 229 q 852 247 812 253 q 771 258 708 258 l 708 258 l 331 258 q 260 258 223 253 q 185 247 157 229 l 157 229 q 139 218 129 199 q 118 180 118 154 l 118 154 q 118 121 131 100 q 143 78 166 68 q 189 58 219 58 l 219 58 q 251 58 284 69 q 316 79 352 106 l 352 106 l 402 52 q 372 30 343 16 q 314 2 284 -5 q 253 -12 216 -12 z m 523 566 l 523 566 q 603 566 655 529 q 706 491 731 427 q 756 362 756 279 l 756 279 q 756 185 728 120 q 700 55 648 22 q 596 -12 524 -12 l 524 -12 q 470 -12 427 7 q 383 25 352 62 l 352 62 q 321 99 305 154 q 288 208 288 279 l 288 279 q 288 413 351 490 q 414 566 523 566 z m 523 496 l 523 496 q 447 496 411 442 q 374 388 374 278 l 374 278 q 374 204 391 155 q 407 106 440 82 q 473 58 521 58 l 521 58 q 570 58 603 82 q 636 105 653 154 q 670 203 670 278 l 670 278 q 670 353 654 402 q 637 450 604 473 q 571 496 523 496 z"},"ഖ":{"ha":1000,"x_min":39,"x_max":929,"o":"m 374 566 l 374 566 q 452 566 509 544 q 566 522 603 483 q 640 444 658 392 q 676 340 676 281 l 676 281 q 676 232 665 193 q 654 154 636 123 q 617 91 592 64 l 592 64 l 585 0 l 512 0 l 476 54 q 505 80 531 110 q 556 140 572 179 q 587 218 587 271 l 587 271 q 587 339 561 389 q 535 439 487 467 q 438 494 370 494 l 370 494 q 298 494 242 460 q 185 425 153 367 q 120 309 120 237 l 120 237 l 120 225 q 120 171 135 134 q 150 96 177 77 q 203 58 239 58 l 239 58 q 265 58 284 70 q 303 81 314 104 q 325 126 325 158 l 325 158 q 325 206 299 232 q 272 258 231 258 l 231 258 q 197 258 166 243 q 135 227 109 201 l 109 201 l 113 283 q 141 303 176 316 q 210 328 245 328 l 245 328 q 294 328 331 309 q 367 290 388 254 q 408 217 408 165 l 408 165 q 408 110 387 70 q 366 30 328 9 q 289 -12 237 -12 l 237 -12 q 185 -12 140 14 q 94 40 67 95 q 39 149 39 232 l 39 232 q 39 336 84 411 q 128 485 204 526 q 280 566 374 566 z m 843 554 l 929 554 l 929 0 l 546 0 l 558 70 l 843 70 l 843 554 z"},"ഗ":{"ha":897,"x_min":39,"x_max":858,"o":"m 622 566 l 622 566 q 694 566 747 532 q 800 498 829 437 q 858 376 858 293 l 858 293 q 858 227 841 174 q 823 120 789 76 q 754 31 703 -8 l 703 -8 l 649 53 q 685 78 712 111 q 739 144 755 189 q 770 233 770 290 l 770 290 q 770 351 752 397 q 733 443 700 469 q 666 494 620 494 l 620 494 q 581 494 558 481 q 535 467 521 447 l 521 447 q 505 422 499 380 q 492 338 492 252 l 492 252 l 492 243 q 492 196 487 161 q 481 126 470 100 q 458 73 439 51 l 439 51 q 413 21 374 5 q 335 -12 278 -12 l 278 -12 q 205 -12 151 21 q 97 53 68 115 q 39 177 39 263 l 39 263 q 39 331 57 385 q 74 438 109 483 q 144 527 194 566 l 194 566 l 248 504 q 213 480 186 446 q 158 412 143 367 q 127 322 127 265 l 127 265 q 127 203 145 157 q 163 111 197 86 q 230 60 274 60 l 274 60 q 318 60 341 73 q 363 85 377 106 l 377 106 q 394 132 399 177 q 404 221 404 300 l 404 300 l 404 313 q 404 381 417 425 q 429 469 454 499 l 454 499 q 483 532 522 549 q 561 566 622 566 z"},"ഘ":{"ha":1325,"x_min":32,"x_max":1254,"o":"m 229 566 l 229 566 q 297 566 341 541 q 384 515 406 476 q 427 436 427 392 l 427 392 q 427 354 414 324 q 401 293 382 279 l 382 279 l 357 292 l 556 292 l 573 222 l 328 222 l 299 274 q 319 293 331 318 q 343 343 343 379 l 343 379 q 343 433 314 465 q 285 496 229 496 l 229 496 q 193 496 168 481 q 142 466 129 441 q 116 415 116 385 l 116 385 q 116 351 130 323 q 144 295 175 273 l 175 273 l 129 215 q 86 245 59 288 q 32 331 32 387 l 32 387 q 32 440 57 480 q 81 520 126 543 q 170 566 229 566 z m 1168 554 l 1254 554 l 1254 0 l 529 0 l 529 313 q 529 387 546 431 q 562 475 592 504 l 592 504 q 624 535 669 551 q 713 566 771 566 l 771 566 q 831 566 876 551 q 920 536 949 507 l 949 507 q 981 476 996 430 q 1010 383 1010 322 l 1010 322 l 1010 222 l 615 222 l 615 70 l 1168 70 l 1168 554 z m 770 496 l 770 496 q 689 496 652 455 q 615 413 615 321 l 615 321 l 615 292 l 924 292 l 924 320 q 924 415 887 456 q 850 496 770 496 z"},"ങ":{"ha":1065,"x_min":42,"x_max":1026,"o":"m 358 566 l 358 566 q 442 566 493 539 q 544 511 583 460 l 583 460 l 595 386 l 608 229 l 608 0 l 522 0 l 522 306 q 522 365 512 400 q 501 435 478 456 l 478 456 q 457 475 430 485 q 402 494 357 494 l 357 494 q 285 494 233 461 q 180 427 152 370 q 123 312 123 239 l 123 239 l 123 228 q 123 172 138 134 q 153 96 180 77 q 206 58 242 58 l 242 58 q 267 58 286 70 q 305 81 316 103 q 327 125 327 157 l 327 157 q 327 207 301 233 q 275 258 233 258 l 233 258 q 194 258 159 238 q 124 218 95 186 l 95 186 l 80 248 q 109 284 154 306 q 199 328 248 328 l 248 328 q 296 328 333 309 q 369 290 390 254 q 410 217 410 165 l 410 165 q 410 110 389 70 q 368 30 330 9 q 292 -12 240 -12 l 240 -12 q 188 -12 143 14 q 97 40 70 96 q 42 152 42 241 l 42 241 q 42 347 85 419 q 127 491 199 529 q 270 566 358 566 z m 803 566 l 803 566 q 872 566 919 546 q 966 525 991 490 q 1015 455 1015 411 l 1015 411 q 1015 379 1005 354 q 994 328 972 309 q 949 289 913 274 l 913 274 l 909 280 q 967 264 997 227 q 1026 190 1026 140 l 1026 140 q 1026 70 979 30 q 931 -11 847 -11 l 847 -11 q 816 -11 793 -7 q 769 -4 749 0 l 749 0 l 767 69 q 787 65 803 62 q 818 59 837 59 l 837 59 q 887 59 913 79 q 939 98 939 144 l 939 144 q 939 163 932 180 q 925 197 909 210 l 909 210 q 893 224 869 232 q 844 240 791 240 l 791 240 l 766 240 l 766 310 l 791 310 q 829 310 858 317 q 887 324 904 341 l 904 341 q 916 352 922 368 q 928 383 928 403 l 928 403 q 928 448 894 471 q 860 494 803 494 l 803 494 q 755 494 720 480 q 684 465 661 440 l 661 440 q 645 423 633 400 q 621 376 615 339 q 608 302 608 243 l 608 243 l 608 80 l 532 80 l 532 243 l 564 438 q 583 475 617 504 q 651 533 699 550 q 746 566 803 566 z"},"ച":{"ha":933,"x_min":17,"x_max":862,"o":"m 776 554 l 862 554 l 862 0 l 17 0 l 17 70 l 448 70 l 394 58 q 414 72 435 102 q 455 131 455 179 l 455 179 q 455 231 429 263 q 402 295 351 295 l 351 295 q 300 295 274 265 q 247 235 247 185 l 247 185 q 247 172 248 163 q 249 153 250 146 l 250 146 l 167 135 q 165 145 163 162 q 161 178 161 194 l 161 194 q 161 271 214 318 q 266 365 354 365 l 354 365 q 404 365 439 350 q 474 335 496 309 q 518 283 529 251 q 539 219 539 185 l 539 185 q 539 156 532 132 q 524 107 512 88 q 499 68 485 54 l 485 54 l 460 70 l 776 70 l 776 554 z"},"ഛ":{"ha":1349,"x_min":17,"x_max":1310,"o":"m 354 365 l 354 365 q 404 365 439 350 q 474 335 496 309 q 518 283 529 251 q 539 219 539 185 l 539 185 q 539 156 532 132 q 524 107 512 88 q 499 68 485 54 l 485 54 l 460 70 l 775 70 l 790 0 l 17 0 l 17 70 l 448 70 l 394 58 q 414 72 435 102 q 455 131 455 179 l 455 179 q 455 231 429 263 q 402 295 351 295 l 351 295 q 300 295 274 265 q 247 235 247 185 l 247 185 q 247 172 248 163 q 249 153 250 146 l 250 146 l 167 135 q 165 145 163 162 q 161 178 161 194 l 161 194 q 161 271 214 318 q 266 365 354 365 z m 977 566 l 977 566 q 1060 566 1123 542 q 1185 518 1227 474 q 1268 430 1289 371 q 1310 312 1310 242 l 1310 242 q 1310 153 1282 97 q 1254 40 1206 14 q 1158 -12 1098 -12 l 1098 -12 q 1033 -12 990 17 q 947 46 926 94 q 904 141 904 196 l 904 196 q 904 291 955 348 q 1006 404 1091 404 l 1091 404 q 1147 404 1189 375 q 1231 346 1255 301 q 1279 256 1281 206 l 1281 206 l 1256 209 q 1249 240 1229 269 q 1209 297 1179 316 q 1148 334 1108 334 l 1108 334 q 1046 334 1017 297 q 988 259 988 198 l 988 198 q 988 157 1000 125 q 1011 93 1035 76 q 1059 58 1098 58 l 1098 58 q 1139 58 1168 77 q 1196 96 1212 138 q 1227 180 1227 248 l 1227 248 q 1227 250 1226 270 q 1224 290 1220 310 l 1220 310 q 1219 315 1219 323 q 1219 331 1217 335 l 1217 335 q 1208 378 1178 414 q 1148 450 1098 472 q 1048 494 977 494 l 977 494 q 905 494 852 468 q 799 442 770 393 q 741 344 741 273 l 741 273 q 741 217 757 178 q 772 139 798 110 q 823 80 852 54 l 852 54 l 816 0 l 774 0 l 758 43 q 732 67 708 102 q 683 136 668 181 q 652 225 652 277 l 652 277 q 652 333 671 385 q 690 437 730 478 q 769 519 831 543 q 892 566 977 566 z"},"ജ":{"ha":939,"x_min":38,"x_max":899,"o":"m 297 566 l 297 566 q 352 566 395 555 q 437 544 470 521 q 503 497 531 458 l 531 458 l 501 470 q 531 512 573 539 q 614 566 685 566 l 685 566 q 759 566 807 538 q 854 510 877 467 q 899 424 899 377 l 899 377 q 899 337 888 307 q 877 277 856 255 q 834 233 801 216 l 801 216 l 636 181 l 574 173 q 546 169 507 168 q 468 166 439 166 l 439 166 l 242 166 q 202 166 182 164 q 161 161 149 156 l 149 156 q 133 149 127 139 q 121 128 121 114 l 121 114 q 121 89 134 77 q 147 64 166 60 q 184 56 199 56 l 199 56 q 245 56 288 66 q 331 76 370 91 q 409 106 444 121 l 444 121 q 467 131 489 141 q 510 150 532 159 q 554 167 576 175 q 598 182 621 188 l 621 188 q 644 196 659 204 q 673 211 684 217 q 695 222 707 226 q 718 229 735 229 l 735 229 q 772 229 804 218 q 835 206 854 181 q 873 156 873 115 l 873 115 q 873 54 834 21 q 795 -12 726 -12 l 726 -12 q 669 -12 637 8 q 604 27 590 58 q 576 88 576 119 l 576 119 q 576 148 593 169 q 610 189 638 198 l 638 198 l 690 217 q 680 211 670 199 q 659 187 652 169 q 645 150 645 124 l 645 124 q 645 85 668 68 q 690 50 725 50 l 725 50 q 765 50 781 70 q 797 89 797 115 l 797 115 q 797 141 786 155 q 775 169 758 175 q 740 181 722 181 l 722 181 q 696 181 675 172 q 654 163 632 146 l 632 146 l 626 155 q 613 142 598 130 q 582 117 563 105 q 544 93 520 81 l 520 81 q 464 53 411 32 q 357 11 305 0 q 252 -12 199 -12 l 199 -12 q 158 -12 121 0 q 84 11 61 39 q 38 66 38 113 l 38 113 q 38 140 50 165 q 62 190 89 206 l 89 206 q 109 219 140 226 q 170 233 225 233 l 225 233 l 572 233 q 628 233 667 238 q 705 242 732 252 q 758 261 775 276 l 775 276 q 795 293 804 318 q 813 342 813 373 l 813 373 q 813 400 801 429 q 788 457 759 477 q 729 496 677 496 l 677 496 q 645 496 621 487 q 597 477 582 459 l 582 459 q 564 438 557 405 q 550 372 550 310 l 550 310 l 550 259 l 467 259 l 467 323 q 467 367 458 405 q 448 442 417 467 l 417 467 q 399 481 372 490 q 344 499 294 499 l 294 499 q 238 499 201 490 q 163 481 136 456 l 136 456 q 132 452 129 445 q 126 437 124 430 l 124 430 q 119 414 117 404 q 115 394 115 381 l 115 381 q 115 337 137 319 q 159 300 194 300 l 194 300 q 222 300 238 310 q 253 320 260 336 q 266 351 266 367 l 266 367 q 266 397 248 414 q 230 430 192 430 l 192 430 q 151 430 121 412 q 90 394 71 373 l 71 373 l 75 415 q 100 442 135 460 q 170 478 212 478 l 212 478 q 259 478 288 462 q 316 446 329 421 q 342 395 342 366 l 342 366 q 342 333 327 304 q 312 275 280 258 q 247 240 195 240 l 195 240 q 122 240 83 278 q 43 315 43 385 l 43 385 q 43 436 72 477 q 101 518 158 542 q 214 566 297 566 z"},"ഝ":{"ha":1655,"x_min":39,"x_max":1616,"o":"m 652 566 l 652 566 q 716 566 761 553 q 806 539 840 512 l 840 512 q 881 478 902 426 q 923 374 923 285 l 923 285 l 923 258 q 923 185 931 151 q 939 116 956 94 l 956 94 q 970 77 990 69 q 1010 60 1040 60 l 1040 60 q 1068 60 1089 70 q 1110 80 1124 97 l 1124 97 q 1141 119 1149 152 q 1157 185 1157 247 l 1157 247 l 1157 554 l 1243 554 l 1243 264 q 1243 207 1248 174 q 1252 141 1265 118 l 1265 118 q 1282 89 1309 75 q 1335 60 1371 60 l 1371 60 q 1417 60 1452 87 q 1487 114 1508 160 q 1528 205 1528 262 l 1528 262 q 1528 323 1512 368 q 1496 413 1469 446 q 1441 478 1408 500 l 1408 500 l 1466 563 q 1509 528 1543 487 q 1577 445 1597 391 q 1616 337 1616 264 l 1616 264 q 1616 187 1587 125 q 1558 62 1503 25 q 1447 -12 1367 -12 l 1367 -12 q 1302 -12 1263 14 q 1223 40 1196 83 l 1196 83 l 1201 82 q 1183 51 1158 30 q 1132 9 1100 -1 q 1068 -12 1028 -12 l 1028 -12 q 984 -12 948 3 q 912 17 887 47 l 887 47 q 874 63 862 85 q 850 107 843 147 q 836 186 836 252 l 836 252 l 836 263 q 836 315 829 353 q 822 390 808 417 q 793 444 770 462 l 770 462 q 748 479 717 489 q 685 498 646 498 l 646 498 q 633 498 609 496 q 584 494 558 484 l 558 484 l 526 468 q 489 449 459 414 q 428 379 410 331 q 391 282 391 221 l 391 221 q 391 157 408 122 q 424 86 451 72 q 477 58 507 58 l 507 58 q 538 58 565 72 q 591 86 607 122 q 623 157 623 221 l 623 221 q 623 277 604 327 q 585 377 552 415 q 519 453 475 473 l 475 473 l 454 483 q 431 491 409 494 q 387 497 359 497 l 359 497 q 284 497 233 468 q 181 438 155 388 q 128 337 128 273 l 128 273 q 128 221 143 180 q 158 139 186 108 q 213 77 250 54 l 250 54 l 200 -9 q 157 16 121 56 q 84 95 62 151 q 39 206 39 277 l 39 277 q 39 339 60 392 q 80 444 120 483 q 160 522 218 544 q 276 566 351 566 l 351 566 q 400 566 442 557 q 483 547 524 524 l 524 524 l 548 504 q 619 464 665 390 q 711 315 711 219 l 711 219 q 711 148 688 96 q 664 44 619 16 q 573 -12 507 -12 l 507 -12 q 442 -12 396 16 q 350 44 327 96 q 303 148 303 219 l 303 219 q 303 285 323 338 q 343 391 379 433 q 415 474 462 503 l 462 503 l 480 521 q 525 546 570 556 q 614 566 652 566 z"},"ഞ":{"ha":1446,"x_min":42,"x_max":1407,"o":"m 358 566 l 358 566 q 442 566 493 539 q 544 511 583 460 l 583 460 l 596 428 l 608 252 l 608 0 l 522 0 l 522 306 q 522 366 512 401 q 501 435 478 456 l 478 456 q 457 475 431 485 q 404 494 357 494 l 357 494 q 285 494 233 461 q 180 427 152 370 q 123 312 123 239 l 123 239 l 123 228 q 123 172 138 134 q 153 96 180 77 q 206 58 242 58 l 242 58 q 267 58 286 70 q 305 81 316 103 q 327 125 327 157 l 327 157 q 327 207 301 233 q 275 258 233 258 l 233 258 q 194 258 159 238 q 124 218 95 186 l 95 186 l 80 248 q 109 284 154 306 q 199 328 248 328 l 248 328 q 296 328 333 309 q 369 290 390 254 q 410 217 410 165 l 410 165 q 410 110 389 70 q 368 30 330 9 q 292 -12 240 -12 l 240 -12 q 188 -12 143 14 q 97 40 70 96 q 42 152 42 241 l 42 241 q 42 347 85 419 q 127 491 199 529 q 270 566 358 566 z m 791 566 l 791 566 q 844 566 884 557 q 924 547 963 524 l 963 524 l 988 504 q 1054 463 1099 390 q 1143 317 1143 219 l 1143 219 q 1143 148 1120 96 q 1096 44 1051 16 q 1005 -12 939 -12 l 939 -12 q 874 -12 828 16 q 782 44 759 96 q 735 148 735 219 l 735 219 q 735 285 757 339 q 779 392 817 434 q 855 475 903 504 l 903 504 l 918 520 q 962 545 1009 556 q 1055 566 1110 566 l 1110 566 q 1185 566 1241 544 q 1296 522 1333 483 q 1370 444 1389 392 q 1407 340 1407 281 l 1407 281 q 1407 211 1386 157 q 1365 102 1329 61 q 1293 20 1246 -9 l 1246 -9 l 1196 54 q 1229 74 1257 104 q 1284 133 1301 175 q 1318 216 1318 271 l 1318 271 q 1318 334 1294 386 q 1269 437 1221 467 q 1172 497 1100 497 l 1100 497 q 1070 497 1045 494 q 1019 491 994 482 l 994 482 l 963 467 q 925 449 893 414 q 861 379 842 331 q 823 282 823 221 l 823 221 q 823 157 840 122 q 856 86 883 72 q 909 58 939 58 l 939 58 q 970 58 996 72 q 1022 86 1039 122 q 1055 157 1055 221 l 1055 221 q 1055 278 1038 327 q 1021 375 991 413 q 960 450 919 471 l 919 471 l 895 482 q 882 487 868 490 q 854 493 838 495 q 821 497 799 497 l 799 497 q 746 497 713 484 q 679 471 659 450 l 659 450 q 634 425 621 389 q 608 352 608 289 l 608 289 l 608 0 l 522 0 l 522 209 l 556 454 q 581 486 613 512 q 644 537 688 552 q 731 566 791 566 z"},"ട":{"ha":563,"x_min":20,"x_max":536,"o":"m 269 566 l 269 566 q 358 566 423 547 q 487 527 536 500 l 536 500 l 489 433 q 449 459 394 477 q 339 494 268 494 l 268 494 q 217 494 185 482 q 153 470 138 450 q 122 429 122 403 l 122 403 q 122 384 127 371 q 132 358 142 349 l 142 349 q 162 329 203 323 q 244 317 299 317 l 299 317 l 307 317 q 386 317 431 301 q 475 285 500 253 l 500 253 q 515 235 522 210 q 528 185 528 158 l 528 158 q 528 108 502 70 q 476 31 423 10 q 370 -12 289 -12 l 289 -12 q 204 -12 142 7 q 79 26 20 59 l 20 59 l 66 125 q 96 107 131 92 q 165 77 206 69 q 246 60 293 60 l 293 60 q 346 60 379 72 q 411 84 426 105 q 441 126 441 153 l 441 153 q 441 175 435 192 q 428 209 412 220 l 412 220 q 396 232 366 238 q 336 244 280 244 l 280 244 l 270 244 q 201 244 147 259 q 92 274 65 307 l 65 307 q 50 325 43 348 q 35 371 35 402 l 35 402 q 35 450 60 487 q 85 524 137 545 q 189 566 269 566 z"},"ഠ":{"ha":655,"x_min":39,"x_max":616,"o":"m 326 566 l 326 566 q 416 566 481 531 q 546 496 581 431 q 616 366 616 276 l 616 276 q 616 189 581 125 q 546 60 482 24 q 417 -12 327 -12 l 327 -12 q 229 -12 165 29 q 101 69 70 136 q 39 202 39 279 l 39 279 q 39 366 74 431 q 109 495 174 531 q 238 566 326 566 z m 327 60 l 327 60 q 394 60 438 88 q 482 116 505 166 q 527 215 527 278 l 527 278 q 527 340 505 389 q 482 438 438 466 q 394 494 328 494 l 328 494 q 233 494 181 436 q 128 377 128 278 l 128 278 q 128 180 180 120 q 231 60 327 60 z"},"ഡ":{"ha":1223,"x_min":39,"x_max":1184,"o":"m 596 -12 l 596 -12 q 552 -12 516 3 q 480 17 455 47 l 455 47 q 442 63 430 85 q 418 107 411 146 q 404 185 404 251 l 404 251 l 404 285 q 404 340 399 382 q 394 423 377 448 l 377 448 q 364 469 341 482 q 318 494 274 494 l 274 494 q 230 494 197 469 q 163 443 145 397 q 127 351 127 289 l 127 289 q 127 233 143 188 q 158 143 185 110 q 212 76 247 51 l 247 51 l 194 -11 q 144 29 109 73 q 74 117 57 171 q 39 225 39 292 l 39 292 q 39 378 68 440 q 97 501 151 534 q 205 566 278 566 l 278 566 q 335 566 374 550 q 413 533 439 503 l 439 503 q 458 481 470 455 q 481 428 486 393 q 491 358 491 308 l 491 308 l 491 259 q 491 189 499 152 q 506 115 524 94 l 524 94 q 538 78 558 69 q 578 60 608 60 l 608 60 q 636 60 657 70 q 678 80 692 97 l 692 97 q 709 118 717 151 q 725 184 725 245 l 725 245 l 725 554 l 811 554 l 811 262 q 811 206 816 174 q 820 141 833 118 l 833 118 q 850 89 877 75 q 903 60 939 60 l 939 60 q 985 60 1021 87 q 1056 113 1076 159 q 1096 205 1096 263 l 1096 263 q 1096 324 1080 369 q 1064 413 1037 446 q 1009 478 976 500 l 976 500 l 1034 563 q 1077 528 1111 487 q 1145 445 1165 391 q 1184 336 1184 263 l 1184 263 q 1184 187 1155 125 q 1126 62 1071 25 q 1015 -12 935 -12 l 935 -12 q 870 -12 831 14 q 792 39 764 82 l 764 82 l 769 81 q 741 34 698 11 q 655 -12 596 -12 z"},"ഢ":{"ha":1334,"x_min":39,"x_max":1292,"o":"m 596 -12 l 596 -12 q 552 -12 516 3 q 480 17 455 47 l 455 47 q 442 63 430 85 q 418 107 411 147 q 404 186 404 252 l 404 252 l 404 286 q 404 340 399 382 q 394 423 377 448 l 377 448 q 364 469 341 482 q 318 494 274 494 l 274 494 q 230 494 197 469 q 163 443 145 398 q 127 352 127 290 l 127 290 q 127 233 143 188 q 158 143 185 110 q 212 76 247 51 l 247 51 l 194 -12 q 143 29 109 74 q 74 118 57 172 q 39 225 39 293 l 39 293 q 39 379 68 440 q 97 501 151 534 q 205 566 278 566 l 278 566 q 335 566 374 550 q 413 533 439 503 l 439 503 q 458 481 470 455 q 481 428 486 393 q 491 358 491 308 l 491 308 l 491 257 q 491 189 499 153 q 506 116 524 94 l 524 94 q 538 78 558 69 q 578 60 608 60 l 608 60 q 636 60 657 70 q 678 80 692 97 l 692 97 q 709 119 717 152 q 725 184 725 246 l 725 246 l 725 554 l 811 554 l 811 264 l 769 82 q 741 35 698 12 q 655 -12 596 -12 z m 1098 566 l 1098 566 q 1149 566 1193 541 q 1237 515 1265 460 q 1292 404 1292 313 l 1292 313 q 1292 209 1250 136 q 1207 63 1136 26 q 1064 -12 975 -12 l 975 -12 q 893 -12 845 13 q 797 38 759 84 l 759 84 l 735 304 l 735 534 l 811 534 l 811 250 q 811 186 822 153 q 833 119 855 98 l 855 98 q 876 79 904 70 q 931 60 977 60 l 977 60 q 1049 60 1102 94 q 1154 128 1183 186 q 1211 243 1211 315 l 1211 315 l 1211 327 q 1211 387 1195 425 q 1179 462 1153 479 q 1126 496 1092 496 l 1092 496 q 1067 496 1048 485 q 1029 474 1018 453 q 1007 431 1007 398 l 1007 398 q 1007 346 1033 321 q 1059 296 1101 296 l 1101 296 q 1143 296 1177 316 q 1210 336 1239 368 l 1239 368 l 1254 306 q 1225 270 1182 248 q 1138 226 1088 226 l 1088 226 q 1039 226 1002 246 q 965 265 945 302 q 924 339 924 393 l 924 393 q 924 444 945 483 q 965 522 1004 544 q 1043 566 1098 566 z"},"ണ":{"ha":1368,"x_min":42,"x_max":1329,"o":"m 358 566 l 358 566 q 442 566 492 539 q 542 512 576 469 l 576 469 l 562 472 q 594 519 640 543 q 685 566 740 566 l 740 566 q 807 566 849 541 q 890 516 915 472 l 915 472 l 903 465 q 941 521 984 544 q 1027 566 1088 566 l 1088 566 q 1165 566 1219 530 q 1273 493 1301 431 q 1329 369 1329 292 l 1329 292 q 1329 226 1312 173 q 1294 119 1260 75 q 1225 31 1174 -9 l 1174 -9 l 1121 53 q 1156 78 1183 112 q 1210 145 1226 190 q 1241 234 1241 292 l 1241 292 q 1241 350 1222 396 q 1203 441 1169 468 q 1134 494 1087 494 l 1087 494 q 1048 494 1021 480 q 993 466 977 437 l 977 437 q 964 414 960 382 q 955 350 955 288 l 955 288 l 955 0 l 869 0 l 869 316 q 869 371 862 405 q 854 438 834 459 l 834 459 q 819 476 796 485 q 773 494 739 494 l 739 494 q 708 494 685 484 q 662 473 646 456 l 646 456 q 627 435 618 402 q 609 369 609 307 l 609 307 l 609 0 l 523 0 l 523 299 q 523 364 512 400 q 501 435 478 456 l 478 456 q 457 475 428 485 q 398 494 357 494 l 357 494 q 285 494 233 461 q 180 427 152 370 q 123 312 123 239 l 123 239 l 123 228 q 123 172 138 134 q 153 96 180 77 q 206 58 242 58 l 242 58 q 267 58 286 70 q 305 81 316 103 q 327 125 327 157 l 327 157 q 327 207 301 233 q 275 258 233 258 l 233 258 q 194 258 159 238 q 124 218 95 186 l 95 186 l 80 248 q 109 284 154 306 q 199 328 248 328 l 248 328 q 296 328 333 309 q 369 290 390 254 q 410 217 410 165 l 410 165 q 410 110 389 70 q 368 30 330 9 q 292 -12 240 -12 l 240 -12 q 188 -12 143 14 q 97 40 70 96 q 42 152 42 241 l 42 241 q 42 347 85 419 q 127 491 199 529 q 270 566 358 566 z"},"ത":{"ha":1014,"x_min":39,"x_max":975,"o":"m 507 -12 l 507 -12 q 442 -12 396 16 q 350 44 327 96 q 303 148 303 219 l 303 219 q 303 285 325 339 q 347 392 385 434 q 423 476 471 504 l 471 504 l 486 520 q 530 545 577 556 q 623 566 678 566 l 678 566 q 753 566 809 544 q 864 522 901 483 q 938 444 957 392 q 975 340 975 281 l 975 281 q 975 211 954 157 q 933 102 897 61 q 861 20 814 -9 l 814 -9 l 765 54 q 798 74 826 104 q 853 133 870 175 q 886 216 886 271 l 886 271 q 886 337 861 388 q 836 439 788 468 q 739 497 668 497 l 668 497 q 638 497 613 494 q 587 491 562 482 l 562 482 l 531 467 q 493 449 461 414 q 429 379 410 331 q 391 282 391 221 l 391 221 q 391 157 408 122 q 424 86 451 72 q 477 58 507 58 l 507 58 q 538 58 565 72 q 591 85 607 121 q 623 156 623 221 l 623 221 q 623 277 604 327 q 585 377 552 415 q 519 453 475 473 l 475 473 l 454 483 q 431 491 409 494 q 387 497 359 497 l 359 497 q 284 497 233 468 q 181 439 155 389 q 128 338 128 273 l 128 273 q 128 221 143 180 q 158 139 186 108 q 213 77 250 54 l 250 54 l 200 -9 q 157 16 121 56 q 84 95 62 151 q 39 206 39 277 l 39 277 q 39 339 60 392 q 80 444 120 483 q 160 522 218 544 q 276 566 351 566 l 351 566 q 400 566 442 556 q 483 546 524 523 l 524 523 l 549 503 q 619 463 665 389 q 711 315 711 219 l 711 219 q 711 148 688 96 q 664 44 619 16 q 573 -12 507 -12 z"},"ഥ":{"ha":896,"x_min":71,"x_max":833,"o":"m 71 554 l 157 554 l 157 70 l 386 70 l 386 0 l 71 0 l 71 554 z m 583 566 l 583 566 q 645 566 691 549 q 737 532 768 501 l 768 501 q 802 468 818 419 q 833 370 833 292 l 833 292 l 833 0 l 340 0 l 340 292 q 340 347 347 386 q 354 424 369 452 q 383 480 405 502 l 405 502 q 436 532 481 549 q 525 566 583 566 z m 584 494 l 584 494 q 547 494 519 483 q 490 471 470 451 l 470 451 q 449 429 438 392 q 426 354 426 279 l 426 279 l 426 70 l 747 70 l 747 271 q 747 345 735 387 q 723 429 701 451 l 701 451 q 681 471 653 483 q 625 494 584 494 z"},"ദ":{"ha":641,"x_min":52,"x_max":602,"o":"m 373 566 l 373 566 q 445 566 494 546 q 542 525 567 490 q 591 455 591 411 l 591 411 q 591 363 567 330 q 543 296 489 274 l 489 274 l 485 280 q 542 264 572 228 q 602 191 602 143 l 602 143 q 602 70 552 30 q 502 -11 413 -11 l 413 -11 q 377 -11 351 -7 q 325 -4 305 0 l 305 0 l 323 69 q 345 65 365 62 q 385 59 406 59 l 406 59 q 458 59 487 79 q 515 98 515 144 l 515 144 q 515 163 508 180 q 501 197 485 210 l 485 210 q 469 224 445 232 q 421 240 368 240 l 368 240 l 322 240 l 322 310 l 367 310 q 405 310 434 317 q 463 324 480 341 l 480 341 q 492 352 498 367 q 504 382 504 403 l 504 403 q 504 448 469 471 q 434 494 371 494 l 371 494 q 290 494 239 458 q 188 421 164 359 q 140 296 140 217 l 140 217 q 140 165 146 111 q 152 57 165 9 l 165 9 l 83 -4 q 68 45 60 106 q 52 167 52 219 l 52 219 q 52 322 88 400 q 123 478 195 522 q 266 566 373 566 z"},"ധ":{"ha":911,"x_min":39,"x_max":872,"o":"m 623 -12 l 623 -12 q 577 -12 544 2 q 511 15 489 38 q 466 61 449 89 l 449 89 l 462 88 q 431 36 389 12 q 346 -12 281 -12 l 281 -12 q 204 -12 150 25 q 96 61 68 124 q 39 186 39 262 l 39 262 q 39 328 57 381 q 75 434 110 479 q 144 523 194 562 l 194 562 l 248 501 q 213 476 186 443 q 158 409 143 365 q 127 321 127 262 l 127 262 q 127 205 146 159 q 165 113 200 87 q 235 60 282 60 l 282 60 q 323 60 350 75 q 376 90 392 118 l 392 118 q 405 141 409 173 q 413 204 413 263 l 413 263 l 413 554 l 499 554 l 499 263 q 499 206 504 174 q 508 141 521 118 l 521 118 q 538 89 564 75 q 590 60 627 60 l 627 60 q 673 60 709 87 q 744 113 764 159 q 784 204 784 262 l 784 262 q 784 323 768 368 q 752 412 725 445 q 697 477 664 499 l 664 499 l 722 562 q 765 528 799 486 q 833 444 853 390 q 872 335 872 262 l 872 262 q 872 182 842 120 q 811 58 756 23 q 700 -12 623 -12 z"},"ന":{"ha":911,"x_min":39,"x_max":872,"o":"m 288 566 l 288 566 q 334 566 367 553 q 400 539 423 517 q 446 494 462 465 l 462 465 l 449 466 q 480 518 523 542 q 566 566 630 566 l 630 566 q 707 566 761 530 q 815 493 844 431 q 872 369 872 292 l 872 292 q 872 226 854 173 q 836 120 802 76 q 767 31 717 -8 l 717 -8 l 663 53 q 698 78 726 112 q 753 145 769 190 q 784 234 784 292 l 784 292 q 784 350 765 396 q 746 441 711 468 q 676 494 629 494 l 629 494 q 588 494 562 480 q 535 465 519 436 l 519 436 q 506 414 502 382 q 498 350 498 291 l 498 291 l 498 0 l 412 0 l 412 291 q 412 348 408 381 q 404 414 390 436 l 390 436 q 373 465 347 480 q 321 494 284 494 l 284 494 q 238 494 203 468 q 167 441 147 396 q 127 350 127 292 l 127 292 q 127 232 144 187 q 160 142 187 110 q 214 78 247 55 l 247 55 l 189 -8 q 146 27 112 69 q 78 110 59 165 q 39 219 39 292 l 39 292 q 39 373 70 435 q 100 496 156 531 q 212 566 288 566 z"},"ഩ":{"ha":1021,"x_min":42,"x_max":982,"o":"m 358 566 l 358 566 q 442 566 492 539 q 542 512 576 469 l 576 469 l 566 477 q 596 524 638 545 q 680 566 741 566 l 741 566 q 818 566 872 530 q 926 493 954 431 q 982 369 982 292 l 982 292 q 982 226 965 173 q 947 120 913 76 q 878 31 828 -8 l 828 -8 l 774 53 q 809 78 836 112 q 863 145 879 190 q 894 234 894 292 l 894 292 q 894 350 875 396 q 856 441 822 468 q 787 494 740 494 l 740 494 q 699 494 673 480 q 647 465 630 436 l 630 436 q 618 414 613 382 q 608 350 608 285 l 608 285 l 608 0 l 522 0 l 522 305 q 522 365 512 400 q 501 435 478 456 l 478 456 q 457 475 430 485 q 402 494 357 494 l 357 494 q 285 494 233 461 q 180 427 152 370 q 123 312 123 239 l 123 239 l 123 228 q 123 172 138 134 q 153 96 180 77 q 206 58 242 58 l 242 58 q 267 58 286 70 q 305 81 316 103 q 327 125 327 157 l 327 157 q 327 207 301 233 q 275 258 233 258 l 233 258 q 194 258 159 238 q 124 218 95 186 l 95 186 l 80 248 q 109 284 154 306 q 199 328 248 328 l 248 328 q 296 328 333 309 q 369 290 390 254 q 410 217 410 165 l 410 165 q 410 110 389 70 q 368 30 330 9 q 292 -12 240 -12 l 240 -12 q 188 -12 143 14 q 97 40 70 96 q 42 152 42 241 l 42 241 q 42 347 85 419 q 127 491 199 529 q 270 566 358 566 z"},"പ":{"ha":896,"x_min":32,"x_max":825,"o":"m 229 346 l 229 346 q 297 346 341 321 q 384 295 406 256 q 427 216 427 173 l 427 173 q 427 133 414 102 q 401 71 382 57 l 382 57 l 357 70 l 739 70 l 739 554 l 825 554 l 825 0 l 328 0 l 299 52 q 319 72 331 97 q 343 121 343 158 l 343 158 q 343 212 314 244 q 285 276 229 276 l 229 276 q 194 276 169 261 q 143 245 130 220 q 116 195 116 164 l 116 164 q 116 130 130 102 q 144 74 175 51 l 175 51 l 129 -7 q 87 24 60 67 q 32 109 32 166 l 32 166 q 32 219 57 260 q 81 300 126 323 q 170 346 229 346 z"},"ഫ":{"ha":1129,"x_min":32,"x_max":1066,"o":"m 229 346 l 229 346 q 297 346 341 321 q 384 295 406 256 q 427 216 427 173 l 427 173 q 427 133 414 102 q 401 71 382 57 l 382 57 l 357 70 l 634 70 l 634 0 l 328 0 l 299 52 q 319 72 331 97 q 343 121 343 158 l 343 158 q 343 212 314 244 q 285 276 229 276 l 229 276 q 194 276 169 261 q 143 245 130 220 q 116 195 116 164 l 116 164 q 116 130 130 102 q 144 73 175 51 l 175 51 l 129 -7 q 86 23 59 66 q 32 109 32 166 l 32 166 q 32 219 57 260 q 81 300 126 323 q 170 346 229 346 z m 816 566 l 816 566 q 878 566 924 549 q 970 532 1001 501 l 1001 501 q 1035 468 1051 419 q 1066 370 1066 292 l 1066 292 l 1066 0 l 573 0 l 573 292 q 573 347 580 386 q 587 424 602 452 q 616 480 638 502 l 638 502 q 669 532 714 549 q 758 566 816 566 z m 817 494 l 817 494 q 780 494 752 483 q 723 471 703 451 l 703 451 q 682 429 671 392 q 659 354 659 279 l 659 279 l 659 70 l 980 70 l 980 271 q 980 345 968 387 q 956 429 934 451 l 934 451 q 914 471 886 483 q 858 494 817 494 z"},"ബ":{"ha":1306,"x_min":42,"x_max":1235,"o":"m 358 566 l 358 566 q 442 566 492 539 q 542 512 576 469 l 576 469 l 596 428 l 608 266 l 608 0 l 522 0 l 522 306 q 522 365 512 400 q 501 435 478 456 l 478 456 q 457 475 430 485 q 402 494 357 494 l 357 494 q 285 494 233 461 q 180 427 152 370 q 123 312 123 239 l 123 239 l 123 228 q 123 172 138 134 q 153 96 180 77 q 206 58 242 58 l 242 58 q 267 58 286 70 q 305 81 316 103 q 327 125 327 157 l 327 157 q 327 207 301 233 q 275 258 233 258 l 233 258 q 194 258 159 238 q 124 218 95 186 l 95 186 l 80 248 q 109 284 154 306 q 199 328 248 328 l 248 328 q 296 328 333 309 q 369 290 390 254 q 410 217 410 165 l 410 165 q 410 110 389 70 q 368 30 330 9 q 292 -12 240 -12 l 240 -12 q 188 -12 143 14 q 97 40 70 96 q 42 152 42 241 l 42 241 q 42 347 85 419 q 127 491 199 529 q 270 566 358 566 z m 1149 554 l 1235 554 l 1235 0 l 821 0 l 785 54 q 813 81 838 113 q 862 144 878 187 q 894 230 894 292 l 894 292 q 894 350 875 396 q 856 441 822 468 q 787 494 740 494 l 740 494 q 699 494 673 480 q 647 465 630 436 l 630 436 q 618 414 613 382 q 608 350 608 285 l 608 285 l 608 0 l 522 0 l 522 258 l 571 422 l 566 477 q 596 524 638 545 q 680 566 741 566 l 741 566 q 818 566 872 530 q 926 493 954 431 q 982 369 982 292 l 982 292 q 982 236 970 194 q 958 152 939 120 q 920 88 897 61 l 897 61 l 877 70 l 1149 70 l 1149 554 z"},"ഭ":{"ha":654,"x_min":52,"x_max":620,"o":"m 394 566 l 394 566 q 460 566 511 550 q 562 534 591 503 q 619 471 619 425 l 619 425 q 619 402 614 383 q 608 364 596 350 l 596 350 q 581 331 556 321 q 530 311 477 311 l 477 311 l 448 311 q 410 311 392 309 q 374 306 364 301 l 364 301 q 354 296 350 288 q 346 280 346 270 l 346 270 q 346 243 373 236 q 399 229 444 229 l 444 229 l 456 229 q 504 229 536 221 q 568 212 587 195 l 587 195 q 604 181 612 161 q 620 140 620 113 l 620 113 q 620 77 601 49 q 581 20 542 4 q 503 -12 443 -12 l 443 -12 q 409 -12 373 -7 q 337 -2 306 7 q 274 15 252 25 l 252 25 l 283 93 q 321 76 360 68 q 399 59 441 59 l 441 59 q 495 59 516 74 q 537 89 537 111 l 537 111 q 537 141 515 150 q 492 159 454 159 l 454 159 l 439 159 q 375 159 339 170 q 303 181 285 203 l 285 203 q 275 216 270 232 q 264 247 264 268 l 264 268 q 264 291 272 312 q 280 332 299 346 l 299 346 q 320 363 354 372 q 387 381 441 381 l 441 381 l 482 381 q 510 381 523 390 q 535 398 535 423 l 535 423 q 535 460 497 477 q 459 494 393 494 l 393 494 q 303 494 248 458 q 192 421 166 359 q 140 296 140 217 l 140 217 q 140 165 146 111 q 152 57 165 9 l 165 9 l 83 -4 q 68 45 60 106 q 52 167 52 219 l 52 219 q 52 322 90 400 q 127 478 203 522 q 279 566 394 566 z"},"മ":{"ha":723,"x_min":60,"x_max":663,"o":"m 354 566 l 354 566 q 433 566 490 548 q 546 529 583 494 l 583 494 q 611 469 629 437 q 646 405 655 363 q 663 321 663 266 l 663 266 l 663 0 l 60 0 l 60 268 q 60 320 69 362 q 77 403 95 436 q 112 468 138 493 l 138 493 q 175 528 228 547 q 280 566 354 566 z m 307 495 l 307 495 q 265 495 233 474 q 201 453 181 418 l 181 418 q 165 390 156 350 q 146 309 146 249 l 146 249 l 146 68 l 151 68 q 219 119 272 175 q 325 231 356 289 q 386 347 386 402 l 386 402 q 386 430 378 451 q 369 471 352 483 q 335 495 307 495 z m 472 393 l 472 393 q 472 334 445 277 q 418 220 368 163 q 318 105 249 45 l 249 45 l 247 65 q 276 67 304 69 q 332 70 360 70 l 360 70 l 577 70 l 577 249 q 577 323 563 372 q 548 421 515 451 q 482 480 428 494 l 428 494 l 430 501 q 449 479 461 455 q 472 430 472 393 z"},"യ":{"ha":1035,"x_min":39,"x_max":993,"o":"m 661 -12 l 661 -12 q 621 -12 578 -3 q 535 6 493 29 l 493 29 q 487 32 478 36 q 468 40 463 43 l 463 43 q 408 82 375 129 q 342 176 327 229 q 312 282 312 338 l 312 338 q 312 378 322 412 q 332 446 349 473 l 349 473 l 356 484 q 376 511 403 529 q 429 547 460 557 q 491 566 525 566 l 525 566 q 624 566 679 503 q 734 439 734 332 l 734 332 q 734 242 696 170 q 658 97 593 53 l 593 53 q 585 47 578 43 q 570 38 560 33 l 560 33 q 518 9 472 -1 q 426 -12 376 -12 l 376 -12 q 296 -12 234 14 q 171 40 128 87 q 84 133 62 197 q 39 260 39 335 l 39 335 q 39 405 66 457 q 92 508 141 537 q 190 566 256 566 l 256 566 q 314 566 354 546 q 394 525 421 490 l 421 490 l 362 431 q 349 457 324 477 q 298 496 257 496 l 257 496 q 219 496 190 478 q 160 460 143 424 q 126 387 126 333 l 126 333 q 126 261 155 198 q 184 135 241 96 q 298 56 383 56 l 383 56 q 404 56 426 59 q 448 61 469 66 l 469 66 q 480 70 492 74 q 504 78 514 82 l 514 82 q 549 100 579 135 q 609 169 628 219 q 647 269 647 332 l 647 332 q 647 392 630 428 q 613 464 585 480 q 557 496 525 496 l 525 496 q 487 496 459 477 q 430 458 415 422 q 399 385 399 332 l 399 332 q 399 279 416 229 q 432 178 463 139 q 493 100 534 78 l 534 78 q 544 74 552 74 q 560 73 570 69 l 570 69 q 587 64 611 60 q 635 56 661 56 l 661 56 q 744 56 798 90 q 852 124 879 182 q 906 240 906 312 l 906 312 q 906 371 887 424 q 868 477 833 519 l 833 519 l 902 566 q 948 512 971 448 q 993 383 993 314 l 993 314 q 993 243 972 183 q 950 123 908 80 q 865 36 803 12 q 741 -12 661 -12 z"},"ര":{"ha":736,"x_min":39,"x_max":697,"o":"m 364 566 l 364 566 q 447 566 510 542 q 572 518 614 474 q 655 430 676 371 q 697 312 697 242 l 697 242 q 697 153 669 97 q 641 40 593 14 q 545 -12 485 -12 l 485 -12 q 420 -12 377 17 q 334 46 313 94 q 291 141 291 196 l 291 196 q 291 291 342 348 q 393 404 479 404 l 479 404 q 535 404 577 375 q 618 346 642 301 q 666 256 668 206 l 668 206 l 643 209 q 636 240 617 269 q 597 297 567 316 q 536 334 496 334 l 496 334 q 433 334 404 297 q 375 259 375 198 l 375 198 q 375 156 386 125 q 397 93 422 76 q 446 58 485 58 l 485 58 q 526 58 555 77 q 583 96 599 138 q 614 180 614 248 l 614 248 q 614 250 613 270 q 611 290 607 310 l 607 310 q 606 315 606 323 q 606 331 604 335 l 604 335 q 595 378 565 414 q 535 450 485 472 q 435 494 364 494 l 364 494 q 292 494 239 468 q 186 442 157 393 q 128 344 128 273 l 128 273 q 128 221 143 180 q 158 139 186 108 q 213 77 250 54 l 250 54 l 200 -9 q 157 16 121 56 q 84 95 62 151 q 39 206 39 277 l 39 277 q 39 333 58 385 q 77 437 117 478 q 156 519 218 543 q 279 566 364 566 z"},"റ":{"ha":674,"x_min":39,"x_max":635,"o":"m 341 566 l 341 566 q 415 566 471 544 q 526 522 563 483 q 599 444 617 392 q 635 340 635 281 l 635 281 q 635 211 614 157 q 593 102 557 61 q 521 20 474 -9 l 474 -9 l 425 54 q 458 74 486 104 q 513 134 530 176 q 546 218 546 271 l 546 271 q 546 337 522 387 q 498 437 452 466 q 405 494 338 494 l 338 494 q 272 494 225 465 q 178 435 153 385 q 128 335 128 273 l 128 273 q 128 221 143 180 q 158 139 186 108 q 213 77 250 54 l 250 54 l 200 -8 q 157 16 121 56 q 84 95 62 151 q 39 206 39 277 l 39 277 q 39 339 59 392 q 78 444 117 483 q 155 522 212 544 q 268 566 341 566 z"},"ല":{"ha":859,"x_min":63,"x_max":788,"o":"m 702 554 l 788 554 l 788 0 l 63 0 l 63 313 q 63 387 80 431 q 96 475 126 504 l 126 504 q 158 535 203 551 q 247 566 305 566 l 305 566 q 365 566 410 551 q 454 536 483 507 l 483 507 q 515 476 530 430 q 544 383 544 322 l 544 322 l 544 222 l 149 222 l 149 70 l 702 70 l 702 554 z m 304 496 l 304 496 q 223 496 186 455 q 149 413 149 321 l 149 321 l 149 292 l 458 292 l 458 320 q 458 415 421 456 q 384 496 304 496 z"},"ള":{"ha":724,"x_min":40,"x_max":685,"o":"m 398 496 l 398 496 q 340 496 294 486 q 248 476 214 458 q 179 440 156 418 q 133 395 122 369 l 122 369 q 121 365 123 360 q 124 354 123 351 l 123 351 q 120 340 119 330 q 117 320 117 312 l 117 312 q 117 250 140 217 q 162 183 209 183 l 209 183 q 254 183 275 209 q 295 235 295 270 l 295 270 q 295 292 287 310 q 279 328 261 339 q 243 350 214 350 l 214 350 q 168 350 139 324 q 109 298 89 271 l 89 271 l 66 329 q 82 349 106 369 q 129 389 160 403 q 191 416 229 416 l 229 416 q 281 416 314 396 q 347 375 363 342 q 378 309 378 270 l 378 270 q 378 230 360 195 q 342 159 305 137 q 268 115 210 115 l 210 115 q 159 115 121 138 q 82 161 61 206 q 40 250 40 313 l 40 313 q 40 367 64 414 q 87 460 133 494 q 179 528 246 547 q 313 566 399 566 l 399 566 q 494 566 555 548 q 615 529 644 493 q 673 456 673 402 l 673 402 q 673 368 660 341 q 646 313 617 294 q 588 274 541 263 l 541 263 l 447 279 l 447 310 l 454 310 q 489 310 513 314 q 537 318 554 331 l 554 331 q 572 345 579 360 q 586 375 586 396 l 586 396 q 586 427 568 449 q 549 471 508 484 q 467 496 398 496 z m 685 144 l 685 144 q 685 113 674 87 q 662 60 641 42 l 641 42 q 625 28 604 19 q 583 9 552 5 q 521 0 473 0 l 473 0 l 261 0 q 220 0 199 -3 q 178 -6 166 -13 l 166 -13 q 150 -20 143 -33 q 136 -46 136 -62 l 136 -62 q 136 -77 141 -89 q 146 -102 159 -110 l 159 -110 q 172 -119 195 -124 q 217 -129 259 -129 l 259 -129 l 667 -129 l 667 -201 l 255 -201 q 203 -201 167 -193 q 131 -185 106 -170 l 106 -170 q 78 -153 64 -127 q 50 -101 50 -68 l 50 -68 q 50 -33 63 -5 q 75 22 103 40 l 103 40 q 117 50 135 57 q 153 63 178 67 q 203 70 238 70 l 238 70 l 465 70 q 506 70 533 75 q 559 80 574 93 l 574 93 q 586 103 592 118 q 598 132 598 154 l 598 154 q 598 174 590 190 q 582 206 565 218 l 565 218 q 550 228 528 234 q 505 240 466 240 l 466 240 l 447 240 l 447 293 l 552 285 q 621 272 653 234 q 685 196 685 144 z"},"ഴ":{"ha":654,"x_min":37,"x_max":617,"o":"m 263 404 l 263 404 q 263 472 308 519 q 353 566 441 566 l 441 566 q 505 566 544 540 q 582 514 600 474 q 617 434 617 392 l 617 392 q 617 325 585 270 q 552 215 493 183 q 433 150 351 150 l 351 150 l 330 150 q 230 150 165 183 q 100 216 69 273 q 37 330 37 401 l 37 401 q 37 439 49 481 q 61 522 91 566 l 91 566 l 158 529 q 136 491 130 462 q 123 433 123 404 l 123 404 q 123 340 150 299 q 176 258 223 239 q 270 219 332 219 l 332 219 l 351 219 q 409 219 449 243 q 489 267 510 308 q 531 348 531 397 l 531 397 q 531 436 512 467 q 492 497 439 497 l 439 497 q 407 497 387 485 q 366 472 357 451 q 347 430 347 403 l 347 403 q 347 361 361 327 q 374 293 391 261 q 408 229 422 196 q 435 163 435 123 l 435 123 q 435 94 423 63 q 410 31 375 10 q 340 -12 272 -12 l 272 -12 q 235 -12 194 -3 q 153 5 112 27 l 112 27 l 143 94 q 170 78 203 69 q 235 59 271 59 l 271 59 q 321 59 337 79 q 352 98 352 126 l 352 126 q 352 164 339 196 q 325 227 308 258 q 290 288 277 323 q 263 358 263 404 z"},"വ":{"ha":958,"x_min":39,"x_max":887,"o":"m 341 566 l 341 566 q 415 566 471 544 q 526 522 563 483 q 599 444 617 392 q 635 340 635 281 l 635 281 q 635 228 622 187 q 609 146 588 114 q 567 81 541 53 l 541 53 l 517 70 l 801 70 l 801 554 l 887 554 l 887 0 l 467 0 l 433 59 q 462 79 488 108 q 514 137 530 178 q 546 218 546 271 l 546 271 q 546 337 522 387 q 498 437 452 466 q 405 494 337 494 l 337 494 q 271 494 225 465 q 178 435 153 385 q 128 335 128 273 l 128 273 q 128 221 143 180 q 158 139 186 108 q 213 77 250 54 l 250 54 l 200 -9 q 157 16 121 56 q 84 95 62 151 q 39 206 39 277 l 39 277 q 39 339 59 392 q 78 444 117 483 q 155 522 212 544 q 268 566 341 566 z"},"ശ":{"ha":1040,"x_min":39,"x_max":1001,"o":"m 684 566 l 684 566 q 759 566 818 543 q 876 520 917 478 q 958 435 980 376 q 1001 316 1001 242 l 1001 242 q 1001 153 973 97 q 945 40 897 14 q 849 -12 789 -12 l 789 -12 q 724 -12 681 17 q 638 46 617 94 q 595 141 595 196 l 595 196 q 595 291 646 348 q 697 404 783 404 l 783 404 q 839 404 881 375 q 922 346 946 301 q 970 256 973 206 l 973 206 l 947 209 q 940 240 921 269 q 901 297 871 316 q 840 334 800 334 l 800 334 q 737 334 708 297 q 679 259 679 198 l 679 198 q 679 156 691 125 q 702 93 726 76 q 750 58 789 58 l 789 58 q 830 58 859 77 q 887 96 903 138 q 918 180 918 248 l 918 248 q 918 250 917 270 q 915 290 911 310 l 911 310 q 910 315 912 323 q 913 331 911 334 l 911 334 q 900 381 869 417 q 837 453 791 474 q 745 494 689 494 l 689 494 q 646 494 614 485 q 581 476 559 459 l 559 459 q 522 431 507 382 q 492 332 492 263 l 492 263 l 492 246 q 492 173 480 128 q 468 83 439 51 l 439 51 q 413 21 374 5 q 335 -12 278 -12 l 278 -12 q 205 -12 151 21 q 97 53 68 115 q 39 177 39 263 l 39 263 q 39 331 57 385 q 74 438 109 483 q 144 527 194 566 l 194 566 l 248 504 q 213 480 186 446 q 158 412 143 367 q 127 322 127 265 l 127 265 q 127 203 145 157 q 163 111 197 86 q 230 60 274 60 l 274 60 q 316 60 340 73 q 363 85 377 106 l 377 106 q 394 132 399 177 q 404 221 404 265 l 404 265 l 404 280 q 404 367 426 420 q 447 472 488 506 l 488 506 q 527 538 575 552 q 623 566 684 566 z"},"ഷ":{"ha":1149,"x_min":32,"x_max":1078,"o":"m 229 346 l 229 346 q 297 346 341 321 q 384 295 406 256 q 427 216 427 173 l 427 173 q 427 133 414 102 q 401 71 382 57 l 382 57 l 357 70 l 677 70 l 692 0 l 328 0 l 299 52 q 319 72 331 97 q 343 121 343 158 l 343 158 q 343 212 314 244 q 285 276 229 276 l 229 276 q 194 276 169 261 q 143 245 130 220 q 116 195 116 164 l 116 164 q 116 130 130 102 q 144 74 175 51 l 175 51 l 129 -7 q 87 24 60 67 q 32 109 32 166 l 32 166 q 32 219 57 260 q 81 300 126 323 q 170 346 229 346 z m 1078 0 l 658 0 l 658 381 q 658 411 654 435 q 650 459 638 473 l 638 473 q 630 483 618 490 q 606 496 586 496 l 586 496 q 555 496 537 477 q 519 457 519 418 l 519 418 q 519 388 532 362 q 544 336 575 320 q 605 304 658 304 l 658 304 l 683 304 q 745 304 793 326 q 841 348 878 385 q 915 421 944 465 q 972 509 994 554 l 994 554 l 1078 554 l 1078 0 z m 590 566 l 590 566 q 623 566 649 559 q 674 551 693 536 l 693 536 q 719 516 732 482 q 744 447 744 386 l 744 386 l 744 70 l 992 70 l 992 329 q 992 346 993 369 q 993 392 994 413 q 995 434 997 445 l 997 445 l 999 443 q 972 378 926 332 q 879 285 820 260 q 761 235 696 235 l 696 235 l 665 235 q 584 235 533 260 q 481 284 457 326 q 433 367 433 417 l 433 417 q 433 455 451 489 q 469 523 504 545 q 539 566 590 566 z"},"സ":{"ha":1223,"x_min":39,"x_max":1184,"o":"m 627 566 l 627 566 q 671 566 707 552 q 743 537 768 507 l 768 507 q 782 491 794 469 q 805 447 812 408 q 819 369 819 303 l 819 303 l 819 269 q 819 214 825 173 q 830 132 846 106 l 846 106 q 860 85 883 73 q 906 60 949 60 l 949 60 q 994 60 1027 86 q 1060 111 1078 158 q 1096 204 1096 266 l 1096 266 q 1096 323 1081 368 q 1065 412 1038 446 q 1011 480 976 504 l 976 504 l 1029 566 q 1080 527 1115 483 q 1149 438 1167 385 q 1184 331 1184 263 l 1184 263 q 1184 177 1155 115 q 1126 53 1073 21 q 1019 -12 945 -12 l 945 -12 q 888 -12 849 5 q 810 21 784 51 l 784 51 q 765 73 754 100 q 742 126 737 162 q 732 197 732 246 l 732 246 l 732 295 q 732 365 725 402 q 717 439 699 460 l 699 460 q 686 477 666 486 q 645 494 615 494 l 615 494 q 587 494 566 484 q 545 474 531 457 l 531 457 q 514 436 506 404 q 498 371 498 309 l 498 309 l 498 0 l 412 0 l 412 292 q 412 348 408 381 q 404 414 390 436 l 390 436 q 373 465 347 480 q 320 494 284 494 l 284 494 q 238 494 203 468 q 167 441 147 396 q 127 350 127 292 l 127 292 q 127 232 144 187 q 160 142 187 110 q 214 78 247 55 l 247 55 l 189 -8 q 146 27 112 69 q 78 110 59 165 q 39 219 39 292 l 39 292 q 39 368 68 430 q 97 492 153 529 q 208 566 288 566 l 288 566 q 353 566 392 541 q 431 515 459 472 l 459 472 l 454 473 q 482 520 525 543 q 568 566 627 566 z"},"ഹ":{"ha":1190,"x_min":32,"x_max":1151,"o":"m 229 346 l 229 346 q 297 346 341 321 q 384 295 406 256 q 427 216 427 173 l 427 173 q 427 133 414 102 q 401 71 382 57 l 382 57 l 357 70 l 676 70 l 691 0 l 328 0 l 299 52 q 319 72 331 97 q 343 121 343 158 l 343 158 q 343 212 314 244 q 285 276 229 276 l 229 276 q 194 276 169 261 q 143 245 130 220 q 116 195 116 164 l 116 164 q 116 130 130 102 q 144 74 175 51 l 175 51 l 129 -7 q 87 24 60 67 q 32 109 32 166 l 32 166 q 32 219 57 260 q 81 300 126 323 q 170 346 229 346 z m 856 566 l 856 566 q 931 566 987 544 q 1042 522 1079 483 q 1115 444 1133 392 q 1151 340 1151 281 l 1151 281 q 1151 211 1130 157 q 1109 102 1073 61 q 1037 20 990 -9 l 990 -9 l 940 54 q 973 74 1001 104 q 1029 134 1046 176 q 1062 218 1062 271 l 1062 271 q 1062 337 1038 387 q 1013 437 967 466 q 921 494 854 494 l 854 494 q 788 494 741 465 q 694 435 669 385 q 644 335 644 273 l 644 273 q 644 222 658 183 q 671 144 697 114 q 722 83 757 59 l 757 59 l 719 0 l 686 0 l 638 64 q 617 89 598 120 q 579 151 567 191 q 555 230 555 278 l 555 278 q 555 339 575 392 q 594 444 633 483 q 671 522 727 544 q 783 566 856 566 z"},"ഺ":{"ha":773,"x_min":21,"x_max":756,"o":"m 118 70 l 756 70 l 756 0 l 476 0 l 476 -202 l 388 -202 l 388 0 l 65 0 l 21 49 l 214 559 l 294 534 l 118 70 z"},"഻":{"ha":0,"x_min":-314,"x_max":-242,"o":"m -314 586 l -314 864 l -242 864 l -242 586 l -314 586 z"},"഼":{"ha":0,"x_min":-246,"x_max":25,"o":"m -246 721 l -246 721 q -246 776 -209 814 q -172 851 -111 851 l -111 851 q -49 851 -12 814 q 25 777 25 721 l 25 721 q 25 666 -12 629 q -49 591 -111 591 l -111 591 q -173 591 -209 629 q -246 666 -246 721 z m -175 722 l -175 722 q -175 694 -158 675 q -142 656 -111 656 l -111 656 q -79 656 -62 675 q -46 694 -46 722 l -46 722 q -46 749 -62 768 q -79 786 -111 786 l -111 786 q -142 786 -158 768 q -175 749 -175 722 z"},"ഽ":{"ha":466,"x_min":-87,"x_max":553,"o":"m 378 792 l 378 792 q 428 792 463 773 q 498 754 521 721 q 543 688 553 646 l 553 646 l 466 629 q 459 655 448 676 q 437 697 421 710 q 404 722 377 722 l 377 722 q 352 722 334 713 q 315 703 303 685 l 303 685 q 290 665 284 632 q 277 598 277 535 l 277 535 l 277 5 q 277 -56 267 -104 q 256 -153 227 -188 l 227 -188 q 205 -215 171 -229 q 137 -244 87 -244 l 87 -244 q 38 -244 3 -224 q -32 -205 -54 -171 q -76 -138 -87 -97 l -87 -97 l 0 -81 q 8 -107 19 -128 q 29 -149 46 -161 q 62 -174 89 -174 l 89 -174 q 115 -174 133 -164 q 151 -155 163 -137 l 163 -137 q 177 -117 183 -86 q 188 -56 188 0 l 188 0 l 188 529 q 188 609 198 654 q 208 699 236 733 l 236 733 q 257 759 294 776 q 330 792 378 792 z"},"ാ":{"ha":504,"x_min":17,"x_max":463,"o":"m 463 279 l 463 279 q 463 221 452 169 q 440 117 413 76 q 386 35 342 12 q 297 -12 231 -12 l 231 -12 q 180 -12 143 5 q 105 21 80 48 q 54 75 39 107 q 24 139 17 169 l 17 169 l 104 186 q 111 159 125 129 q 138 99 164 79 q 189 58 230 58 l 230 58 q 283 58 315 86 q 346 114 361 164 q 375 213 375 278 l 375 278 q 375 343 361 392 q 346 441 315 469 q 284 496 235 496 l 235 496 q 196 496 170 476 q 144 455 129 426 q 114 397 107 370 l 107 370 l 21 387 q 30 419 47 451 q 63 482 89 508 q 115 534 153 550 q 190 566 241 566 l 241 566 q 303 566 346 543 q 388 519 414 479 q 440 438 452 387 q 463 335 463 279 z"},"ി":{"ha":228,"x_min":-211,"x_max":157,"o":"m -34 843 l -34 843 q 4 843 33 835 q 61 827 83 810 l 83 810 q 111 789 127 761 q 143 732 150 687 q 157 641 157 567 l 157 567 l 157 0 l 71 0 l 71 542 q 71 594 69 632 q 66 670 60 697 q 53 723 41 739 l 41 739 q 29 755 12 764 q -6 773 -32 773 l -32 773 q -54 773 -75 764 q -97 754 -111 734 q -125 713 -125 678 l -125 678 q -125 669 -123 660 q -122 650 -121 641 l -121 641 l -205 626 q -207 638 -209 651 q -211 663 -211 674 l -211 674 q -211 731 -186 769 q -162 806 -121 825 q -81 843 -34 843 z"},"ീ":{"ha":228,"x_min":-287,"x_max":157,"o":"m -109 843 l -109 843 q -67 843 -23 835 q 20 827 59 803 l 59 803 q 116 768 137 706 q 157 644 157 542 l 157 542 l 157 0 l 71 0 l 71 525 q 71 565 70 596 q 68 627 64 652 q 59 677 50 696 l 50 696 q 28 746 -12 763 q -53 779 -117 779 l -117 779 q -141 779 -162 771 q -183 762 -196 746 q -209 730 -209 706 l -209 706 q -209 682 -194 664 q -179 645 -145 645 l -145 645 q -107 645 -92 666 q -77 686 -77 711 l -77 711 q -77 734 -87 756 q -97 777 -116 790 l -116 790 l -24 770 q -16 760 -11 743 q -7 726 -7 706 l -7 706 q -7 672 -20 643 q -34 614 -65 596 q -96 578 -149 578 l -149 578 q -185 578 -216 593 q -248 608 -267 637 q -287 666 -287 708 l -287 708 q -287 747 -266 778 q -245 808 -205 826 q -165 843 -109 843 z"},"ു":{"ha":332,"x_min":-26,"x_max":335,"o":"m 155 -227 l 155 -227 q 71 -227 23 -178 q -26 -130 -26 -53 l -26 -53 q -26 -2 -3 37 q 20 76 61 98 q 102 120 154 120 l 154 120 q 208 120 249 99 q 289 78 312 40 q 335 1 335 -53 l 335 -53 q 335 -106 312 -145 q 289 -184 249 -205 q 208 -227 155 -227 z m 155 -161 l 155 -161 q 196 -161 225 -134 q 253 -107 253 -53 l 253 -53 q 253 0 225 27 q 197 54 154 54 l 154 54 q 112 54 84 27 q 56 0 56 -54 l 56 -54 q 56 -106 85 -133 q 113 -161 155 -161 z m 104 566 l 104 566 q 164 566 199 544 q 233 521 248 483 q 262 445 262 400 l 262 400 q 262 339 245 256 q 227 172 199 84 l 199 84 l 119 99 q 144 185 159 258 q 174 330 174 395 l 174 395 q 174 437 158 466 q 141 494 94 494 l 94 494 q 78 494 62 492 q 45 489 34 486 l 34 486 l 17 555 q 33 560 56 563 q 79 566 104 566 z"},"ൂ":{"ha":332,"x_min":-26,"x_max":335,"o":"m 154 -227 l 154 -227 q 70 -227 22 -178 q -26 -130 -26 -53 l -26 -53 q -26 -2 -3 37 q 20 76 61 98 q 101 120 154 120 l 154 120 q 207 120 248 99 q 289 78 312 40 q 335 1 335 -53 l 335 -53 q 335 -106 312 -145 q 289 -184 248 -205 q 207 -227 154 -227 z m 153 57 l 153 57 q 106 57 73 30 q 40 2 40 -54 l 40 -54 q 40 -109 73 -136 q 105 -164 154 -164 l 154 -164 q 201 -164 235 -136 q 268 -108 268 -53 l 268 -53 q 268 2 235 30 q 201 57 153 57 z m 154 -98 l 154 -98 q 97 -98 69 -65 q 41 -33 41 19 l 41 19 q 41 36 52 55 q 62 74 81 97 l 81 97 l 124 68 q 106 61 98 47 q 90 33 90 21 l 90 21 q 90 5 98 -6 q 105 -18 120 -24 q 134 -30 155 -30 l 155 -30 q 174 -30 188 -24 q 201 -18 209 -6 q 217 5 217 21 l 217 21 q 217 31 210 43 q 202 55 185 63 l 185 63 l 228 97 q 249 73 259 57 q 269 40 269 18 l 269 18 q 269 -11 258 -37 q 247 -64 222 -81 q 197 -98 154 -98 z m 104 566 l 104 566 q 164 566 199 544 q 233 521 248 483 q 262 445 262 400 l 262 400 q 262 339 245 256 q 227 172 199 84 l 199 84 l 119 99 q 144 185 159 258 q 174 330 174 395 l 174 395 q 174 437 158 466 q 141 494 94 494 l 94 494 q 78 494 62 492 q 45 489 34 486 l 34 486 l 17 555 q 33 560 56 563 q 79 566 104 566 z"},"ൃ":{"ha":243,"x_min":-144,"x_max":237,"o":"m 31 -316 l 31 -316 q -17 -316 -56 -299 q -96 -282 -120 -249 q -144 -216 -144 -169 l -144 -169 q -144 -104 -98 -66 q -52 -29 21 -29 l 21 -29 q 68 -29 112 -46 q 155 -63 198 -104 l 198 -104 l 175 -164 q 139 -129 103 -114 q 67 -99 27 -99 l 27 -99 q -12 -99 -36 -117 q -61 -135 -61 -173 l -61 -173 q -61 -209 -36 -227 q -11 -246 32 -246 l 32 -246 q 68 -246 96 -233 q 123 -221 139 -194 q 154 -167 154 -124 l 154 -124 q 154 -87 145 -50 q 136 -14 123 22 q 109 57 96 88 l 96 88 q 76 137 61 188 q 45 239 45 300 l 45 300 q 45 365 67 432 q 88 499 119 554 l 119 554 l 210 554 q 183 507 166 466 q 149 425 141 386 q 133 347 133 305 l 133 305 q 133 247 148 200 q 162 152 180 106 l 180 106 q 196 67 209 30 q 222 -7 230 -44 q 237 -81 237 -122 l 237 -122 q 237 -190 208 -233 q 179 -276 132 -296 q 85 -316 31 -316 z"},"ൄ":{"ha":243,"x_min":-264,"x_max":237,"o":"m -19 -316 l -19 -316 q -94 -316 -149 -299 q -204 -282 -234 -246 q -264 -210 -264 -153 l -264 -153 q -264 -102 -231 -69 q -199 -37 -146 -37 l -146 -37 q -112 -37 -90 -50 q -69 -64 -58 -87 l -58 -87 l -64 -86 q -50 -62 -29 -49 q -8 -37 24 -37 l 24 -37 q 58 -37 79 -49 q 99 -61 110 -79 q 120 -97 124 -116 q 127 -136 127 -151 l 127 -151 l 127 -176 l 59 -176 l 59 -166 q 59 -132 50 -117 q 41 -102 17 -102 l 17 -102 q -11 -102 -19 -119 q -27 -137 -27 -165 l -27 -165 l -27 -176 l -96 -176 l -96 -166 q -96 -135 -104 -118 q -112 -102 -139 -102 l -139 -102 q -161 -102 -173 -116 q -186 -130 -186 -156 l -186 -156 q -186 -205 -142 -225 q -98 -246 -18 -246 l -18 -246 q 56 -246 104 -217 q 151 -189 151 -125 l 151 -125 q 151 -89 143 -52 q 134 -16 121 20 q 108 56 95 87 l 95 87 q 75 136 60 188 q 45 240 45 300 l 45 300 q 45 365 67 432 q 88 499 119 554 l 119 554 l 210 554 q 183 507 166 466 q 149 425 141 386 q 133 347 133 305 l 133 305 q 133 247 147 200 q 161 153 180 107 l 180 107 q 196 68 209 30 q 222 -8 230 -45 q 237 -83 237 -122 l 237 -122 q 237 -190 203 -233 q 168 -276 110 -296 q 52 -316 -19 -316 z"},"െ":{"ha":715,"x_min":39,"x_max":676,"o":"m 237 -12 l 237 -12 q 185 -12 140 14 q 94 40 67 95 q 39 149 39 232 l 39 232 q 39 310 65 372 q 90 434 136 477 q 181 520 242 543 q 303 566 374 566 l 374 566 q 452 566 509 544 q 566 522 603 483 q 640 444 658 392 q 676 340 676 281 l 676 281 q 676 211 655 157 q 634 102 598 61 q 562 20 515 -9 l 515 -9 l 466 54 q 499 74 527 104 q 554 134 571 176 q 587 218 587 271 l 587 271 q 587 339 562 389 q 537 439 489 467 q 440 494 370 494 l 370 494 q 298 494 242 460 q 185 425 153 365 q 120 305 120 228 l 120 228 q 120 171 135 133 q 150 95 177 77 q 204 58 240 58 l 240 58 q 265 58 284 70 q 303 81 314 104 q 325 126 325 158 l 325 158 q 325 206 299 232 q 272 258 231 258 l 231 258 q 192 258 157 239 q 122 219 93 187 l 93 187 l 77 248 q 107 284 152 306 q 196 328 245 328 l 245 328 q 294 328 331 309 q 367 290 388 254 q 408 217 408 165 l 408 165 q 408 110 387 70 q 366 30 328 9 q 289 -12 237 -12 z"},"േ":{"ha":595,"x_min":39,"x_max":558,"o":"m 364 -12 l 364 -12 q 300 -12 242 5 q 183 22 138 58 q 92 93 66 149 q 39 204 39 281 l 39 281 q 39 355 66 409 q 93 463 140 498 q 186 533 245 550 q 303 566 366 566 l 366 566 q 432 566 475 549 q 517 531 538 501 q 558 470 558 431 l 558 431 q 558 388 539 359 q 520 330 489 315 q 457 300 421 300 l 421 300 q 368 300 336 319 q 304 337 291 368 q 277 398 277 432 l 277 432 q 277 452 283 469 q 288 486 294 498 l 294 498 l 387 517 q 368 503 358 480 q 348 457 348 434 l 348 434 q 348 412 364 389 q 379 365 417 365 l 417 365 q 450 365 465 385 q 480 404 480 429 l 480 429 q 480 467 453 485 q 425 503 389 503 l 389 503 q 375 503 362 503 q 349 503 335 501 l 335 501 q 270 496 224 468 q 177 440 153 393 q 128 345 128 280 l 128 280 q 128 217 153 167 q 178 117 224 88 q 270 58 332 54 l 332 54 q 344 53 357 52 q 369 51 380 51 l 380 51 q 406 51 428 59 q 449 67 462 84 q 475 101 475 127 l 475 127 q 475 152 460 171 q 445 190 411 190 l 411 190 q 373 190 358 167 q 342 144 342 121 l 342 121 q 342 97 352 75 q 362 53 381 39 l 381 39 l 289 58 q 282 69 277 87 q 271 104 271 126 l 271 126 q 271 160 285 189 q 299 218 330 237 q 361 255 412 255 l 412 255 q 450 255 482 241 q 514 226 534 197 q 553 168 553 125 l 553 125 q 553 86 533 55 q 512 24 470 6 q 428 -12 364 -12 z"},"ൈ":{"ha":1430,"x_min":39,"x_max":1391,"o":"m 237 -12 l 237 -12 q 185 -12 140 14 q 94 40 67 95 q 39 149 39 232 l 39 232 q 39 310 65 372 q 90 434 136 477 q 181 520 242 543 q 303 566 374 566 l 374 566 q 452 566 509 544 q 566 522 603 483 q 640 444 658 392 q 676 340 676 281 l 676 281 q 676 211 655 157 q 634 102 598 61 q 562 20 515 -9 l 515 -9 l 466 54 q 499 74 527 104 q 554 134 571 176 q 587 218 587 271 l 587 271 q 587 339 562 389 q 537 439 489 467 q 440 494 370 494 l 370 494 q 298 494 242 460 q 185 425 153 365 q 120 305 120 228 l 120 228 q 120 171 135 133 q 150 95 177 77 q 204 58 240 58 l 240 58 q 265 58 284 70 q 303 81 314 104 q 325 126 325 158 l 325 158 q 325 206 299 232 q 272 258 231 258 l 231 258 q 192 258 157 239 q 122 219 93 187 l 93 187 l 77 248 q 107 284 152 306 q 196 328 245 328 l 245 328 q 294 328 331 309 q 367 290 388 254 q 408 217 408 165 l 408 165 q 408 110 387 70 q 366 30 328 9 q 289 -12 237 -12 z m 952 -12 l 952 -12 q 900 -12 855 14 q 809 40 782 95 q 754 149 754 232 l 754 232 q 754 310 780 372 q 805 434 851 477 q 896 520 957 543 q 1018 566 1089 566 l 1089 566 q 1167 566 1224 544 q 1281 522 1318 483 q 1355 444 1373 392 q 1391 340 1391 281 l 1391 281 q 1391 211 1370 157 q 1349 102 1313 61 q 1277 20 1230 -9 l 1230 -9 l 1181 54 q 1214 74 1242 104 q 1269 134 1286 176 q 1302 218 1302 271 l 1302 271 q 1302 339 1277 389 q 1252 439 1204 467 q 1155 494 1085 494 l 1085 494 q 1013 494 957 460 q 900 425 868 365 q 835 305 835 228 l 835 228 q 835 171 850 133 q 865 95 892 77 q 919 58 955 58 l 955 58 q 980 58 999 70 q 1018 81 1029 104 q 1040 126 1040 158 l 1040 158 q 1040 206 1014 232 q 987 258 946 258 l 946 258 q 907 258 872 239 q 837 219 808 187 l 808 187 l 792 248 q 822 284 867 306 q 911 328 960 328 l 960 328 q 1009 328 1046 309 q 1082 290 1103 254 q 1123 217 1123 165 l 1123 165 q 1123 110 1102 70 q 1081 30 1043 9 q 1004 -12 952 -12 z"},"ൊ":{"ha":1427,"x_min":39,"x_max":1386,"o":"m 237 -12 l 237 -12 q 185 -12 140 14 q 94 40 67 95 q 39 149 39 232 l 39 232 q 39 310 65 372 q 90 434 136 477 q 181 520 242 543 q 303 566 374 566 l 374 566 q 452 566 509 544 q 566 522 603 483 q 640 444 658 392 q 676 340 676 281 l 676 281 q 676 211 655 157 q 634 102 598 61 q 562 20 515 -9 l 515 -9 l 466 54 q 499 74 527 104 q 554 134 571 176 q 587 218 587 271 l 587 271 q 587 339 562 389 q 537 439 489 467 q 440 494 370 494 l 370 494 q 298 494 242 460 q 185 425 153 365 q 120 305 120 228 l 120 228 q 120 171 135 133 q 150 95 177 77 q 204 58 240 58 l 240 58 q 265 58 284 70 q 303 81 314 104 q 325 126 325 158 l 325 158 q 325 206 299 232 q 272 258 231 258 l 231 258 q 192 258 157 239 q 122 219 93 187 l 93 187 l 77 248 q 107 284 152 306 q 196 328 245 328 l 245 328 q 294 328 331 309 q 367 290 388 254 q 408 217 408 165 l 408 165 q 408 110 387 70 q 366 30 328 9 q 289 -12 237 -12 z m 822 232 l 822 232 q 796 232 778 248 q 760 264 760 300 l 760 300 q 760 338 778 353 q 796 368 822 368 l 822 368 q 848 368 866 353 q 884 338 884 300 l 884 300 q 884 264 866 248 q 848 232 822 232 z m 1386 279 l 1386 279 q 1386 221 1375 169 q 1363 117 1336 76 q 1309 35 1265 12 q 1220 -12 1154 -12 l 1154 -12 q 1103 -12 1066 5 q 1028 21 1003 48 q 977 75 962 107 q 947 139 940 169 l 940 169 l 1027 186 q 1034 159 1048 129 q 1061 99 1087 79 q 1112 58 1153 58 l 1153 58 q 1206 58 1238 86 q 1269 114 1284 164 q 1298 213 1298 278 l 1298 278 q 1298 343 1284 392 q 1269 441 1238 469 q 1207 496 1158 496 l 1158 496 q 1119 496 1093 476 q 1067 455 1052 426 q 1037 397 1030 370 l 1030 370 l 944 387 q 953 419 970 451 q 986 482 1012 508 q 1038 534 1076 550 q 1113 566 1164 566 l 1164 566 q 1226 566 1269 543 q 1311 519 1337 479 q 1363 438 1375 387 q 1386 335 1386 279 z"},"ോ":{"ha":1292,"x_min":39,"x_max":1251,"o":"m 364 -12 l 364 -12 q 300 -12 242 5 q 183 22 138 58 q 92 93 66 149 q 39 204 39 281 l 39 281 q 39 355 66 409 q 93 463 140 498 q 186 533 245 550 q 303 566 366 566 l 366 566 q 432 566 475 549 q 517 531 538 501 q 558 470 558 431 l 558 431 q 558 388 539 359 q 520 330 489 315 q 457 300 421 300 l 421 300 q 368 300 336 319 q 304 337 291 368 q 277 398 277 432 l 277 432 q 277 452 283 469 q 288 486 294 498 l 294 498 l 387 517 q 368 503 358 480 q 348 457 348 434 l 348 434 q 348 412 364 389 q 379 365 417 365 l 417 365 q 450 365 465 385 q 480 404 480 429 l 480 429 q 480 467 453 485 q 425 503 389 503 l 389 503 q 375 503 362 503 q 349 503 335 501 l 335 501 q 270 496 224 468 q 177 440 153 393 q 128 345 128 280 l 128 280 q 128 217 153 167 q 178 117 224 88 q 270 58 332 54 l 332 54 q 344 53 357 52 q 369 51 380 51 l 380 51 q 406 51 428 59 q 449 67 462 84 q 475 101 475 127 l 475 127 q 475 152 460 171 q 445 190 411 190 l 411 190 q 373 190 358 167 q 342 144 342 121 l 342 121 q 342 97 352 75 q 362 53 381 39 l 381 39 l 289 58 q 282 69 277 87 q 271 104 271 126 l 271 126 q 271 160 285 189 q 299 218 330 237 q 361 255 412 255 l 412 255 q 450 255 482 241 q 514 226 534 197 q 553 168 553 125 l 553 125 q 553 86 533 55 q 512 24 470 6 q 428 -12 364 -12 z m 688 232 l 688 232 q 662 232 644 248 q 626 264 626 300 l 626 300 q 626 338 644 353 q 662 368 688 368 l 688 368 q 714 368 732 353 q 750 338 750 300 l 750 300 q 750 264 732 248 q 714 232 688 232 z m 1251 279 l 1251 279 q 1251 221 1240 169 q 1228 117 1201 76 q 1174 35 1130 12 q 1085 -12 1019 -12 l 1019 -12 q 968 -12 931 5 q 893 21 868 48 q 842 75 827 107 q 812 139 805 169 l 805 169 l 892 186 q 899 159 913 129 q 926 99 952 79 q 977 58 1018 58 l 1018 58 q 1071 58 1103 86 q 1134 114 1149 164 q 1163 213 1163 278 l 1163 278 q 1163 343 1149 392 q 1134 441 1103 469 q 1072 496 1023 496 l 1023 496 q 984 496 958 476 q 932 455 917 426 q 902 397 895 370 l 895 370 l 809 387 q 818 419 835 451 q 851 482 877 508 q 903 534 941 550 q 978 566 1029 566 l 1029 566 q 1091 566 1134 543 q 1176 519 1202 479 q 1228 438 1240 387 q 1251 335 1251 279 z"},"ൌ":{"ha":1684,"x_min":39,"x_max":1645,"o":"m 237 -12 l 237 -12 q 185 -12 140 14 q 94 40 67 95 q 39 149 39 232 l 39 232 q 39 310 65 372 q 90 434 136 477 q 181 520 242 543 q 303 566 374 566 l 374 566 q 452 566 509 544 q 566 522 603 483 q 640 444 658 392 q 676 340 676 281 l 676 281 q 676 211 655 157 q 634 102 598 61 q 562 20 515 -9 l 515 -9 l 466 54 q 499 74 527 104 q 554 134 571 176 q 587 218 587 271 l 587 271 q 587 339 562 389 q 537 439 489 467 q 440 494 370 494 l 370 494 q 298 494 242 460 q 185 425 153 365 q 120 305 120 228 l 120 228 q 120 171 135 133 q 150 95 177 77 q 204 58 240 58 l 240 58 q 265 58 284 70 q 303 81 314 104 q 325 126 325 158 l 325 158 q 325 206 299 232 q 272 258 231 258 l 231 258 q 192 258 157 239 q 122 219 93 187 l 93 187 l 77 248 q 107 284 152 306 q 196 328 245 328 l 245 328 q 294 328 331 309 q 367 290 388 254 q 408 217 408 165 l 408 165 q 408 110 387 70 q 366 30 328 9 q 289 -12 237 -12 z m 822 232 l 822 232 q 796 232 778 248 q 760 264 760 300 l 760 300 q 760 338 778 353 q 796 368 822 368 l 822 368 q 848 368 866 353 q 884 338 884 300 l 884 300 q 884 264 866 248 q 848 232 822 232 z m 1440 566 l 1440 566 q 1505 566 1551 534 q 1596 501 1621 442 q 1645 383 1645 305 l 1645 305 q 1645 204 1614 133 q 1582 62 1521 25 q 1460 -12 1372 -12 l 1372 -12 q 1300 -12 1250 2 q 1199 15 1149 40 l 1149 40 l 1192 108 q 1230 86 1270 73 q 1310 60 1367 60 l 1367 60 q 1440 60 1482 93 q 1523 125 1540 181 q 1557 236 1557 305 l 1557 305 q 1557 404 1525 449 q 1492 494 1438 494 l 1438 494 q 1407 494 1386 483 q 1365 471 1353 450 l 1353 450 q 1343 433 1341 409 q 1338 384 1338 340 l 1338 340 l 1338 258 l 1252 258 l 1252 333 q 1252 374 1248 404 q 1244 434 1233 451 l 1233 451 q 1220 474 1200 484 q 1179 494 1153 494 l 1153 494 q 1100 494 1074 460 q 1047 425 1047 372 l 1047 372 q 1047 339 1051 316 q 1055 292 1062 271 l 1062 271 l 981 254 q 971 282 966 316 q 961 350 961 378 l 961 378 q 961 429 982 472 q 1002 515 1045 541 q 1087 566 1151 566 l 1151 566 q 1204 566 1240 544 q 1275 521 1299 480 l 1299 480 l 1286 481 q 1315 526 1353 546 q 1390 566 1440 566 z"},"്":{"ha":0,"x_min":-292,"x_max":70,"o":"m -111 591 l -111 591 q -169 591 -209 612 q -250 632 -271 668 q -292 704 -292 752 l -292 752 q -292 770 -289 788 q -286 806 -282 818 l -282 818 l -208 804 q -211 794 -212 781 q -214 767 -214 755 l -214 755 q -214 720 -200 699 q -186 677 -162 668 q -139 659 -111 659 l -111 659 q -81 659 -58 668 q -35 677 -21 699 q -8 720 -8 755 l -8 755 q -8 767 -9 781 q -11 794 -14 804 l -14 804 l 60 818 q 64 806 67 788 q 70 770 70 752 l 70 752 q 70 704 49 668 q 28 632 -12 612 q -53 591 -111 591 z"},"ൎ":{"ha":0,"x_min":-339,"x_max":-236,"o":"m -339 809 l -236 809 l -245 627 l -329 627 l -339 809 z"},"൏":{"ha":1244,"x_min":47,"x_max":1200,"o":"m 582 566 l 582 566 q 666 566 716 539 q 766 512 800 469 l 800 469 l 790 477 q 820 524 862 545 q 904 566 965 566 l 965 566 q 1042 566 1095 526 q 1147 486 1174 412 q 1200 337 1200 231 l 1200 231 q 1200 78 1140 -24 q 1080 -127 953 -178 q 826 -230 624 -230 l 624 -230 q 485 -230 386 -206 q 287 -182 221 -139 q 155 -96 117 -37 q 79 21 63 90 q 47 159 47 234 l 47 234 q 47 311 66 385 q 84 458 118 532 l 118 532 l 196 500 q 162 434 148 367 q 133 299 133 238 l 133 238 q 133 180 144 123 q 154 66 183 16 q 212 -34 267 -72 q 321 -110 409 -131 q 496 -153 625 -153 l 625 -153 q 759 -153 853 -127 q 946 -102 1004 -52 q 1061 -2 1087 71 q 1113 143 1113 236 l 1113 236 q 1113 319 1095 377 q 1077 434 1044 464 q 1011 494 964 494 l 964 494 q 923 494 897 480 q 871 465 854 436 l 854 436 q 842 414 837 382 q 832 350 832 285 l 832 285 l 832 0 l 746 0 l 746 305 q 746 365 736 400 q 725 435 702 456 l 702 456 q 681 475 654 485 q 626 494 581 494 l 581 494 q 509 494 457 461 q 404 427 376 370 q 347 312 347 239 l 347 239 l 347 228 q 347 172 362 134 q 377 96 404 77 q 430 58 466 58 l 466 58 q 491 58 510 70 q 529 81 540 103 q 551 125 551 157 l 551 157 q 551 207 525 233 q 499 258 457 258 l 457 258 q 418 258 383 238 q 348 218 319 186 l 319 186 l 304 248 q 333 284 378 306 q 423 328 472 328 l 472 328 q 520 328 557 309 q 593 290 614 254 q 634 217 634 165 l 634 165 q 634 110 613 70 q 592 30 554 9 q 516 -12 464 -12 l 464 -12 q 412 -12 367 14 q 321 40 294 96 q 266 152 266 241 l 266 241 q 266 347 309 419 q 351 491 423 529 q 494 566 582 566 z"},"ൔ":{"ha":646,"x_min":60,"x_max":637,"o":"m 179 792 l 179 792 q 215 792 242 783 q 268 774 285 760 l 285 760 q 311 739 320 711 q 328 683 328 639 l 328 639 l 328 516 q 328 466 335 427 q 341 387 360 352 q 379 317 416 278 l 416 278 l 441 253 q 475 216 523 172 q 570 128 637 69 l 637 69 l 602 0 l 60 0 l 60 268 q 60 320 69 362 q 77 403 95 436 q 112 468 138 493 l 138 493 q 175 528 223 547 q 271 566 330 566 l 330 566 q 390 566 430 541 q 469 516 489 477 q 509 437 509 392 l 509 392 q 509 354 495 313 q 480 271 451 232 l 451 232 l 433 213 q 411 186 383 159 q 355 132 322 104 q 288 75 249 45 l 249 45 l 247 65 q 276 67 304 69 q 332 70 360 70 l 360 70 l 473 70 q 489 70 507 70 q 525 70 542 69 q 559 68 573 65 l 573 65 l 537 62 q 491 102 454 137 q 416 171 387 202 l 387 202 l 370 220 q 320 272 293 316 q 265 360 255 405 q 244 449 244 502 l 244 502 l 244 628 q 244 660 239 678 q 233 695 219 705 l 219 705 q 210 713 197 717 q 184 720 166 720 l 166 720 q 144 720 124 717 q 104 714 91 709 l 91 709 l 72 778 q 89 783 118 788 q 147 792 179 792 z m 146 249 l 146 68 l 151 68 q 205 106 248 140 q 291 173 324 205 q 356 237 378 268 l 378 268 l 394 285 q 409 311 415 337 q 421 363 421 388 l 421 388 q 421 420 409 444 q 396 468 372 482 q 347 496 311 496 l 311 496 q 262 496 232 475 q 201 453 181 418 l 181 418 q 170 399 162 375 q 154 350 150 319 q 146 288 146 249 l 146 249 z"},"ൕ":{"ha":1033,"x_min":39,"x_max":991,"o":"m 680 -12 l 680 -12 q 644 -12 613 -8 q 581 -4 553 5 q 524 14 496 29 l 496 29 q 490 32 481 36 q 471 40 466 43 l 466 43 q 411 82 377 128 q 343 174 328 227 q 312 280 312 338 l 312 338 q 312 378 322 412 q 332 446 349 473 l 349 473 l 356 484 q 376 511 403 529 q 429 547 460 557 q 491 566 525 566 l 525 566 q 624 566 679 503 q 734 439 734 332 l 734 332 q 734 272 717 220 q 700 167 669 125 q 637 82 593 53 l 593 53 q 585 47 578 43 q 570 38 560 33 l 560 33 q 518 9 472 -1 q 426 -12 376 -12 l 376 -12 q 296 -12 234 14 q 171 40 128 87 q 84 133 62 197 q 39 260 39 335 l 39 335 q 39 405 66 457 q 92 508 141 537 q 190 566 256 566 l 256 566 q 314 566 354 546 q 394 525 421 490 l 421 490 l 362 431 q 349 457 324 477 q 298 496 257 496 l 257 496 q 219 496 190 478 q 160 460 143 424 q 126 387 126 333 l 126 333 q 126 261 155 198 q 184 135 241 96 q 298 56 383 56 l 383 56 q 404 56 427 59 q 450 61 471 66 l 471 66 q 482 70 493 74 q 504 78 514 82 l 514 82 q 549 100 579 135 q 609 169 628 219 q 647 269 647 332 l 647 332 q 647 392 630 428 q 613 464 585 480 q 557 496 525 496 l 525 496 q 487 496 459 477 q 430 458 415 422 q 399 385 399 332 l 399 332 q 399 277 416 227 q 433 177 465 139 q 496 100 537 78 l 537 78 q 547 74 555 74 q 563 73 573 69 l 573 69 q 590 64 615 60 q 639 56 678 56 l 678 56 q 761 56 811 85 q 860 114 882 160 q 904 206 904 257 l 904 257 q 904 305 891 342 q 878 379 858 410 q 837 440 815 468 l 815 468 q 784 508 764 538 q 743 568 733 598 q 722 627 722 663 l 722 663 q 722 689 735 719 q 748 749 781 771 q 813 792 873 792 l 873 792 q 906 792 935 788 q 964 783 981 778 l 981 778 l 961 709 q 948 714 929 717 q 909 720 886 720 l 886 720 q 844 720 827 699 q 809 678 809 651 l 809 651 q 809 630 820 609 q 830 587 849 563 q 868 538 892 507 l 892 507 q 922 470 944 432 q 966 393 979 352 q 991 311 991 266 l 991 266 q 991 214 978 171 q 965 127 940 94 q 914 60 876 36 q 838 12 789 0 q 740 -12 680 -12 z"},"ൖ":{"ha":725,"x_min":37,"x_max":688,"o":"m 210 156 l 210 156 q 210 128 222 106 q 233 84 258 72 q 283 59 324 59 l 324 59 q 386 59 405 79 q 423 98 423 126 l 423 126 q 423 164 410 196 q 397 227 380 258 q 363 288 350 323 q 337 358 337 404 l 337 404 q 337 444 355 481 q 372 518 411 542 q 449 566 512 566 l 512 566 q 576 566 615 540 q 653 514 671 474 q 688 434 688 392 l 688 392 q 688 325 653 270 q 618 215 551 183 q 484 150 386 150 l 386 150 l 362 150 q 307 150 266 158 q 225 166 189 182 l 189 182 l 159 192 q 118 214 91 246 q 64 277 51 317 q 37 356 37 401 l 37 401 q 37 439 49 481 q 61 522 91 566 l 91 566 l 158 529 q 137 492 130 463 q 123 433 123 401 l 123 401 q 123 356 136 326 q 148 296 173 273 l 173 273 l 202 255 q 231 236 274 228 q 316 219 362 219 l 362 219 l 389 219 q 462 219 509 243 q 556 267 579 308 q 602 348 602 397 l 602 397 q 602 436 583 467 q 563 497 510 497 l 510 497 q 478 497 458 485 q 437 472 428 451 q 418 430 418 403 l 418 403 q 418 363 432 329 q 445 294 462 262 q 479 230 493 196 q 506 162 506 123 l 506 123 q 506 101 499 78 q 491 54 472 34 q 452 13 416 1 q 379 -12 322 -12 l 322 -12 q 264 -12 221 7 q 177 26 153 66 q 129 106 129 168 l 129 168 q 129 217 144 263 q 159 308 183 353 q 206 397 232 441 l 232 441 q 261 491 279 527 q 296 562 304 590 q 312 618 312 643 l 312 643 q 312 676 295 698 q 277 720 233 720 l 233 720 q 212 720 193 717 q 174 714 161 709 l 161 709 l 142 778 q 159 783 187 788 q 215 792 246 792 l 246 792 q 307 792 340 770 q 373 748 386 717 q 399 686 399 658 l 399 658 q 399 629 395 605 q 390 580 379 553 q 367 526 348 491 q 328 455 298 404 l 298 404 q 282 376 266 349 q 250 321 238 291 q 225 261 218 228 q 210 195 210 156 z"},"ൗ":{"ha":759,"x_min":36,"x_max":720,"o":"m 515 566 l 515 566 q 580 566 626 534 q 671 501 696 442 q 720 383 720 305 l 720 305 q 720 204 689 133 q 657 62 596 25 q 535 -12 447 -12 l 447 -12 q 375 -12 325 2 q 274 15 224 40 l 224 40 l 267 108 q 305 86 345 73 q 385 60 442 60 l 442 60 q 515 60 557 93 q 598 125 615 181 q 632 236 632 305 l 632 305 q 632 404 600 449 q 567 494 513 494 l 513 494 q 482 494 461 483 q 440 471 428 450 l 428 450 q 418 433 416 409 q 413 384 413 340 l 413 340 l 413 258 l 327 258 l 327 333 q 327 374 323 404 q 319 434 308 451 l 308 451 q 295 474 275 484 q 254 494 228 494 l 228 494 q 175 494 149 460 q 122 425 122 372 l 122 372 q 122 339 126 316 q 130 292 137 271 l 137 271 l 56 254 q 46 282 41 316 q 36 350 36 378 l 36 378 q 36 429 57 472 q 77 515 120 541 q 162 566 226 566 l 226 566 q 279 566 315 544 q 350 521 374 480 l 374 480 l 361 481 q 390 526 428 546 q 465 566 515 566 z"},"൘":{"ha":1223,"x_min":39,"x_max":1179,"o":"m 606 -12 l 606 -12 q 553 -12 509 12 q 465 36 436 81 l 436 81 l 443 81 q 417 38 379 13 q 341 -12 278 -12 l 278 -12 q 207 -12 153 22 q 99 55 69 117 q 39 178 39 262 l 39 262 q 39 335 59 390 q 78 444 112 486 q 146 528 189 563 l 189 563 l 247 499 q 214 476 187 444 q 160 412 144 368 q 127 323 127 262 l 127 262 q 127 200 147 155 q 167 109 201 85 q 234 60 276 60 l 276 60 q 312 60 336 73 q 359 86 375 114 l 375 114 q 389 138 393 174 q 397 210 397 262 l 397 262 l 397 554 l 483 554 l 483 246 q 483 184 492 151 q 500 118 519 97 l 519 97 q 533 80 557 70 q 581 60 606 60 l 606 60 q 637 60 659 69 q 681 78 695 94 l 695 94 q 714 115 722 149 q 729 182 729 237 l 729 237 l 729 554 l 815 554 l 815 262 l 775 82 q 753 39 712 14 q 671 -12 606 -12 z m 941 -12 l 941 -12 q 884 -12 843 9 q 802 30 768 82 l 768 82 l 739 237 l 739 544 l 815 544 l 815 262 q 815 203 819 172 q 823 140 835 117 l 835 117 q 851 89 877 75 q 903 60 940 60 l 940 60 q 985 60 1019 87 q 1053 113 1073 170 q 1092 227 1092 320 l 1092 320 q 1092 395 1076 463 q 1060 530 1026 587 q 991 643 936 684 q 881 725 804 748 q 726 770 623 770 l 623 770 q 550 770 490 763 q 430 755 380 741 l 380 741 l 367 814 q 405 824 446 831 q 486 837 531 840 q 575 843 624 843 l 624 843 q 740 843 831 818 q 921 793 987 747 q 1053 700 1096 636 q 1138 571 1159 492 q 1179 413 1179 322 l 1179 322 q 1179 205 1151 131 q 1122 57 1069 23 q 1016 -12 941 -12 z"},"൙":{"ha":1131,"x_min":39,"x_max":1111,"o":"m 364 566 l 364 566 q 447 566 510 542 q 572 517 614 473 q 655 429 676 370 q 697 311 697 242 l 697 242 q 697 153 669 97 q 641 40 593 14 q 545 -12 485 -12 l 485 -12 q 422 -12 381 12 q 339 35 319 73 q 298 110 298 152 l 298 152 q 298 199 318 233 q 337 267 371 288 l 371 288 q 394 302 420 311 q 445 320 484 324 q 523 328 583 328 l 583 328 l 653 328 l 653 258 l 591 258 q 522 258 486 253 q 449 247 422 230 l 422 230 q 403 218 394 200 q 384 181 384 152 l 384 152 q 384 109 410 84 q 435 58 482 58 l 482 58 q 524 58 554 77 q 583 96 599 138 q 614 179 614 247 l 614 247 q 614 263 612 279 q 610 295 607 310 l 607 310 l 607 320 q 596 371 566 411 q 535 450 485 472 q 435 494 364 494 l 364 494 q 292 494 239 468 q 186 442 157 393 q 128 344 128 273 l 128 273 q 128 221 143 180 q 158 139 186 108 q 213 77 250 54 l 250 54 l 200 -9 q 157 16 121 56 q 84 95 62 151 q 39 206 39 277 l 39 277 q 39 333 58 385 q 77 437 117 478 q 156 519 218 543 q 279 566 364 566 z m 944 554 l 944 554 q 1003 554 1040 534 q 1077 513 1094 481 q 1111 448 1111 410 l 1111 410 q 1111 368 1097 340 q 1082 312 1056 294 l 1056 294 q 1037 281 1015 273 q 993 265 965 262 q 937 258 900 258 l 900 258 l 633 258 l 633 328 l 896 328 q 931 328 953 332 q 974 335 989 343 l 989 343 q 1006 351 1016 367 q 1025 383 1025 407 l 1025 407 q 1025 442 1005 464 q 985 485 945 485 l 945 485 q 900 485 877 461 q 854 436 854 392 l 854 392 q 854 358 865 332 q 876 306 895 281 l 895 281 l 811 276 q 796 302 784 334 q 771 365 771 405 l 771 405 q 771 452 794 486 q 817 519 857 537 q 896 554 944 554 z"},"൚":{"ha":1071,"x_min":39,"x_max":1011,"o":"m 702 566 l 702 566 q 781 566 838 548 q 894 529 931 494 l 931 494 q 959 469 977 437 q 994 405 1003 363 q 1011 321 1011 266 l 1011 266 l 1011 0 l 499 0 l 499 68 q 567 119 620 175 q 673 231 704 289 q 734 347 734 402 l 734 402 q 734 430 726 451 q 717 471 700 483 q 683 495 655 495 l 655 495 q 612 495 580 472 q 547 449 530 418 l 530 418 q 511 383 505 348 q 499 313 499 257 l 499 257 l 499 230 l 412 230 l 412 291 q 412 349 408 382 q 404 414 390 436 l 390 436 q 373 465 347 480 q 321 494 284 494 l 284 494 q 238 494 203 468 q 167 441 147 396 q 127 350 127 292 l 127 292 q 127 232 144 187 q 160 142 187 110 q 214 78 247 55 l 247 55 l 189 -8 q 146 27 112 69 q 78 110 59 165 q 39 219 39 292 l 39 292 q 39 373 70 435 q 100 496 156 531 q 212 566 288 566 l 288 566 q 345 566 382 547 q 418 527 441 498 q 464 468 480 436 l 480 436 l 446 436 q 471 482 509 511 q 546 539 595 553 q 643 566 702 566 z m 820 393 l 820 393 q 820 334 793 277 q 766 220 716 163 q 666 105 597 45 l 597 45 l 595 65 q 624 67 652 69 q 680 70 708 70 l 708 70 l 925 70 l 925 249 q 925 323 911 372 q 896 421 863 451 q 830 480 776 494 l 776 494 l 778 501 q 797 479 809 455 q 820 430 820 393 z"},"൛":{"ha":958,"x_min":71,"x_max":919,"o":"m 617 -12 l 617 -12 q 543 -12 488 10 q 432 32 396 71 q 359 110 341 162 q 323 214 323 273 l 323 273 q 323 326 336 367 q 349 408 371 441 q 392 474 417 501 l 417 501 l 441 484 l 158 484 l 158 0 l 71 0 l 71 554 l 491 554 l 525 495 q 496 475 470 446 q 444 417 428 377 q 412 337 412 283 l 412 283 q 412 218 436 168 q 460 117 507 89 q 554 60 621 60 l 621 60 q 687 60 734 90 q 781 119 806 169 q 830 219 830 281 l 830 281 q 830 333 815 374 q 800 415 773 446 q 746 477 708 500 l 708 500 l 758 563 q 801 539 838 499 q 874 459 897 404 q 919 348 919 277 l 919 277 q 919 216 900 163 q 880 110 842 71 q 803 32 747 10 q 690 -12 617 -12 z"},"൜":{"ha":1518,"x_min":39,"x_max":1478,"o":"m 913 566 l 913 566 q 961 566 999 554 q 1036 541 1063 509 l 1063 509 q 1077 493 1088 470 q 1099 447 1106 406 q 1113 365 1113 294 l 1113 294 l 1113 269 q 1113 214 1119 173 q 1124 132 1140 106 l 1140 106 q 1154 85 1177 73 q 1200 60 1243 60 l 1243 60 q 1288 60 1321 86 q 1354 111 1372 158 q 1390 204 1390 266 l 1390 266 q 1390 323 1375 368 q 1359 412 1332 446 q 1305 480 1270 504 l 1270 504 l 1323 566 q 1374 527 1409 483 q 1443 438 1461 385 q 1478 331 1478 263 l 1478 263 q 1478 177 1449 115 q 1420 53 1367 21 q 1313 -12 1239 -12 l 1239 -12 q 1182 -12 1143 5 q 1104 21 1078 51 l 1078 51 q 1059 73 1048 100 q 1036 126 1031 161 q 1026 196 1026 243 l 1026 243 l 1026 295 q 1026 365 1019 403 q 1012 440 994 461 l 994 461 q 979 478 959 486 q 938 494 915 494 l 915 494 q 891 494 870 487 q 849 480 834 462 l 834 462 q 816 440 809 401 q 802 362 802 285 l 802 285 l 802 260 q 802 191 796 150 q 789 108 778 85 q 767 62 753 46 l 753 46 q 727 15 690 2 q 653 -12 604 -12 l 604 -12 q 556 -12 519 1 q 481 14 454 45 l 454 45 q 441 61 430 84 q 418 107 411 149 q 404 190 404 260 l 404 260 l 404 285 q 404 341 399 382 q 394 423 377 448 l 377 448 q 364 469 341 482 q 318 494 274 494 l 274 494 q 230 494 197 469 q 163 443 145 398 q 127 352 127 290 l 127 290 q 127 233 142 188 q 157 143 185 110 q 212 76 247 51 l 247 51 l 194 -11 q 144 29 109 73 q 74 117 57 171 q 39 225 39 292 l 39 292 q 39 378 68 440 q 97 501 151 534 q 205 566 278 566 l 278 566 q 335 566 374 550 q 413 533 439 503 l 439 503 q 458 481 470 455 q 481 428 486 393 q 491 358 491 308 l 491 308 l 491 259 q 491 189 498 152 q 505 114 523 93 l 523 93 q 538 76 559 68 q 580 60 602 60 l 602 60 q 626 60 647 67 q 668 74 683 92 l 683 92 q 701 113 708 151 q 715 189 715 258 l 715 258 l 715 294 q 715 364 722 405 q 728 446 740 469 q 751 492 764 508 l 764 508 q 790 540 827 553 q 864 566 913 566 z"},"൝":{"ha":2010,"x_min":10,"x_max":1971,"o":"m 784 566 l 784 566 q 832 566 870 554 q 907 541 934 509 l 934 509 q 948 493 959 470 q 970 447 977 406 q 984 365 984 294 l 984 294 l 984 259 q 984 189 991 152 q 998 114 1016 93 l 1016 93 q 1031 76 1052 68 q 1073 60 1095 60 l 1095 60 q 1119 60 1140 67 q 1161 74 1176 92 l 1176 92 q 1194 113 1201 151 q 1208 189 1208 258 l 1208 258 l 1208 294 q 1208 364 1215 405 q 1221 446 1233 469 q 1244 492 1257 508 l 1257 508 q 1283 540 1320 553 q 1357 566 1406 566 l 1406 566 q 1454 566 1492 554 q 1529 541 1556 509 l 1556 509 q 1570 493 1581 470 q 1592 447 1599 406 q 1606 365 1606 294 l 1606 294 l 1606 269 q 1606 214 1612 173 q 1617 132 1633 106 l 1633 106 q 1647 85 1670 73 q 1693 60 1736 60 l 1736 60 q 1781 60 1814 86 q 1847 111 1865 158 q 1883 204 1883 266 l 1883 266 q 1883 323 1868 368 q 1852 412 1825 446 q 1798 480 1763 504 l 1763 504 l 1816 566 q 1867 527 1902 483 q 1936 438 1954 385 q 1971 331 1971 263 l 1971 263 q 1971 177 1942 115 q 1913 53 1860 21 q 1806 -12 1732 -12 l 1732 -12 q 1675 -12 1636 5 q 1597 21 1571 51 l 1571 51 q 1552 73 1541 100 q 1529 126 1524 161 q 1519 196 1519 243 l 1519 243 l 1519 295 q 1519 365 1512 403 q 1505 440 1487 461 l 1487 461 q 1472 478 1452 486 q 1431 494 1408 494 l 1408 494 q 1384 494 1363 487 q 1342 480 1327 462 l 1327 462 q 1309 440 1302 401 q 1295 362 1295 285 l 1295 285 l 1295 260 q 1295 191 1289 150 q 1282 108 1271 85 q 1260 62 1246 46 l 1246 46 q 1220 15 1183 2 q 1146 -12 1097 -12 l 1097 -12 q 1049 -12 1012 1 q 974 14 947 45 l 947 45 q 934 61 923 84 q 911 107 904 149 q 897 190 897 260 l 897 260 l 897 295 q 897 365 890 403 q 883 440 865 461 l 865 461 q 850 478 830 486 q 809 494 786 494 l 786 494 q 762 494 741 487 q 720 480 705 462 l 705 462 q 687 440 680 401 q 673 362 673 285 l 673 285 l 673 241 q 673 167 662 125 q 650 83 624 53 l 624 53 q 596 20 556 4 q 516 -12 457 -12 l 457 -12 q 391 -12 348 19 q 304 50 279 104 l 279 104 l 301 84 q 284 57 261 35 q 237 13 203 1 q 169 -12 120 -12 l 120 -12 q 91 -12 65 -5 q 38 1 10 15 l 10 15 l 39 82 q 57 72 78 66 q 98 60 123 60 l 123 60 q 162 60 189 75 q 215 90 231 119 l 231 119 q 244 142 248 173 q 251 203 251 262 l 251 262 l 251 554 l 338 554 l 338 237 q 338 183 346 149 q 353 115 372 94 l 372 94 q 386 78 408 69 q 430 60 459 60 l 459 60 q 495 60 520 74 q 544 88 557 107 l 557 107 q 573 131 580 171 q 586 211 586 287 l 586 287 l 586 294 q 586 364 593 405 q 599 446 611 469 q 622 492 635 508 l 635 508 q 661 540 698 553 q 735 566 784 566 z"},"൞":{"ha":1375,"x_min":39,"x_max":1347,"o":"m 364 566 l 364 566 q 447 566 510 542 q 572 517 614 473 q 655 429 676 370 q 697 311 697 242 l 697 242 q 697 153 669 97 q 641 40 593 14 q 545 -12 485 -12 l 485 -12 q 422 -12 381 12 q 339 35 319 73 q 298 110 298 152 l 298 152 q 298 199 318 233 q 337 267 371 288 l 371 288 q 394 302 420 311 q 445 320 484 324 q 523 328 583 328 l 583 328 l 643 328 l 643 258 l 591 258 q 522 258 486 253 q 449 247 422 230 l 422 230 q 403 218 394 200 q 384 181 384 152 l 384 152 q 384 109 410 84 q 435 58 482 58 l 482 58 q 524 58 554 77 q 583 96 599 138 q 614 179 614 247 l 614 247 q 614 263 612 279 q 610 295 607 310 l 607 310 l 607 320 q 596 371 566 411 q 535 450 485 472 q 435 494 364 494 l 364 494 q 292 494 239 468 q 186 442 157 393 q 128 344 128 273 l 128 273 q 128 221 143 180 q 158 139 186 108 q 213 77 250 54 l 250 54 l 200 -9 q 157 16 121 56 q 84 95 62 151 q 39 206 39 277 l 39 277 q 39 333 58 385 q 77 437 117 478 q 156 519 218 543 q 279 566 364 566 z m 1150 208 l 1150 208 q 1083 208 1039 234 q 995 259 974 299 q 952 339 952 381 l 952 381 q 952 422 965 453 q 978 484 997 497 l 997 497 l 1022 485 l 808 485 l 842 496 q 856 480 866 456 q 875 431 875 403 l 875 403 q 875 345 847 314 q 819 282 772 270 q 725 258 667 258 l 667 258 l 630 258 l 630 328 l 663 328 q 697 328 727 333 q 756 337 774 354 q 792 371 792 407 l 792 407 q 792 433 785 450 q 778 466 764 485 l 764 485 l 788 554 l 1051 554 l 1080 502 q 1060 483 1048 458 q 1036 433 1036 396 l 1036 396 q 1036 342 1065 310 q 1094 278 1150 278 l 1150 278 q 1186 278 1211 294 q 1236 309 1250 335 q 1263 360 1263 390 l 1263 390 q 1263 424 1250 453 q 1236 481 1204 503 l 1204 503 l 1250 561 q 1292 530 1320 488 q 1347 445 1347 388 l 1347 388 q 1347 336 1323 295 q 1298 254 1254 231 q 1210 208 1150 208 z"},"ൟ":{"ha":1341,"x_min":30,"x_max":1311,"o":"m 30 268 l 30 268 q 30 323 67 361 q 104 398 165 398 l 165 398 q 227 398 264 361 q 301 324 301 268 l 301 268 q 301 213 264 176 q 227 138 165 138 l 165 138 q 103 138 67 176 q 30 213 30 268 z m 101 269 l 101 269 q 101 241 118 222 q 134 203 165 203 l 165 203 q 197 203 214 222 q 230 241 230 269 l 230 269 q 230 296 214 315 q 197 333 165 333 l 165 333 q 134 333 118 315 q 101 296 101 269 z m 1040 268 l 1040 268 q 1040 323 1077 361 q 1114 398 1175 398 l 1175 398 q 1237 398 1274 361 q 1311 324 1311 268 l 1311 268 q 1311 213 1274 176 q 1237 138 1175 138 l 1175 138 q 1113 138 1077 176 q 1040 213 1040 268 z m 1111 269 l 1111 269 q 1111 241 1128 222 q 1144 203 1175 203 l 1175 203 q 1207 203 1224 222 q 1240 241 1240 269 l 1240 269 q 1240 296 1224 315 q 1207 333 1175 333 l 1175 333 q 1144 333 1128 315 q 1111 296 1111 269 z m 666 566 l 666 566 q 749 566 812 542 q 874 518 916 474 q 957 430 978 371 q 999 312 999 242 l 999 242 q 999 153 971 97 q 943 40 895 14 q 847 -12 787 -12 l 787 -12 q 722 -12 679 17 q 636 46 615 94 q 593 141 593 196 l 593 196 q 593 291 644 348 q 695 404 781 404 l 781 404 q 837 404 879 375 q 920 346 944 301 q 968 256 970 206 l 970 206 l 945 209 q 938 240 919 269 q 899 297 869 316 q 838 334 798 334 l 798 334 q 735 334 706 297 q 677 259 677 198 l 677 198 q 677 156 689 125 q 700 93 724 76 q 748 58 787 58 l 787 58 q 828 58 857 77 q 885 96 901 138 q 916 180 916 248 l 916 248 q 916 250 915 270 q 913 290 909 310 l 909 310 q 908 315 908 323 q 908 331 906 335 l 906 335 q 897 378 867 414 q 837 450 787 472 q 737 494 666 494 l 666 494 q 594 494 541 468 q 488 442 459 393 q 430 344 430 273 l 430 273 q 430 221 445 180 q 460 139 488 108 q 515 77 552 54 l 552 54 l 502 -9 q 459 16 423 56 q 386 95 364 151 q 341 206 341 277 l 341 277 q 341 333 360 385 q 379 437 419 478 q 458 519 520 543 q 581 566 666 566 z"},"ൠ":{"ha":871,"x_min":37,"x_max":834,"o":"m 656 566 l 656 566 q 737 566 786 512 q 834 457 834 362 l 834 362 q 834 293 810 242 q 786 190 739 152 l 739 152 q 717 134 687 121 q 657 108 614 100 l 614 100 l 465 103 l 403 104 l 282 96 q 239 101 209 110 q 178 119 154 135 l 154 135 q 97 173 67 231 q 37 288 37 359 l 37 359 q 37 423 60 470 q 83 516 126 541 q 168 566 228 566 l 228 566 q 285 566 322 543 q 359 520 377 483 q 395 446 395 403 l 395 403 q 395 362 378 328 q 360 293 326 272 q 291 251 238 251 l 238 251 q 192 251 160 265 q 127 278 105 299 q 82 319 65 340 l 65 340 l 88 400 q 103 382 120 364 q 136 345 161 333 q 186 320 225 320 l 225 320 q 273 320 294 345 q 314 370 314 405 l 314 405 q 314 443 292 470 q 270 496 224 496 l 224 496 q 187 496 163 480 q 138 463 127 433 q 115 403 115 362 l 115 362 q 115 350 116 339 q 117 327 120 315 l 120 315 l 115 301 q 132 257 157 229 q 182 200 218 184 q 253 168 303 162 q 353 156 420 156 l 420 156 l 444 156 q 518 156 571 163 q 623 170 659 186 q 694 202 717 230 q 740 258 756 301 l 756 301 l 751 315 q 753 325 755 337 q 756 348 756 353 l 756 353 q 756 402 744 434 q 732 465 709 481 q 686 496 652 496 l 652 496 q 603 496 580 470 q 557 443 557 405 l 557 405 q 557 370 578 345 q 599 320 646 320 l 646 320 q 684 320 709 332 q 734 343 752 361 q 769 378 783 394 l 783 394 l 806 338 q 790 318 767 298 q 744 278 712 265 q 679 251 633 251 l 633 251 q 579 251 544 273 q 509 294 493 330 q 476 365 476 405 l 476 405 q 476 447 495 484 q 514 521 554 544 q 594 566 656 566 z m 439 -213 l 439 -213 q 316 -213 234 -194 q 152 -176 111 -134 q 70 -93 70 -25 l 70 -25 q 70 19 96 50 q 121 80 164 99 q 207 117 261 126 q 315 134 373 134 l 373 134 l 493 134 q 553 134 609 126 q 664 117 707 99 q 750 80 776 49 q 801 17 801 -28 l 801 -28 q 801 -87 765 -128 q 729 -170 650 -191 q 570 -213 439 -213 z m 438 -145 l 438 -145 q 538 -145 599 -132 q 659 -119 687 -92 q 714 -66 714 -28 l 714 -28 q 714 9 692 32 q 670 55 632 67 q 594 79 544 84 q 494 88 437 88 l 437 88 l 429 88 q 353 88 292 79 q 230 69 194 44 q 157 19 157 -27 l 157 -27 q 157 -68 185 -94 q 212 -120 274 -132 q 336 -145 438 -145 z m 521 46 l 521 46 q 555 46 576 34 q 596 22 607 4 q 617 -14 621 -33 q 624 -53 624 -68 l 624 -68 l 624 -93 l 556 -93 l 556 -83 q 556 -49 547 -34 q 537 -19 513 -19 l 513 -19 q 488 -19 479 -34 q 469 -50 469 -80 l 469 -80 l 469 -93 l 401 -93 l 401 -81 q 401 -52 392 -35 q 383 -19 357 -19 l 357 -19 q 332 -19 324 -35 q 315 -52 315 -83 l 315 -83 l 315 -93 l 247 -93 l 247 -68 q 247 -53 251 -33 q 254 -14 265 4 q 275 22 296 34 q 316 46 350 46 l 350 46 q 382 46 403 35 q 423 23 436 1 l 436 1 q 449 23 470 35 q 490 46 521 46 z"},"ൡ":{"ha":1320,"x_min":42,"x_max":1292,"o":"m 358 566 l 358 566 q 442 566 493 539 q 544 511 583 460 l 583 460 l 594 388 l 608 229 l 608 0 l 522 0 l 522 306 q 522 365 512 400 q 501 435 478 456 l 478 456 q 457 475 430 485 q 402 494 357 494 l 357 494 q 285 494 233 461 q 180 427 152 370 q 123 312 123 239 l 123 239 l 123 228 q 123 172 138 134 q 153 96 180 77 q 206 58 242 58 l 242 58 q 267 58 286 70 q 305 81 316 103 q 327 125 327 157 l 327 157 q 327 207 301 233 q 275 258 233 258 l 233 258 q 194 258 159 238 q 124 218 95 186 l 95 186 l 80 248 q 109 284 154 306 q 199 328 248 328 l 248 328 q 296 328 333 309 q 369 290 390 254 q 410 217 410 165 l 410 165 q 410 110 389 70 q 368 30 330 9 q 292 -12 240 -12 l 240 -12 q 188 -12 143 14 q 97 40 70 96 q 42 152 42 241 l 42 241 q 42 347 85 419 q 127 491 199 529 q 270 566 358 566 z m 790 566 l 790 566 q 876 566 939 537 q 1002 507 1042 454 q 1082 401 1098 329 l 1098 329 q 1104 304 1107 278 q 1109 252 1109 224 l 1109 224 q 1109 143 1083 91 q 1056 38 1009 13 q 961 -12 896 -12 l 896 -12 q 831 -12 790 15 q 748 42 729 85 q 709 127 709 171 l 709 171 q 709 269 779 326 q 848 382 977 382 l 977 382 q 985 382 996 382 q 1006 381 1018 379 l 1018 379 l 1048 377 q 1124 365 1179 326 q 1233 286 1263 226 q 1292 165 1292 91 l 1292 91 q 1292 23 1272 -31 q 1251 -85 1211 -123 q 1171 -161 1113 -181 q 1054 -201 979 -201 l 979 -201 q 927 -201 884 -192 q 841 -183 811 -172 l 811 -172 l 839 -102 q 867 -114 903 -121 q 938 -128 981 -128 l 981 -128 q 1043 -128 1086 -111 q 1128 -95 1155 -65 q 1182 -35 1194 5 q 1206 45 1206 92 l 1206 92 q 1206 144 1193 183 q 1179 222 1152 250 q 1125 278 1085 296 l 1085 296 l 1047 302 q 1029 308 1010 311 q 991 313 974 313 l 974 313 q 917 313 877 298 q 837 282 816 251 q 795 220 795 171 l 795 171 q 795 144 805 118 q 815 92 839 75 q 862 58 900 58 l 900 58 q 962 58 994 100 q 1026 142 1026 225 l 1026 225 q 1026 252 1023 280 q 1020 307 1013 332 l 1013 332 l 1008 354 q 994 394 967 426 q 940 457 897 476 q 854 494 791 494 l 791 494 q 756 494 722 484 q 687 474 661 451 l 661 451 q 645 436 633 416 q 621 395 615 365 q 608 334 608 288 l 608 288 l 608 204 l 553 450 q 580 487 615 513 q 649 539 693 553 q 737 566 790 566 z"},"ൢ":{"ha":0,"x_min":-808,"x_max":-34,"o":"m -579 19 l -579 19 q -522 19 -485 1 q -449 -17 -418 -46 l -418 -46 l -390 -162 l -390 -332 l -464 -332 l -464 -169 q -464 -122 -473 -99 q -483 -76 -502 -63 l -502 -63 q -516 -52 -536 -46 q -556 -41 -582 -41 l -582 -41 q -616 -41 -649 -53 q -683 -66 -706 -89 q -730 -112 -736 -144 l -736 -144 q -737 -152 -738 -161 q -740 -170 -740 -181 l -740 -181 q -740 -235 -717 -256 q -695 -278 -665 -278 l -665 -278 q -633 -278 -616 -261 q -599 -245 -599 -213 l -599 -213 q -599 -183 -617 -167 q -635 -151 -663 -151 l -663 -151 q -694 -151 -720 -166 q -747 -181 -769 -204 l -769 -204 l -779 -157 q -756 -131 -722 -111 q -689 -92 -651 -92 l -651 -92 q -592 -92 -560 -126 q -528 -161 -528 -214 l -528 -214 q -528 -268 -563 -302 q -599 -337 -667 -337 l -667 -337 q -733 -337 -770 -292 q -808 -248 -808 -172 l -808 -172 q -808 -115 -778 -72 q -748 -29 -696 -5 q -644 19 -579 19 z m -263 17 l -263 17 q -191 17 -140 -8 q -89 -33 -61 -77 q -34 -121 -34 -180 l -34 -180 q -34 -262 -77 -299 q -120 -337 -185 -337 l -185 -337 q -230 -337 -261 -319 q -292 -301 -307 -271 q -323 -242 -323 -209 l -323 -209 q -323 -170 -307 -141 q -291 -113 -262 -97 q -233 -82 -194 -82 l -194 -82 q -154 -82 -126 -100 q -99 -119 -84 -148 q -70 -177 -68 -209 l -68 -209 l -85 -207 q -92 -183 -115 -162 q -138 -141 -175 -141 l -175 -141 q -215 -141 -234 -160 q -253 -179 -253 -208 l -253 -208 q -253 -239 -236 -258 q -220 -277 -184 -277 l -184 -277 q -145 -277 -124 -253 q -104 -230 -104 -175 l -104 -175 q -104 -173 -105 -162 q -106 -151 -108 -141 l -108 -141 l -110 -127 q -114 -108 -132 -88 q -151 -69 -183 -55 q -216 -41 -262 -41 l -262 -41 q -296 -41 -319 -48 q -342 -56 -357 -70 l -357 -70 q -377 -91 -383 -117 q -390 -144 -390 -183 l -390 -183 l -456 -166 q -456 -114 -437 -73 q -418 -32 -375 -7 q -333 17 -263 17 z"},"ൣ":{"ha":0,"x_min":-808,"x_max":80,"o":"m -579 19 l -579 19 q -522 19 -485 1 q -449 -17 -418 -46 l -418 -46 l -390 -162 l -390 -332 l -464 -332 l -464 -169 q -464 -122 -473 -99 q -483 -76 -502 -63 l -502 -63 q -516 -52 -536 -46 q -556 -41 -582 -41 l -582 -41 q -616 -41 -649 -53 q -683 -66 -706 -89 q -730 -112 -736 -144 l -736 -144 q -737 -152 -738 -161 q -740 -170 -740 -181 l -740 -181 q -740 -235 -717 -256 q -695 -278 -665 -278 l -665 -278 q -633 -278 -616 -261 q -599 -245 -599 -213 l -599 -213 q -599 -183 -617 -167 q -635 -151 -663 -151 l -663 -151 q -694 -151 -720 -166 q -747 -181 -769 -204 l -769 -204 l -779 -157 q -756 -131 -722 -111 q -689 -92 -651 -92 l -651 -92 q -592 -92 -560 -126 q -528 -161 -528 -214 l -528 -214 q -528 -268 -563 -302 q -599 -337 -667 -337 l -667 -337 q -733 -337 -770 -292 q -808 -248 -808 -172 l -808 -172 q -808 -115 -778 -72 q -748 -29 -696 -5 q -644 19 -579 19 z m -263 17 l -263 17 q -200 17 -148 -4 q -97 -26 -67 -70 q -37 -115 -37 -184 l -37 -184 q -37 -237 -56 -271 q -75 -305 -108 -321 q -142 -337 -185 -337 l -185 -337 q -230 -337 -261 -321 q -292 -306 -307 -278 q -323 -251 -323 -216 l -323 -216 q -323 -155 -280 -118 q -237 -81 -143 -81 l -143 -81 q -132 -81 -119 -81 q -106 -82 -92 -83 l -92 -83 q -51 -90 -11 -110 q 28 -131 54 -170 q 80 -209 80 -272 l 80 -272 q 80 -294 74 -322 q 68 -350 55 -367 l 55 -367 l -10 -340 q -1 -326 3 -306 q 7 -286 7 -270 l 7 -270 q 7 -222 -14 -191 q -36 -160 -68 -147 l -68 -147 l -86 -146 q -99 -143 -111 -141 q -124 -140 -138 -140 l -138 -140 q -198 -140 -225 -162 q -253 -185 -253 -218 l -253 -218 q -253 -244 -237 -260 q -221 -277 -185 -277 l -185 -277 q -148 -277 -127 -254 q -107 -232 -107 -180 l -107 -180 q -107 -163 -109 -146 q -112 -130 -117 -116 l -117 -116 l -127 -96 q -139 -80 -158 -67 q -178 -55 -204 -48 q -230 -41 -262 -41 l -262 -41 q -296 -41 -319 -48 q -342 -56 -357 -70 l -357 -70 q -377 -91 -383 -117 q -390 -144 -390 -183 l -390 -183 l -456 -166 q -456 -128 -446 -94 q -436 -61 -413 -36 q -390 -11 -353 3 q -316 17 -263 17 z"},"൦":{"ha":576,"x_min":39,"x_max":537,"o":"m 288 43 l 288 43 q 211 43 155 74 q 99 104 69 158 q 39 212 39 283 l 39 283 q 39 354 71 408 q 102 461 158 491 q 214 521 287 521 l 287 521 q 361 521 418 492 q 474 463 506 410 q 537 356 537 283 l 537 283 q 537 211 506 157 q 474 103 418 73 q 362 43 288 43 z m 288 115 l 288 115 q 333 115 370 134 q 406 152 428 189 q 449 226 449 283 l 449 283 q 449 367 403 408 q 357 449 287 449 l 287 449 q 218 449 173 408 q 127 367 127 281 l 127 281 q 127 200 173 158 q 219 115 288 115 z"},"൧":{"ha":896,"x_min":11,"x_max":833,"o":"m 391 -129 l 391 -201 l 223 -201 q 166 -201 130 -193 q 93 -185 68 -170 l 68 -170 q 40 -153 26 -127 q 11 -101 11 -68 l 11 -68 q 11 -33 24 -5 q 36 22 64 40 l 64 40 q 79 50 97 57 q 115 63 140 67 q 165 70 200 70 l 200 70 l 441 70 l 453 0 l 223 0 q 181 0 161 -3 q 140 -6 128 -12 l 128 -12 q 112 -20 105 -33 q 97 -46 97 -62 l 97 -62 q 97 -94 121 -110 l 121 -110 q 134 -119 157 -124 q 179 -129 221 -129 l 221 -129 l 391 -129 z m 583 566 l 583 566 q 645 566 691 549 q 737 532 768 501 l 768 501 q 802 468 818 419 q 833 370 833 292 l 833 292 l 833 0 l 340 0 l 340 292 q 340 347 347 386 q 354 424 369 452 q 383 480 405 502 l 405 502 q 436 532 481 549 q 525 566 583 566 z m 584 494 l 584 494 q 547 494 519 483 q 490 471 470 451 l 470 451 q 449 429 438 392 q 426 354 426 279 l 426 279 l 426 70 l 747 70 l 747 271 q 747 345 735 387 q 723 429 701 451 l 701 451 q 681 471 653 483 q 625 494 584 494 z"},"൨":{"ha":859,"x_min":39,"x_max":842,"o":"m 341 566 l 341 566 q 415 566 471 544 q 526 522 563 483 q 599 444 617 392 q 635 340 635 281 l 635 281 q 635 228 622 187 q 609 146 588 114 q 567 81 541 53 l 541 53 l 517 70 l 842 70 l 842 0 l 467 0 l 433 59 q 462 79 488 108 q 514 137 530 178 q 546 218 546 271 l 546 271 q 546 337 522 387 q 498 437 452 466 q 405 494 337 494 l 337 494 q 271 494 225 465 q 178 435 153 385 q 128 335 128 273 l 128 273 q 128 221 143 180 q 158 139 186 108 q 213 77 250 54 l 250 54 l 200 -9 q 157 16 121 56 q 84 95 62 151 q 39 206 39 277 l 39 277 q 39 339 59 392 q 78 444 117 483 q 155 522 212 544 q 268 566 341 566 z"},"൩":{"ha":1083,"x_min":39,"x_max":1066,"o":"m 288 566 l 288 566 q 334 566 367 553 q 400 539 423 517 q 446 494 462 465 l 462 465 l 449 466 q 480 518 523 542 q 566 566 630 566 l 630 566 q 707 566 761 530 q 815 493 844 431 q 872 369 872 292 l 872 292 q 872 236 860 194 q 848 152 829 120 q 810 88 787 61 l 787 61 l 734 0 l 711 0 l 675 54 q 703 81 728 113 q 752 144 768 187 q 784 230 784 292 l 784 292 q 784 350 765 396 q 746 441 711 468 q 676 494 629 494 l 629 494 q 588 494 562 480 q 535 465 519 436 l 519 436 q 506 414 502 382 q 498 350 498 291 l 498 291 l 498 0 l 412 0 l 412 291 q 412 348 408 381 q 404 414 390 436 l 390 436 q 373 465 347 480 q 321 494 284 494 l 284 494 q 238 494 203 468 q 167 441 147 396 q 127 350 127 292 l 127 292 q 127 232 144 187 q 160 142 187 110 q 214 78 247 55 l 247 55 l 189 -8 q 146 27 112 69 q 78 110 59 165 q 39 219 39 292 l 39 292 q 39 373 70 435 q 100 496 156 531 q 212 566 288 566 z m 718 0 l 776 70 l 1066 70 l 1066 0 l 718 0 z"},"൪":{"ha":797,"x_min":39,"x_max":792,"o":"m 360 566 l 360 566 q 433 566 488 546 q 543 526 586 488 l 586 488 q 640 442 674 375 q 707 308 707 225 l 707 225 q 707 150 682 97 q 656 44 608 16 q 559 -12 490 -12 l 490 -12 q 424 -12 379 14 q 334 39 311 84 q 288 128 288 183 l 288 183 q 288 251 317 302 q 346 352 401 394 q 455 435 529 477 l 529 477 q 589 509 628 531 q 667 553 686 574 q 704 594 704 621 l 704 621 q 704 641 697 659 q 690 676 679 692 l 679 692 l 760 730 q 777 708 785 682 q 792 655 792 626 l 792 626 q 792 580 767 548 q 741 515 694 486 q 647 457 580 422 l 580 422 q 511 383 466 348 q 421 312 399 273 q 376 233 376 183 l 376 183 q 376 116 410 88 q 443 59 492 59 l 492 59 q 535 59 563 78 q 590 96 604 133 q 618 170 618 225 l 618 225 q 618 282 597 340 q 575 397 528 437 l 528 437 q 498 463 457 479 q 415 494 362 494 l 362 494 q 291 494 238 468 q 185 442 157 393 q 128 344 128 273 l 128 273 q 128 221 143 180 q 158 139 186 108 q 213 77 250 54 l 250 54 l 200 -9 q 157 16 121 56 q 84 95 62 151 q 39 206 39 277 l 39 277 q 39 333 58 385 q 77 437 116 478 q 155 519 216 543 q 276 566 360 566 z"},"൫":{"ha":971,"x_min":44,"x_max":927,"o":"m 496 723 l 496 723 q 607 723 688 690 q 769 657 822 597 q 875 536 901 454 q 927 372 927 273 l 927 273 q 927 203 913 132 q 898 60 855 -12 l 855 -12 l 778 29 q 799 62 813 104 q 826 146 832 192 q 838 237 838 278 l 838 278 q 838 355 818 422 q 797 489 755 540 q 713 591 648 620 q 583 649 493 649 l 493 649 q 384 649 303 602 q 222 554 178 466 q 133 377 133 253 l 133 253 q 133 185 148 121 q 163 57 197 7 q 230 -44 287 -74 q 343 -104 425 -104 l 425 -104 q 531 -104 581 -59 q 631 -15 631 61 l 631 61 q 631 104 613 139 q 595 174 560 195 q 524 216 470 216 l 470 216 l 457 216 l 457 286 l 483 286 q 520 286 549 293 q 578 300 595 317 l 595 317 q 607 328 613 344 q 619 360 619 379 l 619 379 q 619 423 588 447 q 557 471 499 471 l 499 471 q 441 471 404 444 q 367 417 350 372 q 332 327 332 272 l 332 272 q 332 205 354 146 q 376 86 418 40 l 418 40 l 344 -8 q 295 58 270 127 q 245 195 245 271 l 245 271 q 245 353 277 414 q 308 475 366 509 q 423 543 501 543 l 501 543 q 569 543 615 522 q 660 500 683 465 q 706 429 706 386 l 706 386 q 706 353 695 326 q 684 299 659 279 q 633 258 589 243 l 589 243 l 581 253 q 650 226 684 179 q 717 131 717 63 l 717 63 q 717 -16 682 -69 q 646 -123 581 -150 q 515 -178 423 -178 l 423 -178 q 310 -178 225 -127 q 139 -77 92 20 q 44 116 44 253 l 44 253 q 44 373 80 462 q 116 550 179 608 q 241 666 323 695 q 405 723 496 723 z"},"൬":{"ha":1223,"x_min":39,"x_max":1179,"o":"m 606 566 l 606 566 q 671 566 712 541 q 753 516 775 472 l 775 472 l 815 292 l 815 0 l 729 0 l 729 317 q 729 372 722 406 q 714 439 695 460 l 695 460 q 681 477 659 486 q 637 494 606 494 l 606 494 q 581 494 557 484 q 533 474 519 457 l 519 457 q 500 436 492 403 q 483 370 483 308 l 483 308 l 483 0 l 397 0 l 397 292 q 397 345 393 381 q 389 416 375 440 l 375 440 q 359 468 336 481 q 312 494 276 494 l 276 494 q 234 494 201 470 q 167 445 147 400 q 127 354 127 292 l 127 292 q 127 232 144 187 q 160 142 187 110 q 214 78 247 55 l 247 55 l 189 -9 q 146 26 112 68 q 78 110 59 165 q 39 219 39 292 l 39 292 q 39 377 69 438 q 99 499 153 533 q 207 566 278 566 l 278 566 q 341 566 379 541 q 417 516 443 473 l 443 473 l 436 473 q 465 518 509 542 q 553 566 606 566 z m 941 566 l 941 566 q 1053 566 1116 483 q 1179 400 1179 229 l 1179 229 q 1179 91 1142 -5 q 1105 -101 1026 -151 q 946 -201 818 -201 l 818 -201 q 789 -201 758 -199 q 727 -197 698 -191 l 698 -191 l 708 -119 q 731 -123 758 -125 q 785 -128 816 -128 l 816 -128 q 899 -128 952 -100 q 1005 -73 1036 -24 q 1066 24 1078 89 q 1090 153 1090 227 l 1090 227 q 1090 320 1071 379 q 1052 438 1019 466 q 985 494 940 494 l 940 494 q 903 494 877 480 q 851 466 835 437 l 835 437 q 823 415 819 383 q 815 351 815 292 l 815 292 l 815 10 l 739 10 l 739 317 l 768 472 q 802 524 843 545 q 884 566 941 566 z"},"൭":{"ha":743,"x_min":39,"x_max":699,"o":"m 374 566 l 374 566 q 457 566 519 541 q 580 516 620 469 q 660 422 680 355 q 699 288 699 205 l 699 205 q 699 114 677 39 q 654 -36 608 -89 q 561 -143 490 -172 q 418 -201 321 -201 l 321 -201 q 291 -201 260 -199 q 229 -197 199 -191 l 199 -191 l 208 -119 q 231 -123 260 -125 q 288 -128 319 -128 l 319 -128 q 403 -128 459 -101 q 515 -75 548 -28 q 581 18 596 79 q 610 139 610 207 l 610 207 q 610 347 548 421 q 486 494 370 494 l 370 494 q 298 494 242 460 q 185 425 153 367 q 120 309 120 237 l 120 237 l 120 225 q 120 171 135 134 q 150 96 177 77 q 204 58 239 58 l 239 58 q 265 58 284 70 q 303 82 314 105 q 325 127 325 158 l 325 158 q 325 206 299 232 q 272 258 231 258 l 231 258 q 197 258 166 243 q 135 227 109 201 l 109 201 l 77 248 q 107 284 152 306 q 196 328 245 328 l 245 328 q 294 328 331 309 q 367 290 388 254 q 408 217 408 165 l 408 165 q 408 110 387 70 q 366 30 328 9 q 289 -12 237 -12 l 237 -12 q 185 -12 140 14 q 94 40 67 95 q 39 149 39 232 l 39 232 q 39 336 84 411 q 128 485 204 526 q 280 566 374 566 z"},"൮":{"ha":958,"x_min":39,"x_max":887,"o":"m 341 566 l 341 566 q 415 566 471 544 q 526 522 563 483 q 599 444 617 392 q 635 340 635 281 l 635 281 q 635 228 622 187 q 609 146 588 114 q 567 81 541 53 l 541 53 l 517 70 l 801 70 l 801 554 l 887 554 l 887 129 l 817 0 l 467 0 l 433 59 q 462 79 488 108 q 514 137 530 178 q 546 218 546 271 l 546 271 q 546 337 522 387 q 498 437 452 466 q 405 494 337 494 l 337 494 q 271 494 225 465 q 178 435 153 385 q 128 335 128 273 l 128 273 q 128 221 143 180 q 158 139 186 108 q 213 77 250 54 l 250 54 l 200 -9 q 157 16 121 56 q 84 95 62 151 q 39 206 39 277 l 39 277 q 39 339 59 392 q 78 444 117 483 q 155 522 212 544 q 268 566 341 566 z m 555 -201 l 555 -201 q 528 -201 500 -199 q 471 -197 444 -191 l 444 -191 l 454 -119 q 474 -123 499 -125 q 524 -128 552 -128 l 552 -128 q 627 -128 675 -111 q 722 -95 749 -68 q 776 -41 788 -7 q 799 27 801 61 l 801 61 l 887 156 l 887 108 q 887 53 879 10 q 870 -33 853 -65 q 836 -98 809 -124 l 809 -124 q 769 -161 706 -181 q 643 -201 555 -201 z"},"൯":{"ha":1122,"x_min":39,"x_max":1119,"o":"m 288 566 l 288 566 q 332 566 366 554 q 400 542 426 518 q 452 494 472 457 l 472 457 l 499 227 l 499 0 l 412 0 l 412 282 q 412 347 408 381 q 404 414 390 436 l 390 436 q 373 465 347 480 q 321 494 284 494 l 284 494 q 238 494 203 468 q 167 441 147 396 q 127 350 127 292 l 127 292 q 127 232 144 187 q 160 142 187 110 q 214 78 247 55 l 247 55 l 189 -8 q 146 27 112 69 q 78 110 59 165 q 39 219 39 292 l 39 292 q 39 373 70 435 q 100 496 156 531 q 212 566 288 566 z m 685 566 l 685 566 q 759 566 815 546 q 870 526 913 488 l 913 488 q 967 442 1001 375 q 1034 308 1034 225 l 1034 225 q 1034 150 1009 97 q 983 44 935 16 q 886 -12 817 -12 l 817 -12 q 751 -12 706 14 q 661 39 638 84 q 615 128 615 183 l 615 183 q 615 251 644 302 q 673 352 728 394 q 782 435 856 477 l 856 477 q 916 509 955 531 q 993 553 1012 574 q 1031 594 1031 621 l 1031 621 q 1031 641 1024 659 q 1017 676 1006 692 l 1006 692 l 1087 730 q 1104 708 1112 682 q 1119 655 1119 626 l 1119 626 q 1119 580 1094 548 q 1068 515 1021 486 q 974 457 907 422 l 907 422 q 838 383 793 348 q 748 312 726 273 q 703 233 703 183 l 703 183 q 703 116 737 88 q 770 59 819 59 l 819 59 q 862 59 890 78 q 917 96 931 133 q 945 170 945 225 l 945 225 q 945 282 924 340 q 902 397 855 437 l 855 437 q 825 463 784 479 q 742 494 689 494 l 689 494 q 636 494 605 483 q 573 472 553 452 l 553 452 q 536 435 524 412 q 511 389 505 355 q 499 320 499 266 l 499 266 l 499 100 l 424 100 l 424 292 l 449 450 q 472 488 507 514 q 541 540 586 553 q 631 566 685 566 z"},"൰":{"ha":1084,"x_min":-35,"x_max":1045,"o":"m 240 554 l 326 554 l 326 135 l 323 108 q 323 25 308 -30 q 292 -86 260 -124 l 260 -124 q 228 -161 177 -181 q 126 -201 55 -201 l 55 -201 q 33 -201 11 -199 q -12 -197 -35 -191 l -35 -191 l -27 -119 q -11 -123 8 -125 q 26 -128 48 -128 l 48 -128 q 103 -128 139 -113 q 174 -98 195 -73 l 195 -73 q 219 -46 230 -5 q 240 35 240 102 l 240 102 l 240 554 z m 796 -12 l 796 -12 q 732 -12 693 14 q 653 39 625 82 l 625 82 l 630 83 q 601 36 556 12 q 511 -12 455 -12 l 455 -12 q 411 -12 379 2 q 346 15 323 39 q 299 63 283 96 l 283 96 l 269 258 l 268 525 l 326 525 l 326 238 q 326 183 334 150 q 341 116 361 95 l 361 95 q 376 79 399 70 q 422 60 456 60 l 456 60 q 487 60 510 71 q 533 81 549 98 l 549 98 q 569 120 578 153 q 586 185 586 247 l 586 247 l 586 554 l 672 554 l 672 262 q 672 206 677 174 q 681 141 694 118 l 694 118 q 711 89 738 75 q 764 60 800 60 l 800 60 q 846 60 882 87 q 917 113 937 159 q 957 205 957 263 l 957 263 q 957 324 941 369 q 925 413 898 446 q 870 478 837 500 l 837 500 l 895 563 q 938 528 972 487 q 1006 445 1026 391 q 1045 336 1045 263 l 1045 263 q 1045 187 1016 125 q 987 62 932 25 q 876 -12 796 -12 z"},"൱":{"ha":907,"x_min":39,"x_max":863,"o":"m 288 566 l 288 566 q 334 566 367 553 q 400 539 423 517 q 446 494 462 465 l 462 465 l 498 227 l 498 0 l 412 0 l 412 282 q 412 347 408 381 q 404 414 390 436 l 390 436 q 373 465 347 480 q 321 494 284 494 l 284 494 q 238 494 203 468 q 167 441 147 396 q 127 350 127 292 l 127 292 q 127 232 144 187 q 160 142 187 110 q 214 78 247 55 l 247 55 l 189 -8 q 146 27 112 69 q 78 110 59 165 q 39 219 39 292 l 39 292 q 39 373 70 435 q 100 496 156 531 q 212 566 288 566 z m 625 566 l 625 566 q 700 566 753 530 q 806 493 835 418 q 863 343 863 229 l 863 229 q 863 91 826 -5 q 789 -101 710 -151 q 630 -201 502 -201 l 502 -201 q 473 -201 442 -199 q 411 -197 382 -191 l 382 -191 l 392 -119 q 415 -123 442 -125 q 469 -128 500 -128 l 500 -128 q 583 -128 636 -100 q 689 -73 720 -24 q 750 24 762 89 q 774 153 774 227 l 774 227 q 774 320 755 379 q 736 438 703 466 q 669 494 624 494 l 624 494 q 587 494 561 480 q 535 466 519 437 l 519 437 q 507 415 503 383 q 498 351 498 292 l 498 292 l 498 10 l 423 10 l 423 317 l 452 472 q 486 524 527 545 q 568 566 625 566 z"},"൲":{"ha":1411,"x_min":39,"x_max":1391,"o":"m 1224 554 l 1224 554 q 1283 554 1320 534 q 1357 513 1374 481 q 1391 448 1391 410 l 1391 410 q 1391 368 1377 340 q 1362 312 1336 294 l 1336 294 q 1317 281 1295 273 q 1273 265 1245 262 q 1217 258 1180 258 l 1180 258 l 1003 258 l 1003 328 l 1176 328 q 1211 328 1233 332 q 1254 335 1269 343 l 1269 343 q 1286 351 1296 367 q 1305 383 1305 407 l 1305 407 q 1305 442 1285 464 q 1265 485 1225 485 l 1225 485 q 1180 485 1157 461 q 1134 436 1134 392 l 1134 392 q 1134 358 1145 332 q 1156 306 1175 281 l 1175 281 l 1091 276 q 1076 302 1064 334 q 1051 365 1051 405 l 1051 405 q 1051 452 1074 486 q 1097 519 1137 537 q 1176 554 1224 554 z m 288 566 l 288 566 q 332 566 364 554 q 396 542 422 519 q 447 495 470 458 l 470 458 l 498 227 l 498 0 l 412 0 l 412 282 q 412 347 408 381 q 404 414 390 436 l 390 436 q 373 465 347 480 q 321 494 284 494 l 284 494 q 238 494 203 468 q 167 441 147 396 q 127 350 127 292 l 127 292 q 127 232 144 187 q 160 142 187 110 q 214 78 247 55 l 247 55 l 189 -8 q 146 27 112 69 q 78 110 59 165 q 39 219 39 292 l 39 292 q 39 373 70 435 q 100 496 156 531 q 212 566 288 566 z m 675 566 l 675 566 q 747 566 803 542 q 859 518 898 474 q 937 430 957 371 q 977 312 977 242 l 977 242 q 977 153 949 97 q 921 40 873 14 q 825 -12 764 -12 l 764 -12 q 700 -12 659 12 q 618 36 598 74 q 578 111 578 152 l 578 152 q 578 199 598 233 q 617 267 651 288 l 651 288 q 674 302 700 311 q 725 320 764 324 q 803 328 863 328 l 863 328 l 1125 328 l 1125 258 l 870 258 q 801 258 765 253 q 729 247 702 230 l 702 230 q 684 219 674 200 q 664 181 664 152 l 664 152 q 664 109 690 84 q 715 58 762 58 l 762 58 q 805 58 834 77 q 863 96 879 138 q 894 180 894 247 l 894 247 q 894 261 892 278 q 890 295 887 310 l 887 310 l 887 320 q 876 371 847 411 q 817 450 773 472 q 729 494 672 494 l 672 494 q 639 494 612 487 q 584 480 564 466 l 564 466 q 542 452 528 430 q 513 408 506 375 q 498 342 498 292 l 498 292 l 498 204 l 442 205 l 443 454 q 470 490 503 515 q 535 540 578 553 q 620 566 675 566 z"},"൳":{"ha":784,"x_min":39,"x_max":762,"o":"m 235 -12 l 235 -12 q 182 -12 137 14 q 92 39 66 90 q 39 141 39 217 l 39 217 q 39 312 71 371 q 103 430 161 464 l 161 464 q 198 486 240 498 q 281 510 333 515 q 385 519 450 519 l 450 519 l 762 519 l 762 445 l 485 445 q 403 445 350 441 q 296 437 261 427 q 225 416 197 396 l 197 396 q 167 376 148 345 q 129 313 122 269 l 122 269 l 121 255 q 120 245 120 236 q 120 227 120 216 l 120 216 q 120 164 134 129 q 148 93 175 76 q 201 58 237 58 l 237 58 q 264 58 284 70 q 303 81 314 104 q 325 126 325 158 l 325 158 q 325 206 299 232 q 272 258 231 258 l 231 258 q 197 258 166 243 q 135 227 109 201 l 109 201 l 113 283 q 141 303 176 316 q 210 328 245 328 l 245 328 q 294 328 331 309 q 367 290 388 254 q 408 217 408 165 l 408 165 q 408 110 387 70 q 366 30 327 9 q 288 -12 235 -12 z"},"൴":{"ha":920,"x_min":39,"x_max":881,"o":"m 487 792 l 573 792 l 573 243 q 573 198 576 172 q 578 145 583 130 q 588 114 594 103 l 594 103 q 609 78 631 68 q 653 58 681 58 l 681 58 q 721 58 745 77 q 769 95 781 129 q 792 163 792 208 l 792 208 q 792 262 776 309 q 760 355 729 392 q 698 429 653 454 q 608 479 549 489 l 549 489 l 508 491 q 494 493 479 494 q 464 494 448 494 l 448 494 q 372 494 311 475 q 250 455 208 420 q 165 384 143 338 q 120 291 120 237 l 120 237 l 120 225 q 120 171 135 134 q 150 96 177 77 q 203 58 239 58 l 239 58 q 265 58 284 70 q 303 81 314 104 q 325 126 325 158 l 325 158 q 325 206 299 232 q 272 258 231 258 l 231 258 q 197 258 166 243 q 135 227 109 201 l 109 201 l 113 283 q 141 303 176 316 q 210 328 245 328 l 245 328 q 294 328 331 309 q 367 290 388 254 q 408 217 408 165 l 408 165 q 408 110 387 70 q 366 30 328 9 q 289 -12 237 -12 l 237 -12 q 185 -12 140 14 q 94 40 67 94 q 39 147 39 229 l 39 229 q 39 304 67 366 q 94 428 147 473 q 200 518 276 542 q 352 566 448 566 l 448 566 q 465 566 481 566 q 497 565 513 563 l 513 563 l 556 561 q 627 549 687 521 q 746 493 790 449 q 833 405 857 345 q 881 285 881 210 l 881 210 q 881 143 859 93 q 836 43 792 16 q 747 -12 681 -12 l 681 -12 q 641 -12 606 0 q 570 11 546 34 l 546 34 q 528 51 515 74 q 502 96 495 134 q 487 172 487 235 l 487 235 l 487 792 z"},"൵":{"ha":1233,"x_min":42,"x_max":1228,"o":"m 358 566 l 358 566 q 442 566 493 539 q 544 511 583 460 l 583 460 l 590 394 l 608 229 l 608 0 l 522 0 l 522 306 q 522 365 512 400 q 501 435 478 456 l 478 456 q 457 475 430 485 q 402 494 357 494 l 357 494 q 285 494 233 461 q 180 427 152 370 q 123 312 123 239 l 123 239 l 123 228 q 123 172 138 134 q 153 96 180 77 q 206 58 242 58 l 242 58 q 267 58 286 70 q 305 81 316 103 q 327 125 327 157 l 327 157 q 327 207 301 233 q 275 258 233 258 l 233 258 q 194 258 159 238 q 124 218 95 186 l 95 186 l 80 248 q 109 284 154 306 q 199 328 248 328 l 248 328 q 296 328 333 309 q 369 290 390 254 q 410 217 410 165 l 410 165 q 410 110 389 70 q 368 30 330 9 q 292 -12 240 -12 l 240 -12 q 188 -12 143 14 q 97 40 70 96 q 42 152 42 241 l 42 241 q 42 347 85 419 q 127 491 199 529 q 270 566 358 566 z m 794 566 l 794 566 q 868 566 924 546 q 979 526 1022 488 l 1022 488 q 1076 442 1110 375 q 1143 308 1143 225 l 1143 225 q 1143 150 1118 97 q 1092 44 1044 16 q 995 -12 926 -12 l 926 -12 q 860 -12 815 14 q 770 39 747 84 q 724 128 724 183 l 724 183 q 724 251 753 302 q 782 352 837 394 q 891 435 965 477 l 965 477 q 1025 509 1064 531 q 1103 553 1122 574 q 1140 594 1140 621 l 1140 621 q 1140 641 1133 659 q 1126 676 1115 692 l 1115 692 l 1196 730 q 1213 708 1221 682 q 1228 655 1228 626 l 1228 626 q 1228 580 1203 548 q 1177 515 1130 486 q 1083 457 1016 422 l 1016 422 q 947 383 902 348 q 857 312 835 273 q 812 233 812 183 l 812 183 q 812 116 846 88 q 879 59 928 59 l 928 59 q 971 59 999 78 q 1026 96 1040 133 q 1054 170 1054 225 l 1054 225 q 1054 282 1033 340 q 1011 397 964 437 l 964 437 q 934 463 893 479 q 851 494 798 494 l 798 494 q 745 494 714 483 q 682 472 662 452 l 662 452 q 645 435 633 412 q 620 389 614 355 q 608 320 608 266 l 608 266 l 608 100 l 533 100 l 533 292 l 558 450 q 581 488 616 514 q 650 540 695 553 q 740 566 794 566 z"},"൶":{"ha":1387,"x_min":32,"x_max":1327,"o":"m 229 346 l 229 346 q 297 346 341 321 q 384 295 406 256 q 427 216 427 173 l 427 173 q 427 133 414 102 q 401 71 382 57 l 382 57 l 357 70 l 741 70 l 741 0 l 328 0 l 299 52 q 319 72 331 97 q 343 121 343 158 l 343 158 q 343 211 314 244 q 285 276 229 276 l 229 276 q 194 276 169 261 q 143 245 130 220 q 116 195 116 164 l 116 164 q 116 130 130 102 q 144 74 175 51 l 175 51 l 129 -7 q 87 24 60 67 q 32 109 32 166 l 32 166 q 32 219 57 260 q 81 300 126 323 q 170 346 229 346 z m 1018 566 l 1018 566 q 1097 566 1154 548 q 1210 529 1247 494 l 1247 494 q 1275 469 1293 437 q 1310 405 1319 363 q 1327 321 1327 266 l 1327 266 l 1327 0 l 724 0 l 724 268 q 724 320 733 362 q 741 403 759 436 q 776 468 802 493 l 802 493 q 839 528 892 547 q 944 566 1018 566 z m 971 495 l 971 495 q 929 495 897 474 q 865 453 845 418 l 845 418 q 829 390 820 350 q 810 309 810 249 l 810 249 l 810 68 l 815 68 q 883 119 936 175 q 989 231 1020 289 q 1050 347 1050 402 l 1050 402 q 1050 430 1042 451 q 1033 471 1016 483 q 999 495 971 495 z m 1136 393 l 1136 393 q 1136 334 1109 277 q 1082 220 1032 163 q 982 105 913 45 l 913 45 l 911 65 q 940 67 968 69 q 996 70 1024 70 l 1024 70 l 1241 70 l 1241 249 q 1241 323 1227 372 q 1212 421 1179 451 q 1146 480 1092 494 l 1092 494 l 1094 501 q 1113 479 1125 455 q 1136 430 1136 393 z"},"൷":{"ha":1713,"x_min":32,"x_max":1693,"o":"m 229 346 l 229 346 q 297 346 341 321 q 384 295 406 256 q 427 216 427 173 l 427 173 q 427 133 414 102 q 401 71 382 57 l 382 57 l 357 70 l 677 70 l 713 0 l 328 0 l 299 52 q 319 72 331 97 q 343 121 343 158 l 343 158 q 343 211 314 244 q 285 276 229 276 l 229 276 q 194 276 169 261 q 143 245 130 220 q 116 195 116 164 l 116 164 q 116 130 130 102 q 144 74 175 51 l 175 51 l 129 -7 q 87 24 60 67 q 32 109 32 166 l 32 166 q 32 219 57 260 q 81 300 126 323 q 170 346 229 346 z m 803 566 l 803 566 q 847 566 879 554 q 911 542 937 519 q 962 495 985 458 l 985 458 l 1013 292 l 1013 230 l 927 230 l 927 282 q 927 346 923 380 q 919 414 905 436 l 905 436 q 888 465 862 480 q 836 494 799 494 l 799 494 q 753 494 718 468 q 682 441 662 396 q 642 350 642 292 l 642 292 q 642 211 673 154 q 703 97 755 52 l 755 52 l 718 0 l 674 0 l 640 58 q 615 88 596 123 q 576 157 565 199 q 554 241 554 292 l 554 292 q 554 373 585 435 q 615 496 671 531 q 727 566 803 566 z m 1190 566 l 1190 566 q 1262 566 1318 542 q 1374 518 1413 474 q 1452 430 1472 371 q 1492 312 1492 242 l 1492 242 q 1492 153 1465 97 q 1437 40 1389 14 q 1341 -12 1279 -12 l 1279 -12 q 1215 -12 1174 12 q 1133 35 1113 73 q 1093 110 1093 152 l 1093 152 q 1093 199 1113 233 q 1132 267 1166 288 l 1166 288 q 1189 302 1215 311 q 1240 320 1279 324 q 1318 328 1378 328 l 1378 328 l 1423 328 l 1423 258 l 1385 258 q 1316 258 1280 253 q 1244 247 1217 230 l 1217 230 q 1199 219 1189 200 q 1179 181 1179 152 l 1179 152 q 1179 109 1205 84 q 1230 58 1277 58 l 1277 58 q 1320 58 1349 77 q 1378 96 1394 138 q 1409 180 1409 247 l 1409 247 q 1409 261 1407 278 q 1405 295 1402 310 l 1402 310 l 1402 320 q 1391 371 1362 411 q 1332 450 1288 472 q 1244 494 1187 494 l 1187 494 q 1154 494 1127 487 q 1099 480 1079 466 l 1079 466 q 1057 452 1043 430 q 1028 408 1021 375 q 1013 342 1013 292 l 1013 292 l 1013 265 l 958 265 l 958 454 q 985 490 1018 515 q 1050 540 1093 553 q 1135 566 1190 566 z m 1600 448 l 1683 462 q 1688 450 1691 436 q 1693 421 1693 403 l 1693 403 q 1693 366 1679 339 q 1665 311 1639 293 l 1639 293 q 1611 274 1575 266 q 1538 258 1482 258 l 1482 258 l 1448 258 l 1448 328 l 1478 328 q 1513 328 1535 332 q 1557 335 1573 343 l 1573 343 q 1590 351 1599 367 q 1607 383 1607 407 l 1607 407 q 1607 416 1605 428 q 1603 440 1600 448 l 1600 448 z"},"൸":{"ha":2178,"x_min":10,"x_max":2118,"o":"m 1401 566 l 1401 566 q 1443 566 1473 555 q 1503 544 1524 525 q 1545 506 1560 483 q 1575 460 1585 437 l 1585 437 l 1553 437 q 1579 482 1616 511 q 1653 539 1702 553 q 1750 566 1809 566 l 1809 566 q 1888 566 1945 548 q 2001 529 2038 494 l 2038 494 q 2066 469 2084 437 q 2101 405 2110 363 q 2118 321 2118 266 l 2118 266 l 2118 0 l 1606 0 l 1606 68 q 1674 119 1727 175 q 1780 231 1811 289 q 1841 347 1841 402 l 1841 402 q 1841 430 1833 451 q 1824 471 1806 483 q 1788 495 1759 495 l 1759 495 q 1716 495 1686 475 q 1656 455 1640 427 l 1640 427 q 1620 392 1613 354 q 1606 316 1606 257 l 1606 257 l 1606 230 l 1519 230 l 1519 295 q 1519 365 1512 403 q 1505 440 1487 461 l 1487 461 q 1472 478 1452 486 q 1431 494 1408 494 l 1408 494 q 1384 494 1363 487 q 1342 480 1327 462 l 1327 462 q 1309 440 1302 401 q 1295 362 1295 285 l 1295 285 l 1295 260 q 1295 191 1289 150 q 1282 108 1271 85 q 1260 62 1246 46 l 1246 46 q 1220 15 1183 2 q 1146 -12 1097 -12 l 1097 -12 q 1049 -12 1012 1 q 974 14 947 45 l 947 45 q 934 61 923 84 q 911 107 904 149 q 897 190 897 260 l 897 260 l 897 295 q 897 365 890 403 q 883 440 865 461 l 865 461 q 850 478 830 486 q 809 494 786 494 l 786 494 q 762 494 741 487 q 720 480 705 462 l 705 462 q 687 440 680 401 q 673 362 673 285 l 673 285 l 673 241 q 673 167 662 125 q 650 83 624 53 l 624 53 q 596 20 556 4 q 516 -12 457 -12 l 457 -12 q 391 -12 348 19 q 304 50 279 104 l 279 104 l 301 84 q 284 57 261 35 q 237 13 203 1 q 169 -12 120 -12 l 120 -12 q 91 -12 65 -5 q 38 1 10 15 l 10 15 l 39 82 q 57 72 78 66 q 98 60 123 60 l 123 60 q 162 60 189 75 q 215 90 231 119 l 231 119 q 244 142 248 173 q 251 203 251 262 l 251 262 l 251 554 l 338 554 l 338 237 q 338 183 346 149 q 353 115 372 94 l 372 94 q 386 78 408 69 q 430 60 459 60 l 459 60 q 495 60 520 74 q 544 88 557 107 l 557 107 q 574 132 580 173 q 586 213 586 290 l 586 290 l 586 294 q 586 364 593 405 q 599 446 611 469 q 622 492 635 508 l 635 508 q 661 540 698 553 q 735 566 784 566 l 784 566 q 832 566 870 554 q 907 541 934 509 l 934 509 q 948 493 959 470 q 970 447 977 406 q 984 365 984 294 l 984 294 l 984 259 q 984 189 991 152 q 998 114 1016 93 l 1016 93 q 1031 76 1052 68 q 1073 60 1095 60 l 1095 60 q 1119 60 1140 67 q 1161 74 1176 92 l 1176 92 q 1194 113 1201 151 q 1208 189 1208 258 l 1208 258 l 1208 294 q 1208 364 1215 405 q 1221 446 1233 469 q 1244 492 1257 508 l 1257 508 q 1283 540 1320 553 q 1356 566 1401 566 z m 1927 393 l 1927 393 q 1927 334 1900 277 q 1873 220 1823 163 q 1773 105 1704 45 l 1704 45 l 1702 65 q 1731 67 1759 69 q 1787 70 1815 70 l 1815 70 l 2032 70 l 2032 249 q 2032 323 2018 372 q 2003 421 1970 451 q 1937 480 1883 494 l 1883 494 l 1885 501 q 1904 479 1916 455 q 1927 430 1927 393 z"},"൹":{"ha":1147,"x_min":39,"x_max":1125,"o":"m 288 566 l 288 566 q 332 566 364 554 q 396 542 422 519 q 447 495 470 458 l 470 458 l 498 227 l 498 0 l 412 0 l 412 282 q 412 347 408 381 q 404 414 390 436 l 390 436 q 373 465 347 480 q 321 494 284 494 l 284 494 q 238 494 203 468 q 167 441 147 396 q 127 350 127 292 l 127 292 q 127 232 144 187 q 160 142 187 110 q 214 78 247 55 l 247 55 l 189 -8 q 146 27 112 69 q 78 110 59 165 q 39 219 39 292 l 39 292 q 39 373 70 435 q 100 496 156 531 q 212 566 288 566 z m 675 566 l 675 566 q 747 566 803 542 q 859 518 898 474 q 937 430 957 371 q 977 312 977 242 l 977 242 q 977 153 949 97 q 921 40 873 14 q 825 -12 764 -12 l 764 -12 q 700 -12 659 12 q 618 36 598 74 q 578 111 578 152 l 578 152 q 578 199 598 233 q 617 267 651 288 l 651 288 q 674 302 700 311 q 725 320 764 324 q 803 328 863 328 l 863 328 l 1125 328 l 1125 258 l 870 258 q 801 258 765 253 q 729 247 702 230 l 702 230 q 684 219 674 200 q 664 181 664 152 l 664 152 q 664 109 690 84 q 715 58 762 58 l 762 58 q 805 58 834 77 q 863 96 879 138 q 894 180 894 247 l 894 247 q 894 261 892 278 q 890 295 887 310 l 887 310 l 887 320 q 876 371 847 411 q 817 450 773 472 q 729 494 672 494 l 672 494 q 639 494 612 487 q 584 480 564 466 l 564 466 q 542 452 528 430 q 513 408 506 375 q 498 342 498 292 l 498 292 l 498 204 l 442 205 l 443 454 q 470 490 503 515 q 535 540 578 553 q 620 566 675 566 z"},"ൺ":{"ha":1519,"x_min":42,"x_max":1480,"o":"m 358 566 l 358 566 q 442 566 492 539 q 542 512 576 469 l 576 469 l 562 472 q 594 519 640 543 q 685 566 740 566 l 740 566 q 807 566 850 541 q 892 515 924 465 l 924 465 l 911 443 l 955 288 l 955 0 l 869 0 l 869 316 q 869 371 862 405 q 854 438 834 459 l 834 459 q 819 476 796 485 q 773 494 739 494 l 739 494 q 708 494 685 484 q 662 473 646 456 l 646 456 q 627 435 618 402 q 609 369 609 307 l 609 307 l 609 0 l 523 0 l 523 299 q 523 364 512 400 q 501 435 478 456 l 478 456 q 457 475 428 485 q 398 494 357 494 l 357 494 q 285 494 233 461 q 180 427 152 370 q 123 312 123 239 l 123 239 l 123 228 q 123 172 138 134 q 153 96 180 77 q 206 58 242 58 l 242 58 q 267 58 286 70 q 305 81 316 103 q 327 125 327 157 l 327 157 q 327 207 301 233 q 275 258 233 258 l 233 258 q 194 258 159 238 q 124 218 95 186 l 95 186 l 80 248 q 109 284 154 306 q 199 328 248 328 l 248 328 q 296 328 333 309 q 369 290 390 254 q 410 217 410 165 l 410 165 q 410 110 389 70 q 368 30 330 9 q 292 -12 240 -12 l 240 -12 q 188 -12 143 14 q 97 40 70 96 q 42 152 42 241 l 42 241 q 42 347 85 419 q 127 491 199 529 q 270 566 358 566 z m 1279 -12 l 1279 -12 q 1215 -12 1171 15 q 1126 41 1103 93 q 1080 144 1080 217 l 1080 217 q 1080 275 1099 325 q 1117 374 1150 418 q 1182 462 1224 501 l 1224 501 l 1253 532 q 1282 558 1303 587 q 1323 616 1323 651 l 1323 651 q 1323 678 1305 699 q 1287 720 1245 720 l 1245 720 q 1223 720 1203 717 q 1183 714 1170 709 l 1170 709 l 1151 778 q 1168 783 1197 788 q 1226 792 1258 792 l 1258 792 q 1318 792 1351 771 q 1384 749 1397 720 q 1410 691 1410 668 l 1410 668 q 1410 616 1384 575 q 1357 534 1310 491 l 1310 491 l 1290 464 q 1248 429 1221 389 q 1194 348 1181 305 q 1168 261 1168 215 l 1168 215 q 1168 154 1184 120 q 1199 85 1225 72 q 1250 58 1279 58 l 1279 58 q 1334 58 1363 98 q 1391 137 1391 215 l 1391 215 q 1391 267 1375 318 q 1359 368 1327 409 q 1295 450 1245 473 l 1245 473 q 1223 484 1199 489 q 1175 494 1146 494 l 1146 494 q 1093 494 1061 483 q 1028 472 1008 452 l 1008 452 q 991 435 979 412 q 967 389 961 355 q 955 320 955 266 l 955 266 l 955 100 l 879 100 l 879 292 l 905 451 q 928 489 963 515 q 998 540 1043 553 q 1088 566 1142 566 l 1142 566 q 1184 566 1220 558 q 1256 550 1290 533 l 1290 533 q 1295 531 1300 528 q 1305 525 1309 523 l 1309 523 q 1368 490 1406 441 q 1444 391 1462 334 q 1480 277 1480 221 l 1480 221 q 1480 112 1429 50 q 1377 -12 1279 -12 z"},"ൻ":{"ha":1062,"x_min":39,"x_max":1023,"o":"m 288 566 l 288 566 q 332 566 366 554 q 400 542 426 518 q 452 494 472 457 l 472 457 l 498 227 l 498 0 l 412 0 l 412 282 q 412 347 408 381 q 404 414 390 436 l 390 436 q 373 465 347 480 q 321 494 284 494 l 284 494 q 238 494 203 468 q 167 441 147 396 q 127 350 127 292 l 127 292 q 127 232 144 187 q 160 142 187 110 q 214 78 247 55 l 247 55 l 189 -8 q 146 27 112 69 q 78 110 59 165 q 39 219 39 292 l 39 292 q 39 373 70 435 q 100 496 156 531 q 212 566 288 566 z m 822 -12 l 822 -12 q 758 -12 714 15 q 669 41 646 93 q 623 144 623 217 l 623 217 q 623 275 642 325 q 660 374 693 418 q 725 462 767 501 l 767 501 l 796 532 q 825 558 846 587 q 866 616 866 651 l 866 651 q 866 678 848 699 q 830 720 788 720 l 788 720 q 766 720 746 717 q 726 714 713 709 l 713 709 l 694 778 q 711 783 740 788 q 769 792 801 792 l 801 792 q 861 792 894 771 q 927 749 940 720 q 953 691 953 668 l 953 668 q 953 616 927 575 q 900 534 853 491 l 853 491 l 833 464 q 791 429 764 389 q 737 348 724 305 q 711 261 711 215 l 711 215 q 711 154 727 120 q 742 85 768 72 q 793 58 822 58 l 822 58 q 877 58 906 98 q 934 137 934 215 l 934 215 q 934 267 918 318 q 902 368 870 409 q 838 450 788 473 l 788 473 q 766 484 742 489 q 718 494 689 494 l 689 494 q 636 494 604 483 q 571 472 551 452 l 551 452 q 534 435 522 412 q 510 389 504 355 q 498 320 498 266 l 498 266 l 498 100 l 422 100 l 422 292 l 448 451 q 471 489 506 515 q 541 540 586 553 q 631 566 685 566 l 685 566 q 727 566 763 558 q 799 550 833 533 l 833 533 q 838 531 843 528 q 848 525 852 523 l 852 523 q 911 490 949 441 q 987 391 1005 334 q 1023 277 1023 221 l 1023 221 q 1023 112 972 50 q 920 -12 822 -12 z"},"ർ":{"ha":736,"x_min":39,"x_max":697,"o":"m 495 -12 l 495 -12 q 432 -12 388 15 q 343 41 320 93 q 297 144 297 217 l 297 217 q 297 275 315 325 q 333 374 366 418 q 398 462 440 501 l 440 501 l 469 532 q 498 558 519 587 q 540 616 540 651 l 540 651 q 540 678 522 699 q 504 720 462 720 l 462 720 q 440 720 420 717 q 400 714 387 709 l 387 709 l 368 778 q 385 783 414 788 q 443 792 475 792 l 475 792 q 535 792 568 771 q 601 749 614 720 q 627 691 627 668 l 627 668 q 627 616 601 575 q 574 534 527 491 l 527 491 l 507 464 q 465 429 438 389 q 411 348 398 305 q 385 261 385 215 l 385 215 q 385 154 401 120 q 416 85 442 72 q 467 58 496 58 l 496 58 q 551 58 580 98 q 608 137 608 215 l 608 215 q 608 254 599 293 q 590 331 572 366 q 554 400 527 428 q 499 456 462 473 l 462 473 q 438 484 411 490 q 384 495 352 495 l 352 495 q 280 495 230 466 q 180 436 154 386 q 128 335 128 273 l 128 273 q 128 221 143 180 q 158 139 186 108 q 213 77 250 54 l 250 54 l 200 -9 q 157 16 121 56 q 84 95 62 151 q 39 206 39 277 l 39 277 q 39 339 60 392 q 80 444 120 483 q 159 522 218 544 q 276 566 351 566 l 351 566 q 396 566 435 558 q 473 550 507 533 l 507 533 q 512 531 517 529 q 522 526 526 523 l 526 523 q 585 490 623 441 q 661 391 679 334 q 697 277 697 221 l 697 221 q 697 112 645 50 q 593 -12 495 -12 z"},"ൽ":{"ha":1198,"x_min":39,"x_max":1159,"o":"m 731 566 l 731 566 q 775 566 816 562 q 856 557 893 547 q 930 537 961 519 l 961 519 l 984 509 q 1074 463 1117 387 q 1159 310 1159 221 l 1159 221 q 1159 112 1107 50 q 1055 -12 957 -12 l 957 -12 q 894 -12 850 15 q 805 41 782 93 q 759 144 759 217 l 759 217 q 759 275 777 325 q 795 374 828 418 q 860 462 902 501 l 902 501 l 929 530 q 958 556 980 586 q 1002 616 1002 651 l 1002 651 q 1002 678 984 699 q 966 720 924 720 l 924 720 q 902 720 882 717 q 862 714 849 709 l 849 709 l 830 778 q 847 783 876 788 q 905 792 938 792 l 938 792 q 998 792 1031 771 q 1063 749 1076 720 q 1089 691 1089 668 l 1089 668 q 1089 616 1063 575 q 1036 534 990 491 l 990 491 l 969 464 q 927 429 900 389 q 873 348 860 305 q 847 261 847 215 l 847 215 q 847 154 863 120 q 878 85 904 72 q 929 58 958 58 l 958 58 q 1013 58 1042 98 q 1070 137 1070 215 l 1070 215 q 1070 271 1054 318 q 1037 365 1004 402 q 971 438 919 461 l 919 461 l 902 468 q 867 481 824 488 q 781 494 730 494 l 730 494 q 684 494 640 488 q 595 481 554 464 l 554 464 l 535 456 q 471 426 431 369 q 391 312 391 221 l 391 221 q 391 157 408 122 q 424 86 451 72 q 477 58 507 58 l 507 58 q 538 58 565 72 q 591 85 607 121 q 623 156 623 221 l 623 221 q 623 277 604 327 q 585 377 552 415 q 519 453 475 473 l 475 473 l 454 483 q 431 491 409 494 q 387 497 359 497 l 359 497 q 284 497 233 468 q 181 438 155 388 q 128 337 128 273 l 128 273 q 128 221 143 180 q 158 139 186 108 q 213 77 250 54 l 250 54 l 200 -9 q 157 16 121 56 q 84 95 62 151 q 39 206 39 277 l 39 277 q 39 339 60 392 q 80 444 120 483 q 160 522 218 544 q 276 566 351 566 l 351 566 q 400 566 442 557 q 483 547 524 524 l 524 524 l 549 503 q 619 463 665 389 q 711 315 711 219 l 711 219 q 711 148 688 96 q 664 44 619 16 q 573 -12 507 -12 l 507 -12 q 442 -12 396 16 q 350 44 327 96 q 303 148 303 219 l 303 219 q 303 284 323 336 q 343 388 379 429 q 415 469 462 498 l 462 498 l 488 513 q 541 542 600 554 q 659 566 731 566 z"},"ൾ":{"ha":1044,"x_min":39,"x_max":1005,"o":"m 783 792 l 783 792 q 843 792 876 771 q 909 749 922 720 q 935 691 935 668 l 935 668 q 935 616 909 575 q 882 534 835 491 l 835 491 l 815 464 q 773 429 746 389 q 719 348 706 305 q 693 261 693 215 l 693 215 q 693 154 709 120 q 724 86 750 72 q 775 58 804 58 l 804 58 q 860 58 888 98 q 916 138 916 215 l 916 215 q 916 254 908 292 q 899 330 882 364 q 864 398 838 426 q 812 454 776 473 l 776 473 q 759 483 734 489 q 708 495 682 495 l 682 495 q 645 495 613 486 q 580 476 559 459 l 559 459 q 523 431 508 382 q 492 332 492 263 l 492 263 l 492 246 q 492 197 487 162 q 481 126 470 100 q 458 73 439 51 l 439 51 q 413 21 374 5 q 335 -12 278 -12 l 278 -12 q 205 -12 151 21 q 97 53 68 115 q 39 177 39 263 l 39 263 q 39 331 57 385 q 74 438 109 483 q 144 527 194 566 l 194 566 l 248 504 q 213 480 186 446 q 158 412 143 367 q 127 322 127 265 l 127 265 q 127 203 145 157 q 163 111 197 86 q 230 60 274 60 l 274 60 q 316 60 340 73 q 363 85 377 106 l 377 106 q 394 132 399 177 q 404 222 404 265 l 404 265 l 404 280 q 404 367 426 420 q 448 473 488 507 l 488 507 q 526 539 573 553 q 620 566 677 566 l 677 566 q 715 566 750 558 q 785 549 815 535 l 815 535 l 835 525 q 890 493 928 445 q 966 396 986 339 q 1005 281 1005 220 l 1005 220 q 1005 112 954 50 q 902 -12 804 -12 l 804 -12 q 740 -12 696 15 q 651 41 628 93 q 605 144 605 217 l 605 217 q 605 275 623 325 q 641 374 674 418 q 706 462 748 501 l 748 501 l 777 532 q 806 558 827 587 q 848 616 848 651 l 848 651 q 848 678 831 699 q 813 720 770 720 l 770 720 q 748 720 728 717 q 708 714 695 709 l 695 709 l 676 778 q 693 783 722 788 q 751 792 783 792 z"},"ൿ":{"ha":1206,"x_min":32,"x_max":1174,"o":"m 523 566 l 523 566 q 603 566 655 529 q 706 491 731 427 q 756 362 756 279 l 756 279 q 756 185 728 120 q 700 55 648 22 q 596 -12 524 -12 l 524 -12 q 470 -12 427 7 q 383 25 352 62 l 352 62 q 321 99 305 154 q 288 208 288 279 l 288 279 q 288 413 351 490 q 414 566 523 566 z m 523 496 l 523 496 q 447 496 411 442 q 374 388 374 278 l 374 278 q 374 204 391 155 q 407 106 440 82 q 473 58 521 58 l 521 58 q 570 58 603 82 q 636 105 653 154 q 670 203 670 278 l 670 278 q 670 353 654 402 q 637 450 604 473 q 571 496 523 496 z m 216 -12 l 216 -12 q 126 -12 79 32 q 32 76 32 152 l 32 152 q 32 199 53 234 q 74 268 109 288 l 109 288 q 133 302 163 311 q 192 320 234 324 q 275 328 333 328 l 333 328 l 929 328 q 988 328 1033 319 q 1078 310 1113 284 l 1113 284 q 1139 264 1157 234 q 1174 203 1174 158 l 1174 158 q 1174 79 1130 34 q 1085 -12 1000 -12 l 1000 -12 q 912 -12 866 37 q 820 85 820 155 l 820 155 q 820 194 828 225 q 836 255 852 286 l 852 286 q 853 288 854 291 q 854 294 855 297 l 855 297 q 869 323 887 356 q 904 388 928 431 l 928 431 q 961 489 980 526 q 999 563 1007 590 q 1014 617 1014 643 l 1014 643 q 1014 676 996 698 q 978 720 935 720 l 935 720 q 913 720 893 717 q 873 714 860 709 l 860 709 l 841 778 q 858 783 887 788 q 916 792 948 792 l 948 792 q 1009 792 1042 770 q 1075 748 1088 717 q 1101 686 1101 658 l 1101 658 q 1101 629 1096 604 q 1091 579 1079 551 q 1067 522 1046 484 q 1025 446 993 391 l 993 391 q 980 367 968 345 q 955 323 944 302 l 944 302 q 941 296 939 290 q 937 284 934 278 l 934 278 q 921 248 913 220 q 905 191 905 162 l 905 162 q 905 122 919 100 q 933 77 955 68 q 977 58 1000 58 l 1000 58 q 1044 58 1066 82 q 1088 105 1088 153 l 1088 153 q 1088 182 1077 201 q 1066 220 1049 231 l 1049 231 q 1024 249 992 254 q 959 258 929 258 l 929 258 l 331 258 q 260 258 223 253 q 185 247 157 229 l 157 229 q 139 218 129 199 q 118 180 118 154 l 118 154 q 118 122 131 101 q 143 79 166 69 q 189 58 219 58 l 219 58 q 251 58 284 69 q 316 79 352 106 l 352 106 l 402 52 q 372 30 343 16 q 314 2 284 -5 q 253 -12 216 -12 z"},"!":{"ha":269,"x_min":72,"x_max":196,"o":"m 163 201 l 106 201 l 81 714 l 188 714 l 163 201 z m 134 -12 l 134 -12 q 106 -12 89 5 q 72 22 72 56 l 72 56 q 72 88 88 106 q 104 124 134 124 l 134 124 q 163 124 180 106 q 196 88 196 56 l 196 56 q 196 23 179 6 q 162 -12 134 -12 z"},"\"":{"ha":426,"x_min":70,"x_max":356,"o":"m 156 542 l 95 542 l 70 800 l 181 800 l 156 542 z m 331 542 l 270 542 l 245 800 l 356 800 l 331 542 z"},"#":{"ha":646,"x_min":25,"x_max":621,"o":"m 184 0 l 112 0 l 152 209 l 25 209 l 25 276 l 165 276 l 196 436 l 62 436 l 62 503 l 208 503 l 248 714 l 320 714 l 280 503 l 422 503 l 462 714 l 534 714 l 494 503 l 621 503 l 621 436 l 481 436 l 451 276 l 586 276 l 586 209 l 438 209 l 398 0 l 326 0 l 366 209 l 224 209 l 184 0 z m 267 436 l 236 276 l 379 276 l 409 436 l 267 436 z"},"%":{"ha":831,"x_min":49,"x_max":782,"o":"m 256 0 l 179 0 l 575 714 l 652 714 l 256 0 z m 195 276 l 195 276 q 125 276 87 334 q 49 392 49 501 l 49 501 q 49 613 86 669 q 122 725 195 725 l 195 725 q 267 725 306 667 q 345 609 345 501 l 345 501 q 345 390 307 333 q 269 276 195 276 z m 195 339 l 195 339 q 234 339 253 380 q 272 420 272 501 l 272 501 q 272 581 253 622 q 234 662 195 662 l 195 662 q 157 662 140 622 q 122 581 122 501 l 122 501 q 122 421 140 380 q 157 339 195 339 z m 632 -12 l 632 -12 q 563 -12 525 46 q 486 104 486 213 l 486 213 q 486 325 523 381 q 559 436 632 436 l 632 436 q 704 436 743 378 q 782 320 782 213 l 782 213 q 782 101 744 45 q 706 -12 632 -12 z m 632 51 l 632 51 q 671 51 690 91 q 709 131 709 213 l 709 213 q 709 293 690 333 q 671 373 632 373 l 632 373 q 594 373 577 333 q 559 293 559 213 l 559 213 q 559 131 577 91 q 594 51 632 51 z"},"'":{"ha":250,"x_min":70,"x_max":181,"o":"m 156 542 l 95 542 l 70 800 l 181 800 l 156 542 z"},"(":{"ha":301,"x_min":41,"x_max":270,"o":"m 41 283 l 41 283 q 41 379 57 471 q 73 563 106 647 q 139 730 188 800 l 188 800 l 270 800 q 224 727 193 642 q 162 557 146 466 q 130 375 130 282 l 130 282 q 130 189 145 97 q 160 5 192 -81 q 223 -167 270 -244 l 270 -244 l 188 -244 q 139 -172 106 -87 q 73 -2 57 92 q 41 186 41 283 z"},")":{"ha":301,"x_min":31,"x_max":260,"o":"m 260 273 l 260 273 q 260 177 244 85 q 228 -7 196 -90 q 163 -173 113 -244 l 113 -244 l 31 -244 q 77 -170 108 -85 q 139 -1 155 90 q 171 181 171 274 l 171 274 q 171 367 156 459 q 141 550 110 637 q 79 723 31 800 l 31 800 l 113 800 q 163 728 196 643 q 228 558 244 465 q 260 371 260 273 z"},"*":{"ha":551,"x_min":40,"x_max":510,"o":"m 225 800 l 325 800 l 304 608 l 496 662 l 510 568 l 323 554 l 445 395 l 358 348 l 275 528 l 193 348 l 105 395 l 226 554 l 40 568 l 54 662 l 246 608 l 225 800 z"},"+":{"ha":572,"x_min":51,"x_max":521,"o":"m 322 111 l 250 111 l 250 317 l 51 317 l 51 388 l 250 388 l 250 595 l 322 595 l 322 388 l 521 388 l 521 317 l 322 317 l 322 111 z"},",":{"ha":250,"x_min":31,"x_max":184,"o":"m 80 116 l 177 116 l 184 105 q 175 70 161 30 q 147 -11 131 -51 q 115 -92 98 -129 l 98 -129 l 31 -129 q 41 -89 50 -45 q 59 -2 67 40 q 75 82 80 116 l 80 116 z"},"-":{"ha":322,"x_min":40,"x_max":282,"o":"m 282 227 l 40 227 l 40 309 l 282 309 l 282 227 z"},".":{"ha":268,"x_min":72,"x_max":196,"o":"m 134 -12 l 134 -12 q 108 -12 90 4 q 72 20 72 56 l 72 56 q 72 94 90 109 q 108 124 134 124 l 134 124 q 160 124 178 109 q 196 94 196 56 l 196 56 q 196 20 178 4 q 160 -12 134 -12 z"},"/":{"ha":393,"x_min":21,"x_max":372,"o":"m 106 -244 l 21 -244 l 287 800 l 372 800 l 106 -244 z"},":":{"ha":268,"x_min":72,"x_max":196,"o":"m 134 -12 l 134 -12 q 108 -12 90 4 q 72 20 72 56 l 72 56 q 72 94 90 109 q 108 124 134 124 l 134 124 q 160 124 178 109 q 196 94 196 56 l 196 56 q 196 20 178 4 q 160 -12 134 -12 z m 134 414 l 134 414 q 108 414 90 430 q 72 446 72 482 l 72 482 q 72 520 90 535 q 108 550 134 550 l 134 550 q 160 550 178 535 q 196 520 196 482 l 196 482 q 196 446 178 430 q 160 414 134 414 z"},";":{"ha":268,"x_min":31,"x_max":196,"o":"m 80 116 l 177 116 l 184 105 q 175 70 161 30 q 147 -11 131 -51 q 115 -92 98 -129 l 98 -129 l 31 -129 q 41 -89 50 -45 q 59 -2 67 40 q 75 82 80 116 l 80 116 z m 134 414 l 134 414 q 108 414 90 430 q 72 446 72 482 l 72 482 q 72 520 90 535 q 108 550 134 550 l 134 550 q 160 550 178 535 q 196 520 196 482 l 196 482 q 196 446 178 430 q 160 414 134 414 z"},"<":{"ha":572,"x_min":50,"x_max":521,"o":"m 521 194 l 521 116 l 50 323 l 50 373 l 521 608 l 521 530 l 145 352 l 521 194 z"},"=":{"ha":572,"x_min":57,"x_max":515,"o":"m 515 217 l 57 217 l 57 288 l 515 288 l 515 217 z m 515 416 l 57 416 l 57 487 l 515 487 l 515 416 z"},">":{"ha":572,"x_min":50,"x_max":521,"o":"m 521 323 l 50 116 l 50 194 l 427 351 l 50 530 l 50 608 l 521 373 l 521 323 z"},"?":{"ha":445,"x_min":38,"x_max":413,"o":"m 216 725 l 216 725 q 307 725 360 677 q 413 628 413 542 l 413 542 q 413 499 401 467 q 389 435 365 407 q 341 379 304 347 l 304 347 q 272 320 255 300 q 238 280 232 260 q 225 240 225 211 l 225 211 l 225 202 l 157 202 l 157 220 q 157 258 164 286 q 171 313 189 338 q 207 362 240 390 l 240 390 q 271 417 291 438 q 310 459 319 483 q 328 507 328 541 l 328 541 q 328 588 300 618 q 271 647 216 647 l 216 647 q 176 647 140 635 q 103 622 68 605 l 68 605 l 38 676 q 77 696 123 711 q 169 725 216 725 z m 195 -12 l 195 -12 q 170 -12 152 4 q 133 20 133 56 l 133 56 q 133 94 152 109 q 170 124 195 124 l 195 124 q 221 124 239 109 q 257 94 257 56 l 257 56 q 257 20 239 4 q 221 -12 195 -12 z"},"[":{"ha":318,"x_min":80,"x_max":278,"o":"m 278 -244 l 80 -244 l 80 800 l 278 800 l 278 732 l 167 732 l 167 -176 l 278 -176 l 278 -244 z"},"\\":{"ha":393,"x_min":21,"x_max":372,"o":"m 372 -244 l 287 -244 l 21 800 l 106 800 l 372 -244 z"},"]":{"ha":323,"x_min":40,"x_max":238,"o":"m 238 -244 l 40 -244 l 40 -176 l 151 -176 l 151 732 l 40 732 l 40 800 l 238 800 l 238 -244 z"},"^":{"ha":572,"x_min":39,"x_max":532,"o":"m 118 268 l 39 268 l 264 719 l 314 719 l 532 268 l 453 268 l 289 627 l 118 268 z"},"_":{"ha":444,"x_min":-2,"x_max":446,"o":"m 446 -154 l -2 -154 l -2 -90 l 446 -90 l 446 -154 z"},"{":{"ha":369,"x_min":30,"x_max":330,"o":"m 330 -171 l 330 -244 q 280 -243 241 -225 q 201 -208 179 -169 q 156 -131 156 -70 l 156 -70 l 156 127 q 156 189 124 215 q 91 240 30 240 l 30 240 l 30 315 q 92 315 124 341 q 156 367 156 428 l 156 428 l 156 626 q 156 688 179 726 q 201 763 241 781 q 280 799 330 800 l 330 800 l 330 727 q 290 726 268 708 q 245 690 245 631 l 245 631 l 245 431 q 245 367 216 330 q 186 293 130 281 l 130 281 l 130 275 q 186 263 216 226 q 245 188 245 125 l 245 125 l 245 -76 q 245 -115 255 -135 q 265 -156 285 -163 q 304 -170 330 -171 l 330 -171 z"},"|":{"ha":551,"x_min":239,"x_max":312,"o":"m 312 -244 l 239 -244 l 239 800 l 312 800 l 312 -244 z"},"}":{"ha":369,"x_min":40,"x_max":339,"o":"m 40 727 l 40 800 q 90 799 130 781 q 169 763 192 726 q 214 688 214 626 l 214 626 l 214 428 q 214 367 246 342 q 278 316 339 316 l 339 316 l 339 240 q 278 240 246 215 q 214 189 214 128 l 214 128 l 214 -70 q 214 -131 192 -169 q 169 -208 130 -225 q 90 -243 40 -244 l 40 -244 l 40 -171 q 80 -169 103 -151 q 125 -133 125 -75 l 125 -75 l 125 125 q 125 189 155 226 q 184 263 239 275 l 239 275 l 239 281 q 184 293 155 330 q 125 367 125 431 l 125 431 l 125 631 q 125 670 115 691 q 105 711 86 719 q 67 727 40 727 l 40 727 z"},"~":{"ha":572,"x_min":50,"x_max":521,"o":"m 270 319 l 270 319 q 234 335 212 341 q 190 347 167 347 l 167 347 q 137 347 106 330 q 75 312 50 287 l 50 287 l 50 365 q 75 391 105 405 q 135 418 170 418 l 170 418 q 199 418 228 412 q 256 406 298 388 l 298 388 q 338 371 360 365 q 382 359 410 359 l 410 359 q 440 359 468 376 q 495 392 521 418 l 521 418 l 521 339 q 496 314 467 301 q 438 287 401 287 l 401 287 q 373 287 344 294 q 315 300 270 319 z"}," ":{"ha":309,"x_min":0,"x_max":0,"o":""},"­":{"ha":322,"x_min":40,"x_max":282,"o":"m 282 227 l 40 227 l 40 309 l 282 309 l 282 227 z"},"–":{"ha":500,"x_min":40,"x_max":460,"o":"m 460 227 l 40 227 l 40 309 l 460 309 l 460 227 z"},"—":{"ha":1000,"x_min":40,"x_max":960,"o":"m 960 227 l 40 227 l 40 309 l 960 309 l 960 227 z"},"‘":{"ha":232,"x_min":35,"x_max":187,"o":"m 139 555 l 41 555 l 35 566 q 44 602 58 642 q 72 682 89 723 q 105 764 121 800 l 121 800 l 187 800 q 178 760 169 717 q 159 673 152 632 q 144 590 139 555 l 139 555 z"},"’":{"ha":232,"x_min":36,"x_max":188,"o":"m 84 800 l 182 800 l 188 789 q 179 754 165 714 q 151 673 135 633 q 119 592 103 555 l 103 555 l 36 555 q 43 584 50 616 q 57 648 63 681 q 69 713 75 744 q 80 774 84 800 l 84 800 z"},"“":{"ha":420,"x_min":36,"x_max":376,"o":"m 328 555 l 230 555 l 224 566 q 233 602 247 642 q 261 682 278 723 q 294 764 310 800 l 310 800 l 376 800 q 367 760 358 717 q 348 673 341 632 q 333 590 328 555 l 328 555 z m 140 555 l 42 555 l 36 566 q 45 602 59 642 q 73 682 90 723 q 106 764 122 800 l 122 800 l 188 800 q 179 760 170 717 q 160 673 153 632 q 145 590 140 555 l 140 555 z"},"”":{"ha":420,"x_min":36,"x_max":376,"o":"m 272 800 l 370 800 l 376 789 q 367 754 353 714 q 339 673 323 633 q 307 592 291 555 l 291 555 l 224 555 q 233 594 242 638 q 251 681 259 724 q 267 766 272 800 l 272 800 z m 84 800 l 182 800 l 188 789 q 179 754 165 714 q 151 673 135 633 q 119 592 103 555 l 103 555 l 36 555 q 43 584 50 616 q 57 648 63 681 q 69 713 75 744 q 80 774 84 800 l 84 800 z"},"…":{"ha":804,"x_min":72,"x_max":732,"o":"m 134 -12 l 134 -12 q 108 -12 90 4 q 72 20 72 56 l 72 56 q 72 94 90 109 q 108 124 134 124 l 134 124 q 160 124 178 109 q 196 94 196 56 l 196 56 q 196 20 178 4 q 160 -12 134 -12 z m 402 -12 l 402 -12 q 376 -12 358 4 q 340 20 340 56 l 340 56 q 340 94 358 109 q 376 124 402 124 l 402 124 q 428 124 446 109 q 464 94 464 56 l 464 56 q 464 20 446 4 q 428 -12 402 -12 z m 670 -12 l 670 -12 q 644 -12 626 4 q 608 20 608 56 l 608 56 q 608 94 626 109 q 644 124 670 124 l 670 124 q 696 124 714 109 q 732 94 732 56 l 732 56 q 732 20 714 4 q 696 -12 670 -12 z"},"×":{"ha":572,"x_min":65,"x_max":507,"o":"m 286 402 l 457 574 l 507 523 l 336 352 l 506 183 l 456 132 l 286 303 l 118 132 l 66 183 l 237 352 l 65 522 l 117 574 l 286 402 z"},"÷":{"ha":572,"x_min":51,"x_max":521,"o":"m 521 317 l 51 317 l 51 388 l 521 388 l 521 317 z m 286 121 l 286 121 q 259 121 244 137 q 229 153 229 182 l 229 182 q 229 212 244 227 q 258 242 286 242 l 286 242 q 312 242 327 227 q 341 212 341 182 l 341 182 q 341 153 326 137 q 311 121 286 121 z m 286 462 l 286 462 q 260 462 245 478 q 229 494 229 523 l 229 523 q 229 553 244 568 q 258 583 286 583 l 286 583 q 312 583 327 568 q 341 552 341 523 l 341 523 q 340 493 326 478 q 311 462 286 462 z"},"−":{"ha":572,"x_min":50,"x_max":521,"o":"m 521 317 l 50 317 l 50 388 l 521 388 l 521 317 z"},"₹":{"ha":572,"x_min":72,"x_max":513,"o":"m 393 0 l 284 0 l 72 277 l 82 350 l 118 350 q 169 350 197 360 q 224 370 240 390 l 240 390 q 253 406 261 432 q 269 457 269 498 l 269 498 q 269 545 260 573 q 250 601 233 618 l 233 618 q 217 635 196 642 q 174 648 136 648 l 136 648 l 72 648 l 72 714 l 513 714 l 513 648 l 305 648 q 331 623 345 587 q 359 550 359 497 l 359 497 q 359 434 338 389 q 316 344 275 317 q 233 290 171 280 l 171 280 l 167 290 l 393 0 z m 513 471 l 72 471 l 72 537 l 513 537 l 513 471 z"},"꠰":{"ha":242,"x_min":78,"x_max":164,"o":"m 78 0 l 78 554 l 164 554 l 164 0 l 78 0 z"},"꠱":{"ha":447,"x_min":78,"x_max":369,"o":"m 78 0 l 78 554 l 164 554 l 164 0 l 78 0 z m 283 0 l 283 554 l 369 554 l 369 0 l 283 0 z"},"꠲":{"ha":652,"x_min":78,"x_max":574,"o":"m 78 0 l 78 554 l 164 554 l 164 0 l 78 0 z m 283 0 l 283 554 l 369 554 l 369 0 l 283 0 z m 488 0 l 488 554 l 574 554 l 574 0 l 488 0 z"},"॑":{"ha":0,"x_min":-314,"x_max":-242,"o":"m -314 653 l -314 864 l -242 864 l -242 653 l -314 653 z"},"॒":{"ha":0,"x_min":-491,"x_max":-65,"o":"m -65 -111 l -65 -182 l -491 -182 l -491 -111 l -65 -111 z"},"।":{"ha":350,"x_min":176,"x_max":262,"o":"m 262 -49 l 176 -49 l 176 603 l 262 603 l 262 -49 z"},"॥":{"ha":570,"x_min":176,"x_max":482,"o":"m 482 -49 l 396 -49 l 396 603 l 482 603 l 482 -49 z m 262 -49 l 176 -49 l 176 603 l 262 603 l 262 -49 z"},"᳚":{"ha":0,"x_min":-377,"x_max":-179,"o":"m -377 653 l -377 864 l -309 864 l -309 653 l -377 653 z m -247 653 l -247 864 l -179 864 l -179 653 l -247 653 z"},"̇":{"ha":0,"x_min":-330,"x_max":-226,"o":"m -330 701 l -330 701 q -330 730 -315 744 q -300 757 -278 757 l -278 757 q -257 757 -241 744 q -226 730 -226 701 l -226 701 q -226 673 -241 659 q -257 645 -278 645 l -278 645 q -300 645 -315 659 q -330 673 -330 701 z"},"̣":{"ha":0,"x_min":-330,"x_max":-226,"o":"m -330 -136 l -330 -136 q -330 -107 -315 -93 q -300 -80 -278 -80 l -278 -80 q -257 -80 -241 -93 q -226 -107 -226 -136 l -226 -136 q -226 -164 -241 -177 q -257 -191 -278 -191 l -278 -191 q -300 -191 -315 -177 q -330 -164 -330 -136 z"},"‐":{"ha":322,"x_min":40,"x_max":282,"o":"m 282 227 l 40 227 l 40 309 l 282 309 l 282 227 z"},"​":{"ha":0,"x_min":0,"x_max":0,"o":""},"‌":{"ha":0,"x_min":0,"x_max":0,"o":""},"‍":{"ha":0,"x_min":-161,"x_max":161,"o":"m 29 -244 l -29 -244 l -29 565 l -121 474 l -161 514 l -40 631 l -161 748 l -121 788 l 0 669 l 121 788 l 161 748 l 40 631 l 161 514 l 121 474 l 29 565 l 29 -244 z"},"◌":{"ha":562,"x_min":57,"x_max":504,"o":"m 89 231 l 89 231 q 57 231 57 264 l 57 264 q 57 295 89 295 l 89 295 q 121 295 121 264 l 121 264 q 121 231 89 231 z m 138 95 l 138 95 q 106 95 106 127 l 106 127 q 106 158 138 158 l 138 158 q 169 158 169 127 l 169 127 q 169 95 138 95 z m 281 40 l 281 40 q 249 40 249 72 l 249 72 q 249 104 281 104 l 281 104 q 312 104 312 72 l 312 72 q 312 40 281 40 z m 138 369 l 138 369 q 106 369 106 401 l 106 401 q 106 432 138 432 l 138 432 q 169 432 169 401 l 169 401 q 169 369 138 369 z m 423 95 l 423 95 q 391 95 391 127 l 391 127 q 391 158 423 158 l 423 158 q 455 158 455 127 l 455 127 q 455 95 423 95 z m 281 424 l 281 424 q 249 424 249 456 l 249 456 q 249 487 281 487 l 281 487 q 312 487 312 456 l 312 456 q 312 424 281 424 z m 472 231 l 472 231 q 441 231 441 264 l 441 264 q 441 295 472 295 l 472 295 q 504 295 504 264 l 504 264 q 504 231 472 231 z m 423 369 l 423 369 q 391 369 391 401 l 391 401 q 391 432 423 432 l 423 432 q 455 432 455 401 l 455 401 q 455 369 423 369 z"},"«":{"ha":509,"x_min":40,"x_max":470,"o":"m 40 257 l 40 270 l 208 471 l 271 435 l 131 264 l 271 93 l 208 56 l 40 257 z m 238 257 l 238 270 l 408 471 l 470 435 l 330 264 l 470 93 l 408 56 l 238 257 z"},"»":{"ha":509,"x_min":39,"x_max":469,"o":"m 469 270 l 469 257 l 299 56 l 237 93 l 377 264 l 237 435 l 299 471 l 469 270 z m 270 270 l 270 257 l 101 56 l 39 93 l 179 264 l 39 435 l 101 471 l 270 270 z"},"̈":{"ha":0,"x_min":-141,"x_max":140,"o":"m -141 681 l -141 681 q -141 707 -127 719 q -113 730 -94 730 l -94 730 q -75 730 -61 719 q -47 707 -47 681 l -47 681 q -47 656 -61 644 q -75 631 -94 631 l -94 631 q -113 631 -127 644 q -141 656 -141 681 z m 47 681 l 47 681 q 47 707 61 719 q 74 730 93 730 l 93 730 q 112 730 126 719 q 140 707 140 681 l 140 681 q 140 656 126 644 q 112 631 93 631 l 93 631 q 74 631 61 644 q 47 656 47 681 z"},"̀":{"ha":0,"x_min":-493,"x_max":-292,"o":"m -493 766 l -388 766 q -377 744 -360 717 q -344 689 -325 663 q -307 637 -292 618 l -292 618 l -292 606 l -351 606 q -368 620 -389 640 q -410 659 -430 681 q -451 702 -467 722 q -484 742 -493 756 l -493 756 l -493 766 z"},"́":{"ha":0,"x_min":-325,"x_max":-124,"o":"m -124 766 l -124 756 q -133 742 -150 722 q -167 702 -187 681 q -208 659 -228 640 q -249 620 -267 606 l -267 606 l -325 606 l -325 618 q -310 637 -292 663 q -275 689 -258 717 q -241 744 -230 766 l -230 766 l -124 766 z"},"̋":{"ha":0,"x_min":-126,"x_max":233,"o":"m 233 766 l 233 756 q 225 743 210 723 q 195 703 176 681 q 156 659 137 640 q 117 620 100 606 l 100 606 l 50 606 l 50 618 q 64 637 80 663 q 96 689 112 717 q 127 744 137 766 l 137 766 l 233 766 z m 57 766 l 57 756 q 49 743 34 723 q 19 703 0 681 q -20 659 -39 640 q -59 620 -76 606 l -76 606 l -126 606 l -126 618 q -112 637 -96 663 q -80 689 -65 717 q -50 744 -39 766 l -39 766 l 57 766 z"},"̄":{"ha":0,"x_min":-148,"x_max":149,"o":"m -148 677 l 149 677 l 149 606 l -148 606 l -148 677 z"},"˙":{"ha":183,"x_min":40,"x_max":143,"o":"m 92 737 l 92 737 q 112 737 128 724 q 143 710 143 681 l 143 681 q 143 653 128 639 q 112 625 92 625 l 92 625 q 70 625 55 639 q 40 653 40 681 l 40 681 q 40 710 55 724 q 70 737 92 737 z"},"°":{"ha":428,"x_min":55,"x_max":373,"o":"m 214 417 l 214 417 q 166 417 131 437 q 95 456 75 491 q 55 525 55 570 l 55 570 q 55 616 75 651 q 94 685 130 705 q 165 724 214 724 l 214 724 q 261 724 297 705 q 333 685 353 651 q 373 616 373 570 l 373 570 q 373 525 353 491 q 333 456 297 437 q 261 417 214 417 z m 215 476 l 215 476 q 263 476 286 502 q 308 528 308 570 l 308 570 q 308 614 285 640 q 261 666 215 666 l 215 666 q 166 666 143 640 q 120 614 120 570 l 120 570 q 120 528 143 502 q 166 476 215 476 z"},"A":{"ha":639,"x_min":0,"x_max":638,"o":"m 638 0 l 545 0 l 459 221 l 176 221 l 91 0 l 0 0 l 279 717 l 360 717 l 638 0 z m 432 301 l 352 517 q 349 525 342 546 q 335 567 329 590 q 322 612 318 624 l 318 624 q 313 604 308 584 q 302 563 297 546 q 291 529 287 517 l 287 517 l 206 301 l 432 301 z"},"Á":{"ha":639,"x_min":0,"x_max":638,"o":"m 638 0 l 545 0 l 459 221 l 176 221 l 91 0 l 0 0 l 279 717 l 360 717 l 638 0 z m 432 301 l 352 517 q 349 525 342 546 q 335 567 329 590 q 322 612 318 624 l 318 624 q 313 604 308 584 q 302 563 297 546 q 291 529 287 517 l 287 517 l 206 301 l 432 301 z m 466 944 l 466 934 q 457 920 440 900 q 423 880 403 859 q 382 837 362 818 q 341 798 323 784 l 323 784 l 265 784 l 265 796 q 280 815 298 841 q 315 867 332 895 q 349 922 360 944 l 360 944 l 466 944 z"},"Ă":{"ha":639,"x_min":0,"x_max":638,"o":"m 638 0 l 545 0 l 459 221 l 176 221 l 91 0 l 0 0 l 279 717 l 360 717 l 638 0 z m 432 301 l 352 517 q 349 525 342 546 q 335 567 329 590 q 322 612 318 624 l 318 624 q 313 604 308 584 q 302 563 297 546 q 291 529 287 517 l 287 517 l 206 301 l 432 301 z m 418 918 l 473 918 q 470 878 451 848 q 431 818 397 801 q 363 784 315 784 l 315 784 q 241 784 204 821 q 166 857 162 918 l 162 918 l 216 918 q 219 891 232 878 q 244 864 266 860 q 287 855 317 855 l 317 855 q 343 855 365 860 q 386 865 401 879 q 415 892 418 918 l 418 918 z"},"Â":{"ha":639,"x_min":0,"x_max":638,"o":"m 638 0 l 545 0 l 459 221 l 176 221 l 91 0 l 0 0 l 279 717 l 360 717 l 638 0 z m 432 301 l 352 517 q 349 525 342 546 q 335 567 329 590 q 322 612 318 624 l 318 624 q 313 604 308 584 q 302 563 297 546 q 291 529 287 517 l 287 517 l 206 301 l 432 301 z m 272 944 l 362 944 q 374 922 397 895 q 419 867 444 841 q 468 814 487 795 l 487 795 l 487 784 l 425 784 q 399 800 371 824 q 343 847 316 874 l 316 874 q 289 847 262 824 q 235 801 209 784 l 209 784 l 149 784 l 149 795 q 168 815 192 841 q 215 867 237 895 q 259 922 272 944 l 272 944 z"},"Ä":{"ha":639,"x_min":0,"x_max":638,"o":"m 638 0 l 545 0 l 459 221 l 176 221 l 91 0 l 0 0 l 279 717 l 360 717 l 638 0 z m 432 301 l 352 517 q 349 525 342 546 q 335 567 329 590 q 322 612 318 624 l 318 624 q 313 604 308 584 q 302 563 297 546 q 291 529 287 517 l 287 517 l 206 301 l 432 301 z m 178 859 l 178 859 q 178 885 192 897 q 206 908 225 908 l 225 908 q 244 908 258 897 q 272 885 272 859 l 272 859 q 272 834 258 822 q 244 809 225 809 l 225 809 q 206 809 192 822 q 178 834 178 859 z m 366 859 l 366 859 q 366 885 380 897 q 393 908 412 908 l 412 908 q 431 908 445 897 q 459 885 459 859 l 459 859 q 459 834 445 822 q 431 809 412 809 l 412 809 q 393 809 380 822 q 366 834 366 859 z"},"À":{"ha":639,"x_min":0,"x_max":638,"o":"m 638 0 l 545 0 l 459 221 l 176 221 l 91 0 l 0 0 l 279 717 l 360 717 l 638 0 z m 432 301 l 352 517 q 349 525 342 546 q 335 567 329 590 q 322 612 318 624 l 318 624 q 313 604 308 584 q 302 563 297 546 q 291 529 287 517 l 287 517 l 206 301 l 432 301 z m 188 944 l 293 944 q 304 922 321 895 q 337 867 356 841 q 374 815 389 796 l 389 796 l 389 784 l 330 784 q 313 798 292 818 q 271 837 251 859 q 230 880 214 900 q 197 920 188 934 l 188 934 l 188 944 z"},"Ā":{"ha":639,"x_min":0,"x_max":638,"o":"m 638 0 l 545 0 l 459 221 l 176 221 l 91 0 l 0 0 l 279 717 l 360 717 l 638 0 z m 432 301 l 352 517 q 349 525 342 546 q 335 567 329 590 q 322 612 318 624 l 318 624 q 313 604 308 584 q 302 563 297 546 q 291 529 287 517 l 287 517 l 206 301 l 432 301 z m 169 855 l 466 855 l 466 784 l 169 784 l 169 855 z"},"Ą":{"ha":639,"x_min":0,"x_max":638,"o":"m 638 0 l 545 0 l 459 221 l 176 221 l 91 0 l 0 0 l 279 717 l 360 717 l 638 0 z m 432 301 l 352 517 q 349 525 342 546 q 335 567 329 590 q 322 612 318 624 l 318 624 q 313 604 308 584 q 302 563 297 546 q 291 529 287 517 l 287 517 l 206 301 l 432 301 z m 545 -116 l 545 -116 q 545 -138 557 -149 q 569 -161 590 -161 l 590 -161 q 607 -161 619 -158 q 630 -156 638 -155 l 638 -155 l 638 -211 q 624 -215 610 -217 q 596 -220 576 -220 l 576 -220 q 523 -220 498 -195 q 473 -170 473 -126 l 473 -126 q 473 -97 488 -70 q 502 -43 524 -21 q 545 1 565 15 l 565 15 l 613 0 q 579 -32 562 -58 q 545 -85 545 -116 z"},"Å":{"ha":639,"x_min":0,"x_max":638,"o":"m 638 0 l 545 0 l 459 221 l 176 221 l 91 0 l 0 0 l 279 717 l 360 717 l 638 0 z m 432 301 l 352 517 q 349 525 342 546 q 335 567 329 590 q 322 612 318 624 l 318 624 q 313 604 308 584 q 302 563 297 546 q 291 529 287 517 l 287 517 l 206 301 l 432 301 z m 317 667 l 317 667 q 268 667 238 695 q 208 723 208 773 l 208 773 q 208 823 238 851 q 268 878 317 878 l 317 878 q 364 878 396 851 q 428 823 428 774 l 428 774 q 428 723 397 695 q 365 667 317 667 z m 317 717 l 317 717 q 342 717 358 732 q 373 747 373 773 l 373 773 q 373 799 357 814 q 341 829 317 829 l 317 829 q 293 829 277 814 q 261 799 261 773 l 261 773 q 261 747 276 732 q 290 717 317 717 z"},"Ã":{"ha":639,"x_min":0,"x_max":638,"o":"m 638 0 l 545 0 l 459 221 l 176 221 l 91 0 l 0 0 l 279 717 l 360 717 l 638 0 z m 432 301 l 352 517 q 349 525 342 546 q 335 567 329 590 q 322 612 318 624 l 318 624 q 313 604 308 584 q 302 563 297 546 q 291 529 287 517 l 287 517 l 206 301 l 432 301 z m 186 784 l 135 784 q 138 814 147 838 q 155 861 169 878 q 183 894 202 903 q 221 912 245 912 l 245 912 q 267 912 288 904 q 308 895 327 884 q 346 872 364 864 q 381 855 397 855 l 397 855 q 420 855 433 870 q 445 884 452 913 l 452 913 l 502 913 q 496 855 468 820 q 440 785 393 785 l 393 785 q 372 785 352 794 q 332 802 313 814 q 293 825 276 834 q 258 842 241 842 l 241 842 q 217 842 205 828 q 193 813 186 784 l 186 784 z"},"Æ":{"ha":881,"x_min":-1,"x_max":821,"o":"m 821 79 l 821 0 l 449 0 l 449 221 l 199 221 l 92 0 l -1 0 l 338 714 l 821 714 l 821 635 l 539 635 l 539 412 l 802 412 l 802 334 l 539 334 l 539 79 l 821 79 z m 391 634 l 234 301 l 449 301 l 449 634 l 391 634 z"},"B":{"ha":650,"x_min":97,"x_max":596,"o":"m 97 714 l 301 714 q 435 714 504 675 q 572 635 572 537 l 572 537 q 572 495 557 463 q 541 430 511 409 q 480 387 436 379 l 436 379 l 436 374 q 481 367 518 348 q 554 329 575 294 q 596 259 596 203 l 596 203 q 596 138 566 93 q 536 47 481 24 q 425 0 348 0 l 348 0 l 97 0 l 97 714 z m 187 410 l 319 410 q 411 410 445 440 q 479 469 479 527 l 479 527 q 479 586 438 612 q 396 637 305 637 l 305 637 l 187 637 l 187 410 z m 324 335 l 187 335 l 187 76 l 331 76 q 426 76 463 113 q 500 150 500 210 l 500 210 q 500 248 484 276 q 467 304 429 320 q 390 335 324 335 l 324 335 z"},"C":{"ha":632,"x_min":61,"x_max":601,"o":"m 403 645 l 403 645 q 346 645 300 626 q 254 606 222 569 q 190 531 173 478 q 156 424 156 357 l 156 357 q 156 269 184 204 q 211 139 266 104 q 320 69 402 69 l 402 69 q 449 69 491 77 q 533 85 573 97 l 573 97 l 573 19 q 533 4 491 -3 q 448 -10 389 -10 l 389 -10 q 280 -10 207 35 q 134 80 98 163 q 61 246 61 358 l 61 358 q 61 439 84 506 q 106 573 150 622 q 193 671 257 698 q 321 724 404 724 l 404 724 q 459 724 510 713 q 561 702 601 682 l 601 682 l 565 606 q 532 621 492 633 q 451 645 403 645 z"},"Ć":{"ha":632,"x_min":61,"x_max":601,"o":"m 403 645 l 403 645 q 346 645 300 626 q 254 606 222 569 q 190 531 173 478 q 156 424 156 357 l 156 357 q 156 269 184 204 q 211 139 266 104 q 320 69 402 69 l 402 69 q 449 69 491 77 q 533 85 573 97 l 573 97 l 573 19 q 533 4 491 -3 q 448 -10 389 -10 l 389 -10 q 280 -10 207 35 q 134 80 98 163 q 61 246 61 358 l 61 358 q 61 439 84 506 q 106 573 150 622 q 193 671 257 698 q 321 724 404 724 l 404 724 q 459 724 510 713 q 561 702 601 682 l 601 682 l 565 606 q 532 621 492 633 q 451 645 403 645 z m 528 944 l 528 934 q 519 920 502 900 q 485 880 465 859 q 444 837 424 818 q 403 798 385 784 l 385 784 l 327 784 l 327 796 q 342 815 360 841 q 377 867 394 895 q 411 922 422 944 l 422 944 l 528 944 z"},"Č":{"ha":632,"x_min":61,"x_max":601,"o":"m 403 645 l 403 645 q 346 645 300 626 q 254 606 222 569 q 190 531 173 478 q 156 424 156 357 l 156 357 q 156 269 184 204 q 211 139 266 104 q 320 69 402 69 l 402 69 q 449 69 491 77 q 533 85 573 97 l 573 97 l 573 19 q 533 4 491 -3 q 448 -10 389 -10 l 389 -10 q 280 -10 207 35 q 134 80 98 163 q 61 246 61 358 l 61 358 q 61 439 84 506 q 106 573 150 622 q 193 671 257 698 q 321 724 404 724 l 404 724 q 459 724 510 713 q 561 702 601 682 l 601 682 l 565 606 q 532 621 492 633 q 451 645 403 645 z m 424 784 l 334 784 q 321 807 299 834 q 277 860 253 886 q 229 912 211 931 l 211 931 l 211 944 l 271 944 q 297 927 325 903 q 353 879 378 852 l 378 852 q 405 879 433 903 q 461 927 487 944 l 487 944 l 549 944 l 549 931 q 530 912 506 886 q 481 860 459 834 q 436 807 424 784 l 424 784 z"},"Ç":{"ha":632,"x_min":61,"x_max":601,"o":"m 403 645 l 403 645 q 346 645 300 626 q 254 606 222 569 q 190 531 173 478 q 156 424 156 357 l 156 357 q 156 269 184 204 q 211 139 266 104 q 320 69 402 69 l 402 69 q 449 69 491 77 q 533 85 573 97 l 573 97 l 573 19 q 533 4 491 -3 q 448 -10 389 -10 l 389 -10 q 280 -10 207 35 q 134 80 98 163 q 61 246 61 358 l 61 358 q 61 439 84 506 q 106 573 150 622 q 193 671 257 698 q 321 724 404 724 l 404 724 q 459 724 510 713 q 561 702 601 682 l 601 682 l 565 606 q 532 621 492 633 q 451 645 403 645 z m 473 -139 l 473 -139 q 473 -187 436 -213 q 399 -240 325 -240 l 325 -240 q 310 -240 297 -238 q 283 -237 275 -235 l 275 -235 l 275 -180 q 284 -182 299 -183 q 314 -185 328 -185 l 328 -185 q 364 -185 383 -175 q 402 -166 402 -141 l 402 -141 q 402 -115 376 -103 q 349 -91 311 -86 l 311 -86 l 354 0 l 412 0 l 386 -53 q 410 -58 430 -68 q 450 -79 462 -96 q 473 -113 473 -139 z"},"Ċ":{"ha":632,"x_min":61,"x_max":601,"o":"m 403 645 l 403 645 q 346 645 300 626 q 254 606 222 569 q 190 531 173 478 q 156 424 156 357 l 156 357 q 156 269 184 204 q 211 139 266 104 q 320 69 402 69 l 402 69 q 449 69 491 77 q 533 85 573 97 l 573 97 l 573 19 q 533 4 491 -3 q 448 -10 389 -10 l 389 -10 q 280 -10 207 35 q 134 80 98 163 q 61 246 61 358 l 61 358 q 61 439 84 506 q 106 573 150 622 q 193 671 257 698 q 321 724 404 724 l 404 724 q 459 724 510 713 q 561 702 601 682 l 601 682 l 565 606 q 532 621 492 633 q 451 645 403 645 z m 381 915 l 381 915 q 401 915 417 902 q 432 888 432 859 l 432 859 q 432 831 417 817 q 401 803 381 803 l 381 803 q 359 803 344 817 q 329 831 329 859 l 329 859 q 329 888 344 902 q 359 915 381 915 z"},"D":{"ha":730,"x_min":97,"x_max":669,"o":"m 669 364 l 669 364 q 669 244 625 163 q 580 82 497 41 q 414 0 296 0 l 296 0 l 97 0 l 97 714 l 317 714 q 425 714 504 674 q 583 634 626 557 q 669 479 669 364 z m 574 361 l 574 361 q 574 456 543 517 q 511 578 451 608 q 390 637 304 637 l 304 637 l 187 637 l 187 77 l 284 77 q 429 77 502 149 q 574 220 574 361 z"},"Ð":{"ha":730,"x_min":30,"x_max":669,"o":"m 104 714 l 317 714 q 424 714 503 674 q 582 634 626 557 q 669 479 669 364 l 669 364 q 669 244 625 163 q 580 82 497 41 q 413 0 295 0 l 295 0 l 104 0 l 104 314 l 30 314 l 30 392 l 104 392 l 104 714 z m 304 637 l 304 637 l 194 637 l 194 392 l 372 392 l 372 314 l 194 314 l 194 77 l 284 77 q 430 77 502 149 q 574 220 574 361 l 574 361 q 574 456 542 517 q 510 578 450 608 q 390 637 304 637 z"},"Ď":{"ha":730,"x_min":97,"x_max":669,"o":"m 669 364 l 669 364 q 669 244 625 163 q 580 82 497 41 q 414 0 296 0 l 296 0 l 97 0 l 97 714 l 317 714 q 425 714 504 674 q 583 634 626 557 q 669 479 669 364 z m 574 361 l 574 361 q 574 456 543 517 q 511 578 451 608 q 390 637 304 637 l 304 637 l 187 637 l 187 77 l 284 77 q 429 77 502 149 q 574 220 574 361 z m 405 784 l 315 784 q 302 807 280 834 q 258 860 234 886 q 210 912 192 931 l 192 931 l 192 944 l 252 944 q 278 927 306 903 q 334 879 359 852 l 359 852 q 386 879 414 903 q 442 927 468 944 l 468 944 l 530 944 l 530 931 q 511 912 487 886 q 462 860 440 834 q 417 807 405 784 l 405 784 z"},"Đ":{"ha":730,"x_min":30,"x_max":669,"o":"m 104 714 l 317 714 q 424 714 503 674 q 582 634 626 557 q 669 479 669 364 l 669 364 q 669 244 625 163 q 580 82 497 41 q 413 0 295 0 l 295 0 l 104 0 l 104 314 l 30 314 l 30 392 l 104 392 l 104 714 z m 304 637 l 304 637 l 194 637 l 194 392 l 372 392 l 372 314 l 194 314 l 194 77 l 284 77 q 430 77 502 149 q 574 220 574 361 l 574 361 q 574 456 542 517 q 510 578 450 608 q 390 637 304 637 z"},"E":{"ha":556,"x_min":97,"x_max":496,"o":"m 496 79 l 496 0 l 97 0 l 97 714 l 496 714 l 496 635 l 187 635 l 187 412 l 478 412 l 478 334 l 187 334 l 187 79 l 496 79 z"},"É":{"ha":556,"x_min":97,"x_max":496,"o":"m 496 79 l 496 0 l 97 0 l 97 714 l 496 714 l 496 635 l 187 635 l 187 412 l 478 412 l 478 334 l 187 334 l 187 79 l 496 79 z m 453 944 l 453 934 q 444 920 427 900 q 410 880 390 859 q 369 837 349 818 q 328 798 310 784 l 310 784 l 252 784 l 252 796 q 267 815 285 841 q 302 867 319 895 q 336 922 347 944 l 347 944 l 453 944 z"},"Ě":{"ha":556,"x_min":97,"x_max":496,"o":"m 496 79 l 496 0 l 97 0 l 97 714 l 496 714 l 496 635 l 187 635 l 187 412 l 478 412 l 478 334 l 187 334 l 187 79 l 496 79 z m 349 784 l 259 784 q 246 807 224 834 q 202 860 178 886 q 154 912 136 931 l 136 931 l 136 944 l 196 944 q 222 927 250 903 q 278 879 303 852 l 303 852 q 330 879 358 903 q 386 927 412 944 l 412 944 l 474 944 l 474 931 q 455 912 431 886 q 406 860 384 834 q 361 807 349 784 l 349 784 z"},"Ê":{"ha":556,"x_min":97,"x_max":496,"o":"m 496 79 l 496 0 l 97 0 l 97 714 l 496 714 l 496 635 l 187 635 l 187 412 l 478 412 l 478 334 l 187 334 l 187 79 l 496 79 z m 259 944 l 349 944 q 361 922 384 895 q 406 867 431 841 q 455 814 474 795 l 474 795 l 474 784 l 412 784 q 386 800 358 824 q 330 847 303 874 l 303 874 q 276 847 249 824 q 222 801 196 784 l 196 784 l 136 784 l 136 795 q 155 815 179 841 q 202 867 224 895 q 246 922 259 944 l 259 944 z"},"Ë":{"ha":556,"x_min":97,"x_max":496,"o":"m 496 79 l 496 0 l 97 0 l 97 714 l 496 714 l 496 635 l 187 635 l 187 412 l 478 412 l 478 334 l 187 334 l 187 79 l 496 79 z m 165 859 l 165 859 q 165 885 179 897 q 193 908 212 908 l 212 908 q 231 908 245 897 q 259 885 259 859 l 259 859 q 259 834 245 822 q 231 809 212 809 l 212 809 q 193 809 179 822 q 165 834 165 859 z m 353 859 l 353 859 q 353 885 367 897 q 380 908 399 908 l 399 908 q 418 908 432 897 q 446 885 446 859 l 446 859 q 446 834 432 822 q 418 809 399 809 l 399 809 q 380 809 367 822 q 353 834 353 859 z"},"Ė":{"ha":556,"x_min":97,"x_max":496,"o":"m 496 79 l 496 0 l 97 0 l 97 714 l 496 714 l 496 635 l 187 635 l 187 412 l 478 412 l 478 334 l 187 334 l 187 79 l 496 79 z m 306 915 l 306 915 q 326 915 342 902 q 357 888 357 859 l 357 859 q 357 831 342 817 q 326 803 306 803 l 306 803 q 284 803 269 817 q 254 831 254 859 l 254 859 q 254 888 269 902 q 284 915 306 915 z"},"È":{"ha":556,"x_min":97,"x_max":496,"o":"m 496 79 l 496 0 l 97 0 l 97 714 l 496 714 l 496 635 l 187 635 l 187 412 l 478 412 l 478 334 l 187 334 l 187 79 l 496 79 z m 175 944 l 280 944 q 291 922 308 895 q 324 867 343 841 q 361 815 376 796 l 376 796 l 376 784 l 317 784 q 300 798 279 818 q 258 837 238 859 q 217 880 201 900 q 184 920 175 934 l 175 934 l 175 944 z"},"Ē":{"ha":556,"x_min":97,"x_max":496,"o":"m 496 79 l 496 0 l 97 0 l 97 714 l 496 714 l 496 635 l 187 635 l 187 412 l 478 412 l 478 334 l 187 334 l 187 79 l 496 79 z m 156 855 l 453 855 l 453 784 l 156 784 l 156 855 z"},"Ę":{"ha":556,"x_min":97,"x_max":496,"o":"m 496 79 l 496 0 l 97 0 l 97 714 l 496 714 l 496 635 l 187 635 l 187 412 l 478 412 l 478 334 l 187 334 l 187 79 l 496 79 z m 398 -116 l 398 -116 q 398 -138 410 -149 q 422 -161 443 -161 l 443 -161 q 460 -161 472 -158 q 483 -156 491 -155 l 491 -155 l 491 -211 q 477 -215 463 -217 q 449 -220 429 -220 l 429 -220 q 376 -220 351 -195 q 326 -170 326 -126 l 326 -126 q 326 -97 341 -70 q 355 -43 377 -21 q 398 1 418 15 l 418 15 l 466 0 q 432 -32 415 -58 q 398 -85 398 -116 z"},"F":{"ha":519,"x_min":97,"x_max":496,"o":"m 187 303 l 187 0 l 97 0 l 97 714 l 496 714 l 496 635 l 187 635 l 187 382 l 477 382 l 477 303 l 187 303 z"},"G":{"ha":728,"x_min":61,"x_max":654,"o":"m 407 297 l 407 377 l 654 377 l 654 27 q 596 8 537 -1 q 478 -10 403 -10 l 403 -10 q 292 -10 216 35 q 140 79 101 162 q 61 244 61 357 l 61 357 q 61 469 105 551 q 149 633 232 679 q 314 724 431 724 l 431 724 q 491 724 545 713 q 598 702 644 682 l 644 682 l 610 604 q 572 621 525 633 q 477 645 426 645 l 426 645 q 341 645 280 610 q 219 575 187 511 q 155 446 155 357 l 155 357 q 155 272 183 207 q 210 141 269 105 q 328 68 424 68 l 424 68 q 471 68 504 73 q 537 78 564 85 l 564 85 l 564 297 l 407 297 z"},"Ğ":{"ha":728,"x_min":61,"x_max":654,"o":"m 407 297 l 407 377 l 654 377 l 654 27 q 596 8 537 -1 q 478 -10 403 -10 l 403 -10 q 292 -10 216 35 q 140 79 101 162 q 61 244 61 357 l 61 357 q 61 469 105 551 q 149 633 232 679 q 314 724 431 724 l 431 724 q 491 724 545 713 q 598 702 644 682 l 644 682 l 610 604 q 572 621 525 633 q 477 645 426 645 l 426 645 q 341 645 280 610 q 219 575 187 511 q 155 446 155 357 l 155 357 q 155 272 183 207 q 210 141 269 105 q 328 68 424 68 l 424 68 q 471 68 504 73 q 537 78 564 85 l 564 85 l 564 297 l 407 297 z m 505 918 l 560 918 q 557 878 538 848 q 518 818 484 801 q 450 784 402 784 l 402 784 q 328 784 291 821 q 253 857 249 918 l 249 918 l 303 918 q 306 891 319 878 q 331 864 353 860 q 374 855 404 855 l 404 855 q 430 855 452 860 q 473 865 488 879 q 502 892 505 918 l 505 918 z"}}}
